<svg xmlns="http://www.w3.org/2000/svg" xmlns:xlink="http://www.w3.org/1999/xlink" width="80" height="71" viewBox="0 0 80 71">
    <defs>
        <path id="a" d="M0 .274h29.649V24.93H0z"/>
    </defs>
    <g fill="none" fill-rule="evenodd">
        <path fill="#888" d="M4.705 19.013h33.129v-1.364H4.705zM4.705 13.906h3.726v-2.344H4.705zM10.075 13.906h3.726v-2.344h-3.726zM4.705 24.192h17.649v-1.435H4.705zM34.494 56.568h33.129v-1.364H34.494zM34.494 61.729h17.649v-1.435H34.494zM10.303 29.107h9.323v-1.872h-9.323zM4.705 29.107h1.872v-1.872H4.705z"/>
        <path fill="#008AE3" d="M69.582 70.492H30.89v-.7h38.692a7.854 7.854 0 0 0 7.854-7.854V42.4h.699v19.538c0 4.705-3.83 8.554-8.553 8.554M.735 44.761h-.7V8.553A8.555 8.555 0 0 1 8.589 0h61.01a8.554 8.554 0 0 1 8.553 8.553h-.7A7.853 7.853 0 0 0 69.6.7H8.589C4.268.7.735 4.215.735 8.553v36.208z"/>
        <path fill="#008AE6" d="M77.995 26.85c-.087.087-.21.123-.437.14-.49 0-.98.035-1.452.052l-1.679.053c-.315 0-.42.088-.472.42-.28 1.522-.787 2.903-1.522 4.075-.193.315-.175.49.105.735.402.35.787.717 1.154 1.067.35.315.7.647 1.05.979.175.158.262.28.262.42 0 .14-.07.28-.228.437-.804.823-1.504 1.575-2.15 2.275-.14.139-.245.209-.35.209-.105 0-.21-.052-.35-.193-.298-.28-.595-.56-.893-.838-.436-.403-.909-.84-1.347-1.278-.157-.157-.296-.227-.42-.227-.104 0-.227.052-.367.157-1.119.823-2.414 1.4-3.97 1.785-.332.087-.368.209-.35.507l.053 1.417c.017.524.017 1.066.051 1.592.018.26-.016.437-.122.542-.104.104-.262.157-.506.157h-.21c-1.068 0-2.012.035-2.87.088h-.086c-.385 0-.42-.228-.438-.508-.018-.42-.018-.856-.035-1.276a60.17 60.17 0 0 1-.035-1.802c0-.385-.122-.542-.472-.595a11.247 11.247 0 0 1-4.128-1.557.531.531 0 0 0-.245-.087c-.123 0-.21.087-.332.21-.28.297-.56.594-.822.875-.42.437-.858.909-1.278 1.364-.157.192-.296.279-.437.279-.14 0-.262-.07-.438-.244a64.81 64.81 0 0 0-2.203-2.064c-.175-.158-.245-.28-.262-.42 0-.14.07-.263.245-.437.42-.42.84-.875 1.242-1.312.28-.298.577-.613.856-.927.193-.21.263-.368.071-.63-.875-1.242-1.47-2.52-1.767-3.848-.088-.42-.263-.56-.63-.56h-.157c-.577.052-1.154.052-1.733.07-.418.018-.856.018-1.276.035h-.07c-.279 0-.385-.105-.385-.437-.018-1.155-.035-2.187-.122-3.254-.018-.192.018-.332.104-.42.106-.105.246-.122.473-.14.473-.017.944-.017 1.4-.034a51.143 51.143 0 0 1 1.678-.036c.351 0 .473-.105.526-.454.261-1.505.77-2.87 1.521-4.076.21-.332.122-.49-.122-.717-.402-.35-.787-.717-1.172-1.067-.35-.315-.7-.647-1.05-.98-.139-.122-.262-.262-.262-.42 0-.122.07-.244.227-.402.648-.63 1.312-1.364 2.065-2.186.174-.21.332-.298.471-.298.14 0 .281.088.455.263.42.438.875.857 1.312 1.259.28.245.56.508.822.77.157.158.263.21.367.21.106 0 .21-.052.351-.157a10.432 10.432 0 0 1 3.777-1.732c.473-.105.63-.315.595-.805a56.68 56.68 0 0 1-.069-1.696c-.018-.403-.018-.84-.053-1.243-.018-.192.018-.314.088-.402.07-.07.192-.105.367-.105 1.031-.017 2.1-.052 3.2-.104h.071c.402 0 .49.227.507.559l.052 1.592.053 1.487c0 .349.122.472.455.524a11.65 11.65 0 0 1 4.075 1.522c.035.018.053.035.088.052.087.053.157.105.244.105a.334.334 0 0 0 .123-.034c.053-.053.105-.105.14-.158.053-.052.105-.105.157-.175.192-.21.385-.402.577-.612.49-.524.997-1.05 1.47-1.592.122-.14.228-.227.35-.227.105 0 .21.052.332.175a80.73 80.73 0 0 0 2.38 2.22c.14.124.208.246.208.35 0 .158-.104.28-.209.404l-.892.944c-.402.437-.84.892-1.26 1.329-.21.228-.227.385-.052.647a10.68 10.68 0 0 1 1.785 3.9c.104.49.314.526.716.509.525-.036 1.067-.053 1.592-.071l1.417-.052c.315-.018.507.018.507.437 0 1.102.053 2.222.105 3.254.017.227-.017.35-.105.437m.98-3.831c-.036-.856-.456-1.26-1.277-1.26h-.105c-.28.018-.542.018-.823.036-.542.017-1.084.035-1.643.07h-.088c-.297 0-.455-.122-.56-.473-.28-.926-.63-1.906-1.224-2.728-.245-.333-.228-.543.053-.822a45.083 45.083 0 0 0 1.801-1.924c.472-.543.454-1.12-.035-1.592a99.802 99.802 0 0 0-2.834-2.641c-.279-.245-.542-.368-.805-.368-.279 0-.577.14-.856.455-.595.613-1.172 1.207-1.715 1.837-.157.175-.314.262-.472.262a.701.701 0 0 1-.367-.122 10.293 10.293 0 0 0-2.799-1.05c-.419-.087-.507-.297-.507-.664a96.605 96.605 0 0 0-.07-2.52c-.035-.77-.437-1.188-1.154-1.188h-.053c-1.277.034-2.536.087-3.743.139-.875.053-1.242.455-1.207 1.347.018.84.053 1.644.087 2.449.018.297-.034.49-.314.595-1.435.315-2.939 1.172-3.044 1.242-.315.157-.56 0-.822-.193a3.396 3.396 0 0 1-.437-.367l-.526-.49c-.069-.087-.139-.157-.209-.227a6.428 6.428 0 0 0-.507-.455s-.053-.053-.07-.053c-.052-.034-.088-.07-.14-.105-.297-.21-.84-.472-1.155-.157-.297.28-.577.595-.857.892l-.244.245c-.193.21-.403.42-.595.63-.385.402-.753.804-1.138 1.224-.646.7-.63 1.26.053 1.907.123.105.228.227.35.332.437.42.892.857 1.346 1.259.281.246.404.473.176.875a10.048 10.048 0 0 0-1.032 2.816c-.088.42-.298.49-.665.49-.822 0-1.696.035-2.57.07-.665.035-1.12.472-1.12 1.084.035 1.47.07 2.764.14 3.989.034.717.437 1.084 1.171 1.084h.035c.822-.017 1.662-.053 2.52-.087h.104c.35 0 .507.122.612.507.315 1.085.717 1.994 1.26 2.78.21.316.14.473-.088.718a63.417 63.417 0 0 0-1.8 1.94c-.492.562-.474 1.139.034 1.646a123.02 123.02 0 0 0 2.781 2.606c.28.262.56.385.822.385.297 0 .594-.157.91-.49.664-.7 1.224-1.276 1.713-1.836.158-.176.281-.245.438-.245.104 0 .21.035.35.104.734.385 1.713.858 2.798 1.05.473.087.56.315.56.735v.507c0 .437.017.892.035 1.347v.175c.018.297.018.595.088.874.07.402.175.7.577.7v.035-.035c1.241 0 2.397-.035 3.498-.07.367-.018.717-.034 1.032-.052.595-.035.98-.49.98-1.138a136.89 136.89 0 0 0-.088-2.64c-.018-.281 0-.526.367-.648 1.032-.332 2.03-.665 2.887-1.312a.48.48 0 0 1 .314-.122c.14 0 .263.07.42.227a73.762 73.762 0 0 0 1.837 1.714c.315.298.612.438.892.438.298 0 .594-.158.926-.507.736-.77 1.505-1.592 2.432-2.607.612-.664.595-1.242-.069-1.871l-.07-.07c-.578-.543-1.172-1.102-1.767-1.645-.21-.192-.298-.35-.123-.664.56-.997.91-1.96 1.102-2.921.087-.42.332-.507.664-.525l1.872-.053.525-.017c.928-.035 1.312-.437 1.295-1.347.017-1.015-.018-2.17-.07-3.516"/>
        <path fill="#008AE6" d="M62.078 21.462a3.986 3.986 0 0 0-3.988 3.988 3.986 3.986 0 0 0 3.988 3.988 3.986 3.986 0 0 0 3.987-3.988c0-2.204-1.8-3.988-3.987-3.988m0 9.288a5.309 5.309 0 0 1-5.3-5.3c0-2.92 2.38-5.3 5.3-5.3 2.921 0 5.3 2.38 5.3 5.3-.018 2.921-2.397 5.3-5.3 5.3"/>
        <path fill="#888" d="M32.99 51.6c-1.103 0-2.013.91-2.013 2.012v9.708c0 1.101.91 2.011 2.012 2.011h36.138c1.101 0 2.011-.91 2.011-2.01v-9.709c0-1.102-.91-2.012-2.01-2.012H32.988zm36.137 13.906H32.99a2.187 2.187 0 0 1-2.187-2.186v-9.708c0-1.207.98-2.187 2.187-2.187h36.138c1.207 0 2.186.98 2.186 2.187v9.708a2.186 2.186 0 0 1-2.186 2.186z"/>
        <path fill="#008AE6" d="M24.383 53.594a.432.432 0 0 0 .437-.437V49.17a.432.432 0 0 0-.437-.437h-.525a.432.432 0 0 0-.437.437c0 .244.192.437.437.437h.088v3.568c0 .228.192.42.437.42"/>
        <g transform="translate(0 45.492)">
            <mask id="b" fill="#fff">
                <use xlink:href="#a"/>
            </mask>
            <path fill="#008AE6" d="M13.644 16.568a.474.474 0 0 1-.595 0C12.682 16.29 1.435 7.455.893 7.036a.494.494 0 0 1 .472-.316h17.894a5.242 5.242 0 0 0 2.64 3.376 3567.11 3567.11 0 0 1-8.255 6.472zM25.8 23.74a.498.498 0 0 1-.472.314H1.382a.514.514 0 0 1-.472-.314l9.935-7.802 1.679 1.313c.228.174.525.28.823.28.279 0 .577-.088.82-.28.63-.49 1.016-.805 1.68-1.313l9.954 7.802zm-15.656-8.36l-9.27 7.275V8.102l9.27 7.277zM25.485.283a.425.425 0 0 0-.507.332c-.052.227.105.473.333.507 2.01.437 3.48 2.24 3.48 4.303a4.393 4.393 0 0 1-4.39 4.39 4.393 4.393 0 0 1-4.39-4.39 4.414 4.414 0 0 1 3.48-4.303.434.434 0 0 0 .333-.507c-.053-.228-.28-.385-.507-.332A5.263 5.263 0 0 0 19.17 5.83H1.38C.63 5.83 0 6.44 0 7.211v16.336c0 .752.613 1.382 1.382 1.382h23.947c.752 0 1.38-.612 1.38-1.382v-7.154a.432.432 0 0 0-.436-.437.433.433 0 0 0-.438.437v6.262l-9.27-7.276 6.28-4.915c.472.14 1.014.227 1.539.227.507 0 .997-.07 1.45-.21v3.883c0 .245.194.437.439.437a.432.432 0 0 0 .437-.437V10.15a5.257 5.257 0 0 0 2.939-4.723A5.268 5.268 0 0 0 25.486.284z" mask="url(#b)"/>
        </g>
    </g>
</svg>
