<svg xmlns="http://www.w3.org/2000/svg" width="83" height="73" viewBox="0 0 83 73">
    <g fill="none" fill-rule="evenodd">
        <path fill="#888" d="M6.109 19.558h34.078v-1.404H6.109zM6.109 14.305h3.832v-2.412H6.109zM11.633 14.305h3.833v-2.412h-3.833zM6.109 24.884h18.154v-1.476H6.109zM36.75 58.187h34.078v-1.404H36.75zM36.75 63.496h18.155v-1.477H36.75zM11.867 29.939h9.59v-1.925h-9.59zM6.109 29.939h1.925v-1.925H6.109z"/>
        <path fill="#008AE3" d="M72.843 72.509h-39.8v-.72h39.8a8.078 8.078 0 0 0 8.078-8.08V43.614h.72V63.71c0 4.84-3.957 8.799-8.798 8.799M2.025 46.042h-.72V8.798A8.8 8.8 0 0 1 10.105 0H72.86c4.858 0 8.8 3.94 8.8 8.798h-.72A8.078 8.078 0 0 0 72.86.719H10.104a8.079 8.079 0 0 0-8.079 8.079v37.244z"/>
        <path fill="#008AE6" d="M81.497 27.618c-.09.09-.216.126-.449.144-.504 0-1.008.037-1.494.054l-1.727.054c-.324 0-.433.09-.486.432-.288 1.566-.81 2.987-1.565 4.192-.198.324-.18.504.108.756.413.36.81.738 1.186 1.097.362.324.721.666 1.08 1.008.18.162.27.288.27.432 0 .144-.07.288-.234.45-.828.845-1.546 1.619-2.213 2.339-.144.144-.25.215-.359.215-.108 0-.217-.052-.36-.197-.306-.288-.61-.576-.918-.864a44.072 44.072 0 0 1-1.385-1.314c-.162-.162-.307-.234-.433-.234-.106 0-.233.055-.376.163-1.152.846-2.484 1.439-4.085 1.835-.342.09-.377.216-.36.52l.054 1.46c.017.54.017 1.097.055 1.636.017.27-.019.45-.126.558-.11.108-.27.162-.523.162h-.216a47.04 47.04 0 0 0-2.95.09h-.09c-.395 0-.432-.234-.45-.522-.018-.431-.018-.882-.036-1.313a60.218 60.218 0 0 1-.036-1.854c0-.395-.126-.558-.486-.611a11.597 11.597 0 0 1-4.247-1.602.537.537 0 0 0-.252-.09c-.125 0-.215.09-.34.216-.288.306-.577.612-.846.9-.433.45-.882.935-1.315 1.403-.16.198-.304.288-.448.288-.144 0-.27-.071-.45-.252a68.92 68.92 0 0 0-2.268-2.123c-.18-.161-.25-.288-.269-.431 0-.144.071-.27.252-.45.431-.432.863-.9 1.276-1.35.288-.305.595-.63.883-.953.197-.216.27-.378.071-.648-.898-1.278-1.51-2.591-1.817-3.958-.09-.432-.27-.576-.647-.576h-.163c-.593.054-1.187.054-1.78.072-.432.018-.883.018-1.314.036h-.072c-.288 0-.395-.108-.395-.45-.019-1.187-.037-2.25-.127-3.346-.018-.198.018-.342.108-.433.108-.107.251-.125.486-.144.486-.017.972-.017 1.44-.035a54.203 54.203 0 0 1 1.727-.036c.36 0 .485-.108.54-.468.27-1.548.791-2.951 1.565-4.193.216-.341.126-.503-.126-.737-.414-.36-.809-.738-1.207-1.098a52.244 52.244 0 0 1-1.078-1.007c-.145-.126-.27-.27-.27-.432 0-.125.072-.252.233-.414.667-.648 1.35-1.403 2.124-2.25.181-.214.342-.304.486-.304.143 0 .287.09.467.269.432.45.9.882 1.35 1.296.287.252.575.522.845.79.162.164.27.217.378.217.11 0 .215-.053.36-.162a10.754 10.754 0 0 1 3.886-1.781c.487-.108.648-.324.612-.827a59.93 59.93 0 0 1-.072-1.746c-.017-.413-.017-.863-.053-1.277-.018-.198.017-.324.09-.414.071-.072.198-.107.377-.107 1.061-.02 2.16-.055 3.292-.11h.073c.414 0 .503.235.521.577.018.539.035 1.098.055 1.637l.054 1.53c0 .359.126.485.467.539a11.97 11.97 0 0 1 4.192 1.566c.037.017.054.035.091.054.09.054.161.107.252.107a.327.327 0 0 0 .125-.035c.054-.055.108-.11.144-.162.054-.055.11-.108.161-.18.198-.216.398-.415.595-.63.503-.54 1.025-1.08 1.512-1.637.125-.144.233-.234.36-.234.107 0 .215.054.341.18a84.172 84.172 0 0 0 2.446 2.285c.145.126.217.252.217.36 0 .16-.107.288-.217.414-.306.324-.61.647-.917.97-.414.45-.863.918-1.296 1.368-.216.234-.233.396-.053.666a10.98 10.98 0 0 1 1.835 4.012c.108.504.324.54.737.522.54-.036 1.097-.054 1.638-.072l1.458-.054c.323-.018.521.018.521.45 0 1.133.054 2.285.108 3.346.02.235-.017.36-.108.45m1.008-3.94c-.036-.881-.468-1.295-1.314-1.295h-.108c-.287.018-.558.018-.846.035-.556.018-1.115.036-1.69.073h-.09c-.307 0-.468-.126-.577-.486-.287-.954-.647-1.961-1.259-2.807-.25-.342-.233-.558.055-.846a45.148 45.148 0 0 0 1.852-1.98c.486-.556.468-1.15-.036-1.636a106.47 106.47 0 0 0-2.914-2.717c-.288-.252-.559-.378-.828-.378-.288 0-.594.144-.88.468-.613.63-1.208 1.24-1.765 1.889-.162.18-.324.27-.485.27a.722.722 0 0 1-.379-.126 10.54 10.54 0 0 0-2.879-1.08c-.43-.09-.52-.305-.52-.683a85.559 85.559 0 0 0-.074-2.591c-.035-.792-.449-1.223-1.186-1.223h-.055c-1.312.036-2.608.09-3.849.143-.9.055-1.279.469-1.243 1.386.02.864.054 1.69.09 2.519.02.306-.036.504-.324.61-1.475.325-3.022 1.207-3.13 1.279-.324.16-.575 0-.845-.197a3.682 3.682 0 0 1-.45-.38l-.54-.503a2.906 2.906 0 0 0-.216-.233 6.45 6.45 0 0 0-.522-.468s-.053-.054-.07-.054c-.056-.036-.092-.072-.146-.108-.306-.216-.863-.486-1.187-.162-.306.288-.594.61-.88.917-.092.09-.182.18-.253.252-.198.216-.415.432-.612.648-.396.414-.774.828-1.17 1.259-.665.72-.648 1.296.054 1.96.126.11.234.236.36.344.45.43.918.882 1.385 1.295.29.252.414.486.18.899a10.294 10.294 0 0 0-1.06 2.897c-.09.432-.307.504-.685.504-.846 0-1.745.036-2.645.072-.684.036-1.152.486-1.152 1.115.037 1.512.073 2.844.145 4.103.036.738.45 1.116 1.205 1.116h.035c.848-.018 1.711-.055 2.592-.091h.107c.36 0 .523.126.63.522.324 1.116.738 2.052 1.296 2.86.217.325.144.487-.089.739a64.368 64.368 0 0 0-1.854 1.997c-.504.575-.487 1.169.036 1.69a130.05 130.05 0 0 0 2.861 2.682c.288.27.576.396.846.396.305 0 .611-.162.935-.504.683-.72 1.26-1.313 1.763-1.89.162-.18.288-.251.45-.251.108 0 .216.036.36.108.755.396 1.762.88 2.878 1.08.486.089.577.323.577.755v.522c0 .449.018.918.036 1.386v.179c.017.306.017.612.09.9.071.414.18.719.592.719v.037-.037c1.28 0 2.466-.036 3.6-.071.377-.018.737-.036 1.06-.055.613-.036 1.01-.503 1.01-1.17-.019-.9-.055-1.816-.092-2.715-.018-.288 0-.54.378-.666 1.062-.342 2.087-.684 2.97-1.35a.495.495 0 0 1 .322-.126c.145 0 .271.072.433.234.54.522 1.115 1.062 1.89 1.763.323.306.63.45.917.45.305 0 .611-.162.953-.521.756-.792 1.548-1.638 2.501-2.682.631-.683.612-1.278-.073-1.925l-.07-.072c-.595-.557-1.206-1.133-1.818-1.691-.215-.197-.307-.36-.126-.684a10.152 10.152 0 0 0 1.134-3.005c.09-.431.341-.521.683-.54l1.925-.053.54-.018c.954-.036 1.35-.45 1.332-1.386.018-1.043-.018-2.231-.072-3.616"/>
        <path fill="#008AE6" d="M65.124 22.077a4.1 4.1 0 0 0-4.102 4.102 4.1 4.1 0 0 0 4.102 4.102 4.1 4.1 0 0 0 4.103-4.102 4.112 4.112 0 0 0-4.103-4.102m0 9.553a5.459 5.459 0 0 1-5.451-5.451 5.46 5.46 0 0 1 5.451-5.452 5.459 5.459 0 0 1 5.451 5.452c-.017 3.005-2.465 5.45-5.451 5.45"/>
        <path fill="#888" d="M35.203 53.077c-1.134 0-2.07.937-2.07 2.07v9.985c0 1.133.936 2.07 2.07 2.07h37.172a2.08 2.08 0 0 0 2.07-2.07v-9.986a2.08 2.08 0 0 0-2.07-2.069H35.203zm37.172 14.304H35.203a2.25 2.25 0 0 1-2.249-2.249v-9.986a2.25 2.25 0 0 1 2.25-2.249h37.171a2.25 2.25 0 0 1 2.25 2.25v9.985a2.262 2.262 0 0 1-2.25 2.25z"/>
        <path fill="#008AE3" d="M23.634 66.913a57.778 57.778 0 0 1-3.347.504c-.467.054-.9.107-1.35.161h-.017c-.395.036-.791.073-1.187.108-.072 0-.144.02-.216.02-.342.017-.666.035-.99.053h-.198c-.774.018-1.547.018-2.32 0h-.217l-.99-.054c-.071 0-.161-.019-.232-.019-.38-.017-.756-.053-1.153-.089h-.036a39.3 39.3 0 0 1-1.33-.144 81.671 81.671 0 0 1-3.366-.504l-4.804-.863c2.5-2.86 3.762-6.298 3.762-10.238v-5.63c.017-3.402 2.428-6.047 4.82-7.145a10.508 10.508 0 0 1 2.195-.737h.019a11.416 11.416 0 0 1 4.75-.037h.018c.809.163 1.62.432 2.393.792 2.32 1.062 4.642 3.671 4.606 7.143v5.65c0 3.778 1.367 7.305 3.958 10.237l-4.768.792zM15.16 70.89c-1.584 0-3.077-.79-4.031-2.069 1.403.144 2.717.217 4.013.217 1.313 0 2.627-.073 4.029-.217-.934 1.278-2.428 2.07-4.011 2.07zm-1.998-30.082a1.89 1.89 0 0 1 3.779 0v.107a11.946 11.946 0 0 0-3.76.037v-.144h-.02zm12.56 15.041v-5.63c.017-4.302-2.861-7.145-5.344-8.278a12.23 12.23 0 0 0-2.195-.756v-.36a3.134 3.134 0 0 0-3.131-3.13 3.134 3.134 0 0 0-3.131 3.13v.414a11.89 11.89 0 0 0-1.98.72c-2.751 1.26-5.523 4.318-5.54 8.276v5.65c0 4.012-1.422 7.45-4.21 10.22a.63.63 0 0 0-.162.628.627.627 0 0 0 .485.434L6.47 68.19c1.115.2 2.122.343 3.095.486 1.097 2.141 3.238 3.527 5.595 3.527 2.338 0 4.497-1.386 5.595-3.527.972-.125 1.98-.287 3.077-.467l5.955-1.025a.602.602 0 0 0 .486-.433.597.597 0 0 0-.161-.63c-2.915-2.969-4.39-6.404-4.39-10.273z"/>
        <path fill="#008AE3" d="M19.064 44.782c-2.43-1.115-5.398-1.115-7.81 0-1.367.631-3.704 2.483-3.722 5.435 0 .34.269.628.63.628a.625.625 0 0 0 .628-.628c.019-2.303 1.89-3.78 3.005-4.3 2.087-.972 4.66-.954 6.764 0 .325.143.685 0 .828-.307a.62.62 0 0 0-.323-.828"/>
    </g>
</svg>
