<svg xmlns="http://www.w3.org/2000/svg" xmlns:xlink="http://www.w3.org/1999/xlink" width="80" height="71" viewBox="0 0 80 71">
    <defs>
        <path id="a" d="M.348.384h34.237v34.32H.348z"/>
    </defs>
    <g fill="none" fill-rule="evenodd">
        <path fill="#888" d="M4.704 19.151h33.369v-1.375H4.704zM4.704 14.005h3.752v-2.36H4.704zM10.112 14.005h3.754v-2.36h-3.754zM4.704 24.366h17.777V22.92H4.704zM34.708 56.977h33.368v-1.373H34.708zM34.708 62.173h17.776V60.73H34.708zM10.343 29.317h9.389V27.43h-9.389zM4.704 29.317H6.59V27.43H4.704z"/>
        <path fill="#008AE3" d="M70.049 71.001h-38.97v-.705h38.97a7.91 7.91 0 0 0 7.91-7.91v-19.68h.707v19.68c0 4.756-3.86 8.615-8.617 8.615M.705 45.086H0V8.615C0 3.874 3.858 0 8.615 0h61.453a8.615 8.615 0 0 1 8.615 8.613h-.706a7.91 7.91 0 0 0-7.909-7.91H8.615c-4.369 0-7.91 3.56-7.91 7.91v36.472z"/>
        <g transform="translate(45 8.002)">
            <mask id="b" fill="#fff">
                <use xlink:href="#a"/>
            </mask>
            <path fill="#008AE6" d="M33.524 19.042c-.089.088-.21.124-.44.141-.494 0-.988.035-1.463.053l-1.69.053c-.319 0-.425.088-.477.422-.283 1.534-.792 2.925-1.534 4.105-.193.318-.175.494.106.741.405.352.794.722 1.163 1.074.353.317.705.652 1.06.987.173.159.262.281.262.423 0 .14-.07.282-.228.44-.81.828-1.516 1.585-2.168 2.29-.142.142-.247.212-.353.212-.106 0-.212-.052-.352-.194l-.898-.846a45.831 45.831 0 0 1-1.358-1.285c-.158-.159-.298-.23-.423-.23-.105 0-.228.053-.369.158-1.128.829-2.43 1.41-3.998 1.798-.337.088-.37.212-.354.511l.053 1.427c.017.529.017 1.074.053 1.604.016.263-.017.439-.122.545-.106.106-.266.159-.512.159h-.21c-1.075 0-2.027.036-2.892.089h-.088c-.386 0-.42-.23-.439-.512-.017-.423-.017-.863-.035-1.287a60.91 60.91 0 0 1-.036-1.814c0-.387-.123-.546-.476-.599a11.344 11.344 0 0 1-4.158-1.568.522.522 0 0 0-.246-.088c-.123 0-.21.088-.334.212-.283.299-.564.598-.828.88-.424.441-.863.917-1.287 1.374-.158.195-.299.283-.44.283-.14 0-.264-.071-.44-.247a66.78 66.78 0 0 0-2.22-2.08c-.177-.158-.248-.281-.265-.422 0-.141.071-.265.248-.44a47.43 47.43 0 0 0 1.25-1.322c.281-.299.581-.616.863-.933.194-.212.264-.37.07-.635-.88-1.25-1.48-2.537-1.78-3.876-.087-.422-.264-.563-.634-.563h-.158c-.58.052-1.163.052-1.744.07-.423.018-.864.018-1.286.036h-.072c-.28 0-.385-.106-.385-.441-.019-1.163-.037-2.203-.124-3.277-.019-.194.017-.335.105-.423.106-.106.246-.123.476-.141.475-.018.951-.018 1.41-.035a52.005 52.005 0 0 1 1.69-.036c.353 0 .477-.105.53-.458.263-1.515.775-2.889 1.533-4.105.211-.334.122-.493-.124-.722-.407-.352-.792-.722-1.18-1.075a47.915 47.915 0 0 1-1.057-.986c-.14-.123-.265-.264-.265-.423 0-.123.071-.247.23-.405.652-.635 1.321-1.374 2.077-2.202.177-.212.335-.3.477-.3.14 0 .281.088.458.264.422.441.881.864 1.32 1.269.282.246.564.511.83.775.158.158.264.212.37.212.105 0 .21-.054.352-.159a10.493 10.493 0 0 1 3.805-1.744c.474-.106.633-.317.6-.811-.037-.564-.053-1.145-.072-1.709-.018-.405-.018-.845-.054-1.251-.016-.193.02-.317.09-.405.07-.07.194-.106.37-.106 1.038-.017 2.114-.053 3.223-.105h.072c.403 0 .492.229.51.563l.052 1.604.054 1.498c0 .352.122.475.457.528 1.447.247 2.82.758 4.107 1.533.033.017.053.035.086.052.09.053.16.106.248.106a.347.347 0 0 0 .124-.035 1.04 1.04 0 0 0 .14-.159c.052-.053.105-.105.158-.176.193-.211.388-.405.583-.616.492-.529 1.002-1.058 1.48-1.603.122-.142.228-.23.351-.23.106 0 .213.053.335.176a79.378 79.378 0 0 0 2.396 2.238c.142.123.211.247.211.352 0 .159-.105.282-.21.405l-.9.952a86.83 86.83 0 0 1-1.269 1.339c-.21.229-.228.387-.053.652a10.726 10.726 0 0 1 1.798 3.929c.106.493.318.528.723.51.528-.035 1.075-.052 1.604-.069.474-.019.95-.036 1.425-.053.318-.018.512.017.512.44 0 1.11.053 2.238.105 3.277.017.229-.018.352-.105.44m.985-3.858c-.035-.863-.457-1.269-1.285-1.269h-.105c-.283.018-.547.018-.828.036-.546.017-1.094.034-1.658.07h-.087c-.298 0-.458-.123-.563-.476-.283-.933-.635-1.92-1.232-2.748-.248-.335-.23-.547.052-.828a44.512 44.512 0 0 0 1.814-1.938c.474-.546.458-1.128-.036-1.604a104.011 104.011 0 0 0-2.854-2.66c-.282-.246-.546-.37-.81-.37-.283 0-.58.142-.864.458-.598.617-1.179 1.216-1.726 1.85-.158.177-.317.265-.476.265a.694.694 0 0 1-.369-.124 10.385 10.385 0 0 0-2.819-1.057c-.424-.088-.51-.3-.51-.669-.02-.969-.037-1.78-.073-2.537-.034-.775-.439-1.199-1.16-1.199h-.053c-1.287.035-2.556.089-3.772.142-.88.053-1.25.457-1.217 1.356.02.846.053 1.657.09 2.467.016.299-.037.493-.317.599-1.444.317-2.96 1.18-3.065 1.251-.318.158-.565 0-.829-.195a3.42 3.42 0 0 1-.44-.369l-.529-.493c-.07-.088-.142-.159-.21-.23a6.213 6.213 0 0 0-.513-.458s-.053-.053-.069-.053c-.055-.035-.089-.07-.142-.105-.299-.212-.846-.476-1.162-.159-.3.282-.58.599-.864.899l-.247.246c-.193.212-.405.423-.598.635-.389.405-.759.81-1.146 1.233-.65.704-.634 1.268.052 1.92.124.106.23.23.353.335.441.423.9.864 1.357 1.268.281.247.406.476.176.882a10.093 10.093 0 0 0-1.039 2.836c-.089.422-.3.494-.67.494-.827 0-1.709.034-2.59.07-.67.035-1.128.475-1.128 1.092.036 1.48.072 2.784.142 4.017.035.722.441 1.092 1.18 1.092h.036c.828-.017 1.672-.052 2.536-.088h.106c.352 0 .51.123.615.511.32 1.092.725 2.009 1.27 2.801.211.318.142.476-.089.723a66.926 66.926 0 0 0-1.814 1.956c-.493.564-.474 1.144.036 1.655.934.898 1.867 1.78 2.801 2.626.282.264.563.388.83.388.298 0 .596-.159.914-.495.67-.704 1.234-1.286 1.727-1.849.158-.176.282-.246.441-.246a.79.79 0 0 1 .352.105c.74.387 1.726.863 2.82 1.057.474.089.563.317.563.74v.511c0 .441.017.898.033 1.357v.176c.02.299.02.599.09.881.07.405.175.705.58.705v.034-.034c1.252 0 2.414-.036 3.525-.071.37-.018.721-.035 1.038-.053.6-.035.988-.493.988-1.146-.019-.88-.053-1.778-.089-2.66-.017-.281 0-.528.37-.651 1.04-.334 2.044-.67 2.907-1.321a.484.484 0 0 1 .317-.124c.141 0 .264.07.423.229.53.511 1.093 1.04 1.851 1.727.318.298.616.44.898.44.3 0 .6-.158.933-.511.742-.774 1.517-1.603 2.45-2.625.617-.67.6-1.251-.07-1.885l-.072-.071c-.58-.546-1.18-1.11-1.778-1.656-.213-.193-.299-.352-.124-.669a9.99 9.99 0 0 0 1.111-2.942c.088-.423.333-.511.668-.529l1.886-.053.528-.017c.934-.036 1.321-.441 1.304-1.357.017-1.022-.019-2.184-.072-3.541" mask="url(#b)"/>
        </g>
        <path fill="#008AE6" d="M62.492 21.617a4.016 4.016 0 0 0-4.018 4.017 4.016 4.016 0 0 0 4.018 4.017 4.015 4.015 0 0 0 4.016-4.017 4.026 4.026 0 0 0-4.016-4.017m0 9.355a5.345 5.345 0 0 1-5.338-5.338 5.345 5.345 0 0 1 5.338-5.338 5.346 5.346 0 0 1 5.338 5.338c-.018 2.942-2.413 5.338-5.338 5.338M13.055 37.985c-3.964 0-4.773 2.783-4.773 6.94 0 3.825 2.149 6.943 4.773 6.943 2.644 0 4.775-3.118 4.775-6.942 0-4.158-.81-6.941-4.775-6.941m0 15.046c-3.276 0-5.937-3.63-5.937-8.105 0-4 .705-8.104 5.937-8.104s5.937 4.088 5.937 8.104c0 4.475-2.66 8.105-5.937 8.105M1.233 66.192c.388.527 2.802 3.276 11.84 3.276 9.002 0 11.434-2.713 11.84-3.276l.017-.425v-.016c-.018-.142-.018-.317-.018-.512-.123-7.24-.934-9.303-8.017-10.642-.493.459-1.709 1.323-3.805 1.323s-3.312-.881-3.788-1.323c-7.064 1.323-7.892 3.33-8.016 10.396 0 .212 0 .388-.017.547v.016l-.036.636zm11.821 4.438c-10.816 0-12.843-3.84-12.93-4l-.054-.122v-.933h.265l-.265-.02c0-.033 0-.192.018-.544C.23 57.33 1.462 54.88 9.355 53.454l.334-.053.212.264c.035.035.97 1.163 3.137 1.163s3.1-1.111 3.153-1.163l.211-.264.335.053c7.981 1.444 9.143 3.804 9.267 11.803 0 .335.018.476.018.51l-.493.036h.493v.742l-.054.122c-.069.123-2.095 3.963-12.914 3.963z"/>
        <path fill="#888" d="M33.192 51.973A2.038 2.038 0 0 0 31.166 54v9.78c0 1.108.917 2.024 2.026 2.024H69.59a2.038 2.038 0 0 0 2.028-2.025V54c0-1.11-.917-2.026-2.028-2.026H33.192zM69.59 65.98H33.192a2.203 2.203 0 0 1-2.202-2.202V54c0-1.215.986-2.2 2.202-2.2H69.59c1.216 0 2.203.985 2.203 2.2v9.78a2.204 2.204 0 0 1-2.203 2.201z"/>
    </g>
</svg>
