<svg xmlns="http://www.w3.org/2000/svg" xmlns:xlink="http://www.w3.org/1999/xlink" width="79" height="71" viewBox="0 0 79 71">
    <defs>
        <path id="a" d="M0 .643h77.969v44.675H0z"/>
        <path id="c" d="M.937.953h33.926v34.01H.937z"/>
    </defs>
    <g fill="none" fill-rule="evenodd">
        <path fill="#888" d="M4.661 18.977h33.066v-1.362H4.661zM4.661 13.879H8.38v-2.34H4.661zM10.021 13.879h3.719v-2.34h-3.719zM4.661 24.145h17.615v-1.432H4.661zM34.393 56.459h33.066v-1.361H34.393zM34.393 61.61h17.616v-1.432H34.393zM10.248 29.05h9.305v-1.867h-9.305zM4.661 29.05h1.868v-1.867H4.661z"/>
        <path fill="#008AE3" d="M69.414 70.357H30.796v-.698h38.618c4.33 0 7.84-3.51 7.84-7.84v-19.5h.697v19.5c0 4.715-3.84 8.538-8.537 8.538"/>
        <g transform="translate(0 -.643)">
            <mask id="b" fill="#fff">
                <use xlink:href="#a"/>
            </mask>
            <path fill="#008AE3" d="M.699 45.318h-.7V9.18A8.539 8.539 0 0 1 8.538.643H69.43a8.539 8.539 0 0 1 8.538 8.537h-.7a7.838 7.838 0 0 0-7.838-7.839H8.537c-4.33 0-7.838 3.527-7.838 7.84v36.137z" mask="url(#b)"/>
        </g>
        <g transform="translate(44 7.357)">
            <mask id="d" fill="#fff">
                <use xlink:href="#c"/>
            </mask>
            <path fill="#008AE6" d="M33.811 19.441c-.087.087-.209.123-.436.14-.489 0-.978.035-1.449.052l-1.676.052c-.314 0-.419.088-.472.42-.279 1.518-.785 2.898-1.518 4.067-.192.315-.175.49.104.733.402.35.786.716 1.153 1.065.349.314.698.647 1.047.98.175.156.262.278.262.417 0 .14-.07.28-.227.437-.803.82-1.501 1.571-2.147 2.27-.14.138-.245.21-.349.21-.105 0-.21-.053-.35-.194l-.89-.837a45.003 45.003 0 0 1-1.344-1.274c-.157-.158-.297-.228-.419-.228-.105 0-.227.053-.367.157-1.117.822-2.409 1.397-3.963 1.781-.332.087-.366.21-.349.506l.052 1.415c.018.522.018 1.064.052 1.59.018.261-.017.434-.121.54-.105.104-.262.157-.507.157h-.209a45.95 45.95 0 0 0-2.863.087h-.088c-.384 0-.419-.228-.436-.507-.018-.419-.018-.855-.035-1.273-.017-.594-.035-1.205-.035-1.799 0-.384-.122-.54-.471-.594a11.204 11.204 0 0 1-4.12-1.554.539.539 0 0 0-.245-.087c-.123 0-.209.087-.332.21-.279.297-.559.593-.82.873-.419.436-.856.907-1.275 1.362-.157.191-.297.28-.436.28-.14 0-.262-.07-.437-.246a65.671 65.671 0 0 0-2.2-2.06c-.174-.157-.244-.279-.261-.419 0-.14.07-.262.244-.436.419-.419.838-.873 1.24-1.31.279-.296.576-.61.855-.925.192-.209.262-.367.07-.628-.873-1.24-1.466-2.514-1.763-3.84-.088-.42-.262-.56-.629-.56h-.157c-.576.053-1.152.053-1.728.07-.419.017-.856.017-1.275.035h-.07c-.279 0-.383-.105-.383-.436-.019-1.153-.036-2.183-.123-3.248-.017-.192.018-.332.104-.419.105-.105.245-.122.472-.139.472-.018.943-.018 1.397-.035a50.988 50.988 0 0 1 1.676-.035c.35 0 .471-.105.524-.454.261-1.502.768-2.864 1.518-4.068.21-.332.123-.489-.122-.716-.402-.349-.785-.715-1.17-1.065a51.943 51.943 0 0 1-1.047-.977c-.14-.123-.262-.262-.262-.419 0-.123.07-.245.227-.402.646-.628 1.309-1.362 2.06-2.182.175-.21.332-.297.472-.297.139 0 .279.087.454.262.419.436.873.855 1.309 1.257.28.244.558.506.82.768.157.157.262.21.367.21.105 0 .209-.053.349-.157a10.423 10.423 0 0 1 3.771-1.729c.472-.104.628-.314.594-.803a53.037 53.037 0 0 1-.07-1.694c-.017-.4-.017-.837-.052-1.239-.018-.192.017-.314.087-.402.069-.069.192-.104.367-.104 1.03-.018 2.095-.052 3.195-.105h.069c.402 0 .489.227.507.558l.052 1.59.053 1.483c0 .35.121.472.453.524 1.431.244 2.793.751 4.068 1.52.035.017.052.034.087.051.088.053.157.105.245.105a.318.318 0 0 0 .122-.035c.052-.052.105-.104.139-.157.053-.052.105-.104.158-.175.192-.209.383-.4.576-.61.489-.524.995-1.048 1.467-1.589.121-.14.226-.227.348-.227.105 0 .21.052.332.174a79.11 79.11 0 0 0 2.374 2.218c.14.122.21.244.21.35 0 .155-.105.278-.21.4l-.89.943c-.402.436-.838.89-1.257 1.327-.21.227-.227.384-.052.646a10.625 10.625 0 0 1 1.78 3.893c.105.49.314.524.716.506.524-.035 1.065-.052 1.589-.07l1.414-.052c.314-.018.506.017.506.436 0 1.101.053 2.218.105 3.248.018.227-.018.35-.105.436m.978-3.823c-.035-.855-.454-1.257-1.274-1.257h-.105c-.28.018-.541.018-.821.035-.541.017-1.082.035-1.641.07h-.087c-.297 0-.454-.123-.559-.472-.279-.925-.628-1.903-1.222-2.723-.244-.332-.227-.54.052-.82a43.772 43.772 0 0 0 1.799-1.92c.471-.543.454-1.119-.035-1.59a102.373 102.373 0 0 0-2.828-2.636c-.28-.244-.542-.367-.803-.367-.28 0-.577.14-.856.454a41.637 41.637 0 0 0-1.711 1.833c-.157.174-.314.262-.471.262a.701.701 0 0 1-.367-.122c-.838-.47-1.78-.82-2.793-1.048-.419-.086-.506-.296-.506-.663a96.296 96.296 0 0 0-.07-2.514c-.035-.768-.437-1.187-1.153-1.187h-.052c-1.274.035-2.532.088-3.736.14-.873.052-1.239.453-1.205 1.344.018.837.052 1.641.088 2.444.017.297-.036.49-.315.593-1.431.315-2.932 1.17-3.037 1.24-.314.158-.559 0-.821-.192a3.382 3.382 0 0 1-.436-.367L9.3 5.667c-.07-.088-.14-.157-.209-.227a6.262 6.262 0 0 0-.507-.454s-.052-.052-.069-.052c-.053-.036-.088-.07-.141-.105-.296-.21-.837-.47-1.152-.158-.296.28-.576.594-.855.891l-.244.244c-.192.21-.402.42-.594.63-.384.4-.751.802-1.135 1.221-.645.7-.628 1.257.053 1.903.122.105.226.227.349.332.436.42.89.855 1.344 1.257.279.244.401.471.174.873a9.992 9.992 0 0 0-1.029 2.81c-.088.42-.297.49-.664.49-.821 0-1.693.034-2.566.07-.664.034-1.118.47-1.118 1.081.035 1.467.07 2.76.14 3.981.035.716.437 1.082 1.17 1.082h.035c.821-.017 1.658-.052 2.514-.087h.105c.348 0 .506.122.611.506.314 1.083.716 1.991 1.257 2.777.209.313.139.471-.087.715a62.294 62.294 0 0 0-1.799 1.938c-.489.558-.471 1.135.035 1.64a122.48 122.48 0 0 0 2.776 2.602c.279.262.558.384.821.384.296 0 .593-.157.907-.489.663-.697 1.222-1.274 1.711-1.833.157-.174.279-.245.437-.245.104 0 .209.036.349.105.733.384 1.71.856 2.793 1.047.472.088.558.315.558.735v.506c0 .436.018.89.036 1.344v.175c.017.296.017.593.087.873.069.4.174.697.576.697v.036-.036c1.239 0 2.392-.034 3.491-.069.368-.018.716-.035 1.031-.053.593-.034.978-.489.978-1.134a136.58 136.58 0 0 0-.088-2.637c-.017-.279 0-.523.367-.645 1.029-.332 2.025-.665 2.88-1.31a.481.481 0 0 1 .314-.122c.14 0 .263.07.42.227a77.287 77.287 0 0 0 1.833 1.711c.314.296.611.437.89.437.297 0 .594-.158.925-.506.734-.769 1.502-1.59 2.427-2.603.611-.663.594-1.239-.07-1.867l-.07-.07c-.576-.54-1.169-1.1-1.763-1.64-.21-.193-.297-.35-.122-.664a9.838 9.838 0 0 0 1.1-2.916c.087-.419.332-.507.663-.524l1.868-.052.524-.018c.925-.034 1.309-.436 1.292-1.344.017-1.013-.018-2.165-.07-3.509" mask="url(#d)"/>
        </g>
        <path fill="#008AE6" d="M61.924 21.421c-2.2 0-3.98 1.781-3.98 3.98 0 2.2 1.78 3.981 3.98 3.981s3.98-1.78 3.98-3.98a3.99 3.99 0 0 0-3.98-3.98m0 9.27a5.298 5.298 0 0 1-5.29-5.29 5.298 5.298 0 0 1 5.29-5.29 5.298 5.298 0 0 1 5.29 5.29c-.018 2.915-2.392 5.29-5.29 5.29"/>
        <path fill="#888" d="M32.891 51.502c-1.1 0-2.007.907-2.007 2.007v9.69c0 1.1.907 2.007 2.007 2.007h36.07a2.02 2.02 0 0 0 2.007-2.008V53.51c0-1.1-.908-2.007-2.008-2.007H32.891zm36.07 13.88H32.89a2.184 2.184 0 0 1-2.182-2.184V53.51c0-1.205.977-2.182 2.182-2.182h36.07c1.203 0 2.181.977 2.181 2.182v9.69a2.184 2.184 0 0 1-2.182 2.182z"/>
        <path fill="#008AE6" d="M14.927 49.022c1.729.105 3.876-1.36 3.893-3.91.018-2.147-1.781-3.876-3.928-3.876-2.182 0-3.876 1.712-3.876 3.893-.034 2.218 1.659 3.893 3.91 3.893m-.051.944a4.825 4.825 0 0 1-4.836-4.837 4.836 4.836 0 0 1 4.836-4.836c2.67 0 4.818 2.166 4.818 4.854.018 2.672-2.13 4.819-4.818 4.819"/>
        <path fill="#008AE6" d="M23.324 51.205c-1.554 3.073-3.003 6.198-4.487 9.288-1.135 2.358-2.252 4.697-3.404 7.035-.035.088-.052.21-.244.245-.228-.42-.472-.873-.717-1.31-2.688-5.132-5.41-10.265-8.1-15.415-3.055-5.83.157-12.692 6.6-14.09 5.15-1.133 10.474 2.463 11.417 7.684.401 2.322 0 4.468-1.065 6.563m2.147-5.551c-.034-.367-.087-.646-.105-.803-.017-.053-.017-.105-.034-.158a8.744 8.744 0 0 0-.14-.645 10.391 10.391 0 0 0-2.67-4.906h.016c-.785-.89-1.867-1.59-2.53-1.973l-.158-.105a5.434 5.434 0 0 0-.419-.21c-.035-.016-.052-.034-.052-.034-.088-.035-.175-.088-.28-.123-.017 0-.017-.016-.017-.016-.978-.402-2.375-.787-4.173-.787a12.21 12.21 0 0 0-3.387.507c-3.928 1.362-6.285 4.172-7.123 8.415 0 0-.279 1.623.088 3.578 0 .018 0 .036.017.053.017.035.017.088.035.122.017.07.035.14.053.193.21.907.523 1.798.96 2.635 2.828 5.377 5.673 10.754 8.501 16.13.402.752.804 1.52 1.24 2.34.105-.173.175-.278.244-.4 2.218-4.61 4.453-9.22 6.67-13.827.523-1.1 1.065-2.2 1.59-3.283.47-.89.871-1.78 1.203-2.722.506-1.467.506-2.252.506-2.252.035-.613 0-1.24-.035-1.73"/>
        <path fill="#008AE6" d="M14.91 40.852a4.265 4.265 0 0 0-4.26 4.26 4.266 4.266 0 0 0 4.26 4.26c2.34 0 4.26-1.92 4.26-4.26s-1.92-4.26-4.26-4.26m0 8.712a4.44 4.44 0 0 1-4.435-4.435 4.44 4.44 0 0 1 4.434-4.434 4.442 4.442 0 0 1 4.435 4.434 4.441 4.441 0 0 1-4.435 4.435"/>
    </g>
</svg>
