<svg xmlns="http://www.w3.org/2000/svg" width="79" height="71" viewBox="0 0 79 71">
    <g fill="none" fill-rule="evenodd">
        <path fill="#888" d="M4.661 18.977h33.066v-1.362H4.661zM4.661 13.88H8.38v-2.34H4.661zM10.021 13.88h3.719v-2.34h-3.719zM4.661 24.145h17.616v-1.432H4.661zM34.393 56.46H67.46v-1.361H34.393zM34.393 61.61h17.616V60.18H34.393zM10.248 29.05h9.305v-1.867h-9.305zM4.661 29.05h1.868v-1.867H4.661z"/>
        <path fill="#008AE3" d="M69.415 70.358H30.797v-.698h38.618c4.33 0 7.839-3.51 7.839-7.84v-19.5h.698v19.5c0 4.697-3.824 8.538-8.537 8.538M.698 44.676H0V8.537A8.538 8.538 0 0 1 8.537 0h60.895a8.538 8.538 0 0 1 8.537 8.537h-.698A7.838 7.838 0 0 0 69.432.698H8.537C4.224.698.698 4.208.698 8.538v36.138z"/>
        <path fill="#008AE6" d="M77.813 26.798c-.088.088-.21.123-.438.14-.487 0-.978.035-1.448.053l-1.677.052c-.314 0-.418.087-.47.42-.28 1.518-.787 2.897-1.52 4.067-.192.314-.175.488.105.733.403.35.785.716 1.153 1.065.349.314.698.646 1.047.978.175.157.263.28.263.418 0 .14-.07.28-.228.437-.802.821-1.501 1.572-2.147 2.27-.14.14-.245.21-.35.21-.103 0-.209-.053-.349-.193l-.89-.838a45.023 45.023 0 0 1-1.345-1.274c-.157-.158-.297-.227-.419-.227-.104 0-.226.052-.365.157-1.118.82-2.41 1.397-3.965 1.781-.33.087-.365.21-.349.506l.053 1.414c.017.523.017 1.064.052 1.59.017.261-.016.435-.121.541-.106.103-.263.156-.507.156h-.21a45.92 45.92 0 0 0-2.863.088h-.087c-.383 0-.419-.228-.437-.507-.017-.419-.017-.855-.035-1.274-.017-.594-.035-1.205-.035-1.799 0-.384-.122-.54-.47-.593a11.24 11.24 0 0 1-4.12-1.554.516.516 0 0 0-.245-.087c-.123 0-.21.087-.333.21-.279.295-.558.593-.82.872-.419.437-.855.908-1.275 1.362-.156.192-.296.28-.436.28-.138 0-.261-.07-.435-.245a68.787 68.787 0 0 0-2.2-2.06c-.175-.158-.245-.279-.262-.419 0-.14.07-.262.244-.437.419-.419.838-.872 1.24-1.309.279-.297.575-.61.855-.926.193-.208.262-.366.07-.628-.873-1.239-1.466-2.514-1.763-3.84-.087-.42-.262-.559-.63-.559h-.157c-.575.052-1.151.052-1.727.07-.42.017-.856.017-1.276.034h-.069c-.28 0-.383-.104-.383-.436-.019-1.152-.037-2.182-.123-3.247-.017-.193.018-.332.105-.419.105-.105.243-.122.47-.14.473-.018.944-.018 1.398-.035a50.988 50.988 0 0 1 1.675-.035c.35 0 .471-.105.525-.454.261-1.5.767-2.863 1.519-4.068.209-.33.122-.489-.122-.716-.402-.349-.786-.715-1.17-1.064-.35-.315-.7-.646-1.049-.978-.14-.123-.262-.262-.262-.419 0-.123.07-.245.227-.402.647-.628 1.31-1.362 2.06-2.182.175-.209.332-.297.472-.297.14 0 .28.088.454.262.42.436.873.855 1.31 1.257.28.244.559.507.82.768.157.157.261.21.367.21.104 0 .21-.053.348-.157a10.423 10.423 0 0 1 3.771-1.729c.472-.104.63-.314.594-.803-.034-.559-.051-1.135-.07-1.694-.016-.4-.016-.837-.051-1.239-.018-.192.017-.314.087-.4.07-.072.192-.106.367-.106 1.03-.017 2.094-.052 3.194-.105h.07c.401 0 .489.227.507.558l.052 1.59.052 1.484c0 .35.122.471.453.523a11.63 11.63 0 0 1 4.069 1.52c.034.016.052.034.088.051.087.053.157.105.244.105a.313.313 0 0 0 .122-.035c.053-.053.105-.105.14-.157.052-.052.105-.104.157-.174.191-.21.383-.402.575-.612.49-.523.996-1.047 1.468-1.588.121-.14.227-.227.349-.227.105 0 .209.052.33.174a80.439 80.439 0 0 0 2.376 2.218c.14.122.21.244.21.35 0 .156-.105.278-.21.4l-.89.943c-.403.437-.84.891-1.258 1.327-.21.227-.227.384-.052.646a10.627 10.627 0 0 1 1.78 3.893c.105.49.314.524.716.506a49.652 49.652 0 0 1 1.59-.069l1.413-.053c.315-.017.507.018.507.437 0 1.1.052 2.217.105 3.247.016.227-.019.35-.106.436m.978-3.823c-.035-.855-.454-1.257-1.275-1.257h-.105c-.278.018-.54.018-.82.035-.54.017-1.083.035-1.64.07h-.088c-.296 0-.453-.122-.558-.472-.28-.925-.63-1.903-1.222-2.723-.245-.332-.227-.54.052-.82a43.69 43.69 0 0 0 1.797-1.92c.472-.543.454-1.118-.034-1.59a102.373 102.373 0 0 0-2.829-2.636c-.278-.245-.54-.367-.802-.367-.28 0-.577.14-.856.454a41.1 41.1 0 0 0-1.71 1.834c-.159.174-.316.261-.472.261a.695.695 0 0 1-.367-.122 10.28 10.28 0 0 0-2.794-1.047c-.418-.088-.505-.297-.505-.664a92.076 92.076 0 0 0-.07-2.514c-.035-.768-.437-1.187-1.154-1.187h-.05c-1.275.035-2.532.087-3.737.14-.873.052-1.24.453-1.205 1.344.018.837.053 1.641.088 2.444.017.297-.035.49-.314.594-1.432.314-2.933 1.17-3.038 1.24-.315.157-.56 0-.822-.193a3.447 3.447 0 0 1-.435-.366l-.525-.489a2.756 2.756 0 0 0-.208-.227 6.262 6.262 0 0 0-.508-.454s-.052-.053-.069-.053c-.053-.034-.087-.069-.14-.104-.297-.21-.837-.472-1.151-.157-.297.28-.577.593-.856.89l-.245.245c-.191.21-.401.42-.593.628-.385.402-.752.803-1.135 1.222-.646.698-.629 1.257.052 1.903.122.105.226.227.35.332.436.42.89.855 1.344 1.257.28.244.401.471.175.873a9.975 9.975 0 0 0-1.03 2.81c-.089.42-.297.49-.663.49-.822 0-1.694.034-2.567.07-.664.034-1.117.47-1.117 1.082.033 1.466.069 2.758.139 3.98.034.716.436 1.083 1.17 1.083h.035c.82-.018 1.657-.053 2.514-.088h.104c.35 0 .506.122.611.507.315 1.082.716 1.99 1.258 2.775.208.314.138.472-.088.716a62.202 62.202 0 0 0-1.799 1.94c-.488.557-.47 1.133.035 1.64.925.89 1.852 1.763 2.776 2.601.28.261.558.384.822.384.297 0 .593-.157.907-.489.663-.698 1.222-1.275 1.71-1.833.157-.175.28-.245.438-.245.105 0 .209.035.349.104.733.385 1.71.856 2.792 1.048.472.087.56.315.56.734v.506c0 .436.017.89.035 1.344v.174c.017.297.017.594.087.874.07.401.175.698.575.698v.035-.035c1.24 0 2.392-.035 3.492-.07.367-.018.716-.034 1.03-.052.594-.035.978-.489.978-1.135-.017-.873-.052-1.763-.087-2.636-.017-.28 0-.524.367-.646 1.03-.332 2.025-.664 2.88-1.309a.481.481 0 0 1 .314-.123c.14 0 .263.07.42.227a77.02 77.02 0 0 0 1.832 1.711c.315.297.612.437.89.437.297 0 .595-.157.927-.506.733-.769 1.5-1.589 2.425-2.6.612-.665.594-1.242-.069-1.87l-.07-.07c-.576-.54-1.17-1.1-1.763-1.64-.21-.193-.296-.35-.123-.664a9.843 9.843 0 0 0 1.1-2.915c.088-.42.332-.507.665-.524l1.866-.053.524-.017c.927-.035 1.31-.437 1.294-1.345.016-1.012-.019-2.165-.07-3.509"/>
        <path fill="#008AE6" d="M61.925 21.421c-2.2 0-3.98 1.781-3.98 3.981s1.78 3.98 3.98 3.98 3.98-1.78 3.98-3.98a3.99 3.99 0 0 0-3.98-3.98m0 9.27a5.298 5.298 0 0 1-5.29-5.29 5.297 5.297 0 0 1 5.29-5.29 5.297 5.297 0 0 1 5.29 5.29c-.018 2.915-2.392 5.29-5.29 5.29"/>
        <path fill="#888" d="M32.892 51.502a2.02 2.02 0 0 0-2.008 2.008v9.69c0 1.1.908 2.007 2.008 2.007h36.07a2.019 2.019 0 0 0 2.007-2.008V53.51a2.02 2.02 0 0 0-2.007-2.008h-36.07zm36.07 13.88h-36.07A2.184 2.184 0 0 1 30.71 63.2V53.51c0-1.204.978-2.183 2.182-2.183h36.07c1.204 0 2.18.98 2.18 2.183v9.69a2.183 2.183 0 0 1-2.18 2.182z"/>
        <path fill="#008AE3" d="M8.1 38.723c-1.623.907-2.757 2.462-3.298 4.504-1.066 4.016.192 9.567 3.386 14.84 5.01 8.26 12.536 12.448 17.546 9.742l1.729-1.92a.735.735 0 0 0 .017-.89l-3.771-4.47a1.794 1.794 0 0 0-1.222-.54l-1.52.033c-1.815.961-4.591 1.468-8.17-4.45-1.728-2.865-2.357-5.047-1.92-6.688.33-1.24 1.204-1.886 1.973-2.322l.768-1.222c.21-.385.244-.856.105-1.258l-2.183-5.359c-.14-.314-.49-.488-.837-.437l-2.602.437zM22.435 69.31c-4.905 0-10.72-4.103-14.84-10.894-3.3-5.429-4.591-11.19-3.473-15.38.593-2.253 1.868-3.963 3.683-4.959l.052-.036 2.706-.47a1.467 1.467 0 0 1 1.607.855l2.2 5.412c.209.594.139 1.275-.158 1.833l-.017.018-.873 1.38-.087.051c-.7.384-1.432.908-1.711 1.921-.384 1.432.244 3.492 1.833 6.145 3.7 6.128 6.233 4.75 7.315 4.155l.07-.034 1.693-.035h.018a2.514 2.514 0 0 1 1.729.767l.017.02 3.788 4.485c.419.506.402 1.275-.017 1.782l-1.816 2.024-.052.035c-1.101.628-2.357.925-3.667.925z"/>
    </g>
</svg>
