<?xml version="1.0" encoding="utf-8"?>
<!-- Generator: Adobe Illustrator 22.0.0, SVG Export Plug-In . SVG Version: 6.00 Build 0)  -->
<svg version="1.1" id="Capa_1" xmlns="http://www.w3.org/2000/svg" xmlns:xlink="http://www.w3.org/1999/xlink" x="0px" y="0px"
	 viewBox="0 0 456.2 410.8" style="enable-background:new 0 0 456.2 410.8;" xml:space="preserve">
<style type="text/css">
	.st0{fill:#888888;}
	.st1{fill:#008AE3;}
	.st2{fill:none;stroke:#008AE3;stroke-width:4;stroke-miterlimit:10;}
	.st3{fill:#008AE6;}
	.st4{fill:none;stroke:#888888;stroke-miterlimit:10;}
	.st5{fill:none;stroke:#008AE6;stroke-miterlimit:10;}
</style>
<g>
	<g>
		<g>
			<g>
				<rect x="30.8" y="106.6" class="st0" width="189.4" height="7.8"/>
			</g>
		</g>
		<g>
			<g>
				<rect x="30.8" y="71.8" class="st0" width="21.3" height="13.4"/>
			</g>
		</g>
		<g>
			<g>
				<rect x="61.5" y="71.8" class="st0" width="21.3" height="13.4"/>
			</g>
		</g>
		<g>
			<g>
				<rect x="30.8" y="135.8" class="st0" width="100.9" height="8.2"/>
			</g>
		</g>
		<g>
			<g>
				<rect x="201.1" y="321.3" class="st0" width="189.4" height="7.8"/>
			</g>
		</g>
		<g>
			<g>
				<rect x="201.1" y="350.4" class="st0" width="100.9" height="8.2"/>
			</g>
		</g>
		<g>
			<g>
				<rect x="62.8" y="161.4" class="st0" width="53.3" height="10.7"/>
			</g>
		</g>
		<g>
			<g>
				<rect x="30.8" y="161.4" class="st0" width="10.7" height="10.7"/>
			</g>
		</g>
		<path class="st1" d="M401.7,408.7H180.5v-4h221.2c24.8,0,44.9-20.1,44.9-44.9V248.1h4v111.7C450.6,386.8,428.7,408.7,401.7,408.7z
			"/>
		<path class="st1" d="M8.1,261.6h-4v-207C4.1,27.7,26,5.7,53,5.7h348.8c27,0,48.9,21.9,48.9,48.9h-4c0-24.8-20.1-44.9-44.9-44.9H53
			C28.2,9.7,8.1,29.9,8.1,54.6V261.6z"/>
		<g>
			<path class="st3" d="M455.4,137.3c-0.2-4.9-2.6-7.2-7.3-7.2c-0.2,0-0.4,0-0.6,0c-1.6,0.1-3.1,0.1-4.7,0.2
				c-3.1,0.1-6.2,0.2-9.4,0.4c-0.2,0-0.3,0-0.5,0c-1.7,0-2.6-0.7-3.2-2.7c-1.6-5.3-3.6-10.9-7-15.6c-1.4-1.9-1.3-3.1,0.3-4.7
				c3.8-3.8,7.1-7.4,10.3-11c2.7-3.1,2.6-6.4-0.2-9.1c-6.1-5.9-11.3-10.7-16.2-15.1c-1.6-1.4-3.1-2.1-4.6-2.1
				c-1.6,0-3.3,0.8-4.9,2.6c-3.4,3.5-6.7,6.9-9.8,10.5c-0.9,1-1.8,1.5-2.7,1.5c-0.6,0-1.3-0.2-2.1-0.7c-4.8-2.7-10.2-4.7-16-6
				c-2.4-0.5-2.9-1.7-2.9-3.8c-0.1-5.5-0.2-10.1-0.4-14.4c-0.2-4.4-2.5-6.8-6.6-6.8c-0.1,0-0.2,0-0.3,0c-7.3,0.2-14.5,0.5-21.4,0.8
				c-5,0.3-7.1,2.6-6.9,7.7c0.1,4.8,0.3,9.4,0.5,14c0.1,1.7-0.2,2.8-1.8,3.4c-8.2,1.8-16.8,6.7-17.4,7.1c-1.8,0.9-3.2,0-4.7-1.1
				c-0.7-0.5-1.6-1.2-2.5-2.1l-3-2.8c-0.4-0.5-0.8-0.9-1.2-1.3c-0.9-0.9-1.9-1.8-2.9-2.6c0,0-0.3-0.3-0.4-0.3
				c-0.3-0.2-0.5-0.4-0.8-0.6c-1.7-1.2-4.8-2.7-6.6-0.9c-1.7,1.6-3.3,3.4-4.9,5.1c-0.5,0.5-1,1-1.4,1.4c-1.1,1.2-2.3,2.4-3.4,3.6
				c-2.2,2.3-4.3,4.6-6.5,7c-3.7,4-3.6,7.2,0.3,10.9c0.7,0.6,1.3,1.3,2,1.9c2.5,2.4,5.1,4.9,7.7,7.2c1.6,1.4,2.3,2.7,1,5
				c-2.7,4.9-4.7,10.3-5.9,16.1c-0.5,2.4-1.7,2.8-3.8,2.8c-4.7,0-9.7,0.2-14.7,0.4c-3.8,0.2-6.4,2.7-6.4,6.2
				c0.2,8.4,0.4,15.8,0.8,22.8c0.2,4.1,2.5,6.2,6.7,6.2h0.2c4.7-0.1,9.5-0.3,14.4-0.5c0.2,0,0.4,0,0.6,0c2,0,2.9,0.7,3.5,2.9
				c1.8,6.2,4.1,11.4,7.2,15.9c1.2,1.8,0.8,2.7-0.5,4.1c-4.2,4.4-7.4,7.8-10.3,11.1c-2.8,3.2-2.7,6.5,0.2,9.4
				c5.3,5.1,10.6,10.1,15.9,14.9c1.6,1.5,3.2,2.2,4.7,2.2c1.7,0,3.4-0.9,5.2-2.8c3.8-4,7-7.3,9.8-10.5c0.9-1,1.6-1.4,2.5-1.4
				c0.6,0,1.2,0.2,2,0.6c4.2,2.2,9.8,4.9,16,6c2.7,0.5,3.2,1.8,3.2,4.2c0,1,0,2,0,2.9c0,2.5,0.1,5.1,0.2,7.7c0,0.3,0,0.7,0,1
				c0.1,1.7,0.1,3.4,0.5,5c0.4,2.3,1,4,3.3,4v0.2v-0.2c7.1,0,13.7-0.2,20-0.4c2.1-0.1,4.1-0.2,5.9-0.3c3.4-0.2,5.6-2.8,5.6-6.5
				c-0.1-5-0.3-10.1-0.5-15.1c-0.1-1.6,0-3,2.1-3.7c5.9-1.9,11.6-3.8,16.5-7.5c0.6-0.5,1.2-0.7,1.8-0.7c0.8,0,1.5,0.4,2.4,1.3
				c3,2.9,6.2,5.9,10.5,9.8c1.8,1.7,3.5,2.5,5.1,2.5c1.7,0,3.4-0.9,5.3-2.9c4.2-4.4,8.6-9.1,13.9-14.9c3.5-3.8,3.4-7.1-0.4-10.7
				l-0.4-0.4c-3.3-3.1-6.7-6.3-10.1-9.4c-1.2-1.1-1.7-2-0.7-3.8c3.2-5.7,5.2-11.2,6.3-16.7c0.5-2.4,1.9-2.9,3.8-3
				c3.6-0.1,7.2-0.2,10.7-0.3l3-0.1c5.3-0.2,7.5-2.5,7.4-7.7C455.9,151.6,455.7,145,455.4,137.3z M449.8,159.2
				c-0.5,0.5-1.2,0.7-2.5,0.8c-2.8,0-5.6,0.2-8.3,0.3c-3.1,0.1-6.4,0.2-9.6,0.3c-1.8,0-2.4,0.5-2.7,2.4c-1.6,8.7-4.5,16.6-8.7,23.3
				c-1.1,1.8-1,2.8,0.6,4.2c2.3,2,4.5,4.1,6.6,6.1c2,1.8,4,3.7,6,5.6c1,0.9,1.5,1.6,1.5,2.4c0,0.8-0.4,1.6-1.3,2.5
				c-4.6,4.7-8.6,9-12.3,13c-0.8,0.8-1.4,1.2-2,1.2s-1.2-0.3-2-1.1c-1.7-1.6-3.4-3.2-5.1-4.8c-2.5-2.3-5.2-4.8-7.7-7.3
				c-0.9-0.9-1.7-1.3-2.4-1.3c-0.6,0-1.3,0.3-2.1,0.9c-6.4,4.7-13.8,8-22.7,10.2c-1.9,0.5-2.1,1.2-2,2.9c0.1,2.7,0.2,5.5,0.3,8.1
				c0.1,3,0.1,6.1,0.3,9.1c0.1,1.5-0.1,2.5-0.7,3.1s-1.5,0.9-2.9,0.9h-1.2c-6.1,0-11.5,0.2-16.4,0.5c-0.2,0-0.4,0-0.5,0
				c-2.2,0-2.4-1.3-2.5-2.9c-0.1-2.4-0.1-4.9-0.2-7.3c-0.1-3.4-0.2-6.9-0.2-10.3c0-2.2-0.7-3.1-2.7-3.4c-8.4-1.4-16.4-4.4-23.6-8.9
				c-0.5-0.3-1-0.5-1.4-0.5c-0.7,0-1.2,0.5-1.9,1.2c-1.6,1.7-3.2,3.4-4.7,5c-2.4,2.5-4.9,5.2-7.3,7.8c-0.9,1.1-1.7,1.6-2.5,1.6
				s-1.5-0.4-2.5-1.4c-3.9-3.8-8-7.7-12.6-11.8c-1-0.9-1.4-1.6-1.5-2.4c0-0.8,0.4-1.5,1.4-2.5c2.4-2.4,4.8-5,7.1-7.5
				c1.6-1.7,3.3-3.5,4.9-5.3c1.1-1.2,1.5-2.1,0.4-3.6c-5-7.1-8.4-14.4-10.1-22c-0.5-2.4-1.5-3.2-3.6-3.2c-0.3,0-0.6,0-0.9,0
				c-3.3,0.3-6.6,0.3-9.9,0.4c-2.4,0.1-4.9,0.1-7.3,0.2c-0.1,0-0.3,0-0.4,0c-1.6,0-2.2-0.6-2.2-2.5c-0.1-6.6-0.2-12.5-0.7-18.6
				c-0.1-1.1,0.1-1.9,0.6-2.4c0.6-0.6,1.4-0.7,2.7-0.8c2.7-0.1,5.4-0.1,8-0.2c3.1-0.1,6.4-0.2,9.6-0.2c2,0,2.7-0.6,3-2.6
				c1.5-8.6,4.4-16.4,8.7-23.3c1.2-1.9,0.7-2.8-0.7-4.1c-2.3-2-4.5-4.1-6.7-6.1c-2-1.8-4-3.7-6-5.6c-0.8-0.7-1.5-1.5-1.5-2.4
				c0-0.7,0.4-1.4,1.3-2.3c3.7-3.6,7.5-7.8,11.8-12.5c1-1.2,1.9-1.7,2.7-1.7c0.8,0,1.6,0.5,2.6,1.5c2.4,2.5,5,4.9,7.5,7.2
				c1.6,1.4,3.2,2.9,4.7,4.4c0.9,0.9,1.5,1.2,2.1,1.2s1.2-0.3,2-0.9c6.6-4.8,13.9-8.1,21.6-9.9c2.7-0.6,3.6-1.8,3.4-4.6
				c-0.2-3.2-0.3-6.5-0.4-9.7c-0.1-2.3-0.1-4.8-0.3-7.1c-0.1-1.1,0.1-1.8,0.5-2.3c0.4-0.4,1.1-0.6,2.1-0.6c5.9-0.1,12-0.3,18.3-0.6
				c0.2,0,0.3,0,0.4,0c2.3,0,2.8,1.3,2.9,3.2c0.1,3,0.2,6.1,0.3,9.1c0.1,2.8,0.2,5.7,0.3,8.5c0,2,0.7,2.7,2.6,3
				c8.2,1.4,16,4.3,23.3,8.7c0.2,0.1,0.3,0.2,0.5,0.3c0.5,0.3,0.9,0.6,1.4,0.6c0.2,0,0.5-0.1,0.7-0.2c0.3-0.3,0.6-0.6,0.8-0.9
				c0.3-0.3,0.6-0.6,0.9-1c1.1-1.2,2.2-2.3,3.3-3.5c2.8-3,5.7-6,8.4-9.1c0.7-0.8,1.3-1.3,2-1.3c0.6,0,1.2,0.3,1.9,1
				c4.2,4.1,8.6,8.2,13.6,12.7c0.8,0.7,1.2,1.4,1.2,2c0,0.9-0.6,1.6-1.2,2.3c-1.7,1.8-3.4,3.6-5.1,5.4c-2.3,2.5-4.8,5.1-7.2,7.6
				c-1.2,1.3-1.3,2.2-0.3,3.7c5,6.9,8.4,14.4,10.2,22.3c0.6,2.8,1.8,3,4.1,2.9c3-0.2,6.1-0.3,9.1-0.4c2.7-0.1,5.4-0.2,8.1-0.3
				c1.8-0.1,2.9,0.1,2.9,2.5c0,6.3,0.3,12.7,0.6,18.6C450.5,158,450.3,158.7,449.8,159.2z"/>
			<path class="st3" d="M358.8,181.5c-16.7,0-30.3-13.6-30.3-30.3s13.6-30.3,30.3-30.3c16.7,0,30.3,13.6,30.3,30.3
				C389,167.9,375.4,181.5,358.8,181.5z M358.8,128.4c-12.6,0-22.8,10.2-22.8,22.8s10.2,22.8,22.8,22.8c12.6,0,22.8-10.2,22.8-22.8
				C381.6,138.6,371.3,128.4,358.8,128.4z"/>
		</g>
		<path class="st0" d="M399.1,380.2H192.5c-6.9,0-12.5-5.6-12.5-12.5v-55.5c0-6.9,5.6-12.5,12.5-12.5h206.6
			c6.9,0,12.5,5.6,12.5,12.5v55.5C411.6,374.6,406,380.2,399.1,380.2z M192.5,300.7c-6.3,0-11.5,5.2-11.5,11.5v55.5
			c0,6.3,5.2,11.5,11.5,11.5h206.6c6.3,0,11.5-5.2,11.5-11.5v-55.5c0-6.3-5.2-11.5-11.5-11.5H192.5z"/>
	</g>
	<g>
		<g>
			<path class="st1" d="M159.8,352.9l-12.4,1.1l1-11.2c0.1-1.2-0.3-2.4-1.2-3.3c-0.9-0.9-2.1-1.3-3.3-1.2l-11.2,1l1-11.2
				c0.1-1.2-0.3-2.4-1.2-3.3c-0.9-0.9-2.1-1.3-3.3-1.2l-11.2,1l1.1-12.3c0.1-1.2-0.3-2.4-1.2-3.3l-4.4-4.4c4.1-14.8,1-30.6-8.3-42.8
				c-9.3-12.2-23.8-19.3-39.1-19.3c-0.9,0-1.8,0-2.7,0.1c-18.8,1-35.3,12.7-42.6,30.1c-7.3,17.3-4,37.3,8.4,51.4
				C41.9,338.2,61.3,344,79.4,339l54.1,54.1c0.9,0.9,2,1.5,3.3,1.7c0.1,0,0.3,0,0.3,0l24.9,0c2,0,4-0.8,5.4-2.2
				c1.4-1.4,2.2-3.4,2.2-5.4l0-24.3c0-1.3-0.5-2.6-1.4-3.5l0,0l-5.1-5.3C162.3,353.2,161.1,352.7,159.8,352.9z M159.8,358l4.8,4.9
				l0,0l0,24.3c0,0.7-0.2,1.3-0.7,1.8c-0.5,0.5-1.1,0.8-1.8,0.8h0l-24.6,0c-0.1-0.1-0.2-0.2-0.3-0.3l-55.1-55.1
				c-0.7-0.7-1.6-0.9-2.5-0.6c-4.2,1.3-8.7,2-13.1,2c-19,0-35.9-12.3-41.8-30.3c-5.9-18.1,0.4-37.9,15.7-49.2
				c15.3-11.3,36.1-11.4,51.6-0.4c15.5,11,22.2,30.7,16.6,48.9c-0.3,0.9,0,1.9,0.6,2.5l5.2,5.2l-1.2,13.1c-0.1,1.2,0.3,2.4,1.2,3.3
				c0.9,0.9,2.1,1.3,3.3,1.2l11.2-1l-1,11.2c-0.1,1.2,0.3,2.4,1.2,3.3c0.9,0.9,2.1,1.3,3.3,1.2l11.2-1l-1,11.2
				c-0.1,1.2,0.3,2.4,1.2,3.3s2.1,1.3,3.3,1.2L159.8,358z"/>
			<path class="st1" d="M63.8,289c5.8-5.8,5.8-15.3,0-21.2s-15.3-5.8-21.2,0c-5.8,5.8-5.8,15.3,0,21.2
				C48.5,294.9,57.9,294.9,63.8,289z M60.2,271.5c3.9,3.9,3.9,10.1,0,14c-3.9,3.9-10.1,3.9-14,0c-3.9-3.9-3.9-10.1,0-14
				C50.1,267.6,56.3,267.6,60.2,271.5L60.2,271.5z"/>
			<path class="st1" d="M130.7,371c0.9-0.2,1.6-0.9,1.8-1.8c0.2-0.9,0-1.8-0.7-2.5l-39.5-39.5c-0.6-0.7-1.6-0.9-2.5-0.7
				c-0.9,0.2-1.6,0.9-1.8,1.8c-0.2,0.9,0,1.8,0.7,2.5l39.5,39.5C128.9,370.9,129.8,371.2,130.7,371z"/>
		</g>
		<path class="st1" d="M138.5,376.4c0.5-0.4,0.7-1.1,0.7-1.7c0-0.7-0.3-1.3-0.7-1.7c-1-1-2.6-1-3.6,0c-0.5,0.4-0.7,1.1-0.7,1.7
			c0,0.7,0.3,1.3,0.7,1.7C135.9,377.3,137.5,377.3,138.5,376.4z"/>
	</g>
</g>
</svg>
