<?xml version="1.0" encoding="utf-8"?>
<!-- Generator: Adobe Illustrator 22.0.0, SVG Export Plug-In . SVG Version: 6.00 Build 0)  -->
<svg version="1.1" id="Layer_1" xmlns="http://www.w3.org/2000/svg" xmlns:xlink="http://www.w3.org/1999/xlink" x="0px" y="0px"
	 viewBox="0 0 732 713.5" style="enable-background:new 0 0 732 713.5;" xml:space="preserve">
<style type="text/css">
	.st0{fill:#FFFFFF;}
</style>
<g>
	<g>
		<path class="st0" d="M685.4,370.8h-44l-70.7-1.2l-6.1,42h73.8c-17.5,118.7-110.1,212.8-228,232.7v46.3
			C566.9,668,687.1,533.4,687.1,370.7L685.4,370.8L685.4,370.8L685.4,370.8z"/>
		<path class="st0" d="M314.7,90.6V44.2c-155.1,23.7-274,157.7-274,319.5h1.8h44h70.4l6.4-40.9H89.5
			C106.8,205.1,198.2,111.5,314.7,90.6z"/>
		<path class="st0" d="M362.6,136.5c-127.4,0-230.7,103.3-230.7,230.7S235.2,598,362.6,598s230.7-103.3,230.7-230.7
			S490,136.5,362.6,136.5z M362.6,558.7c-105.7,0-191.5-85.7-191.5-191.5s85.8-191.4,191.5-191.4s191.5,85.7,191.5,191.5
			S468.3,558.7,362.6,558.7z"/>
		<path class="st0" d="M362.6,238.2c-71.3,0-129.1,57.8-129.1,129.1s57.8,129.1,129.1,129.1s129.1-57.8,129.1-129.1
			S433.9,238.2,362.6,238.2z M337.1,471c-31.3,0-56.6-25.3-56.6-56.6s25.3-56.6,56.6-56.6s56.6,25.3,56.6,56.6
			C393.7,445.6,368.4,471,337.1,471z"/>
		<path class="st0" d="M672.7,267.7C637.1,153.1,539.4,65.8,418.9,45.2c-6.2-11.3-18.2-18.9-31.9-18.9c-20.1,0-36.4,16.3-36.4,36.4
			s16.3,36.4,36.4,36.4c9.1,0,17.4-3.4,23.8-8.9c103.4,17.6,187.2,92.3,217.9,190.5c-4,5.9-6.4,13-6.4,20.6
			c0,20.1,16.3,36.4,36.4,36.4c20.1,0,36.4-16.3,36.4-36.4C695.2,286.2,685.9,273.2,672.7,267.7z M387,88.4
			c-14.2,0-25.8-11.5-25.8-25.8s11.5-25.8,25.8-25.8c14.2,0,25.8,11.5,25.8,25.8S401.2,88.4,387,88.4z M658.8,327.1
			c-14.2,0-25.8-11.5-25.8-25.8s11.5-25.8,25.8-25.8c14.2,0,25.8,11.5,25.8,25.8S673,327.1,658.8,327.1z"/>
		<path class="st0" d="M340,635.5c-9,0-17.3,3.3-23.7,8.8C212.8,626.4,129,551.2,98.7,452.5c2.6-5,4.2-10.8,4.2-16.8
			c0-20.1-16.3-36.4-36.4-36.4s-36.4,16.3-36.4,36.4c0,16.6,11.1,30.6,26.4,35C93,583.2,189.4,668.6,308,689.3
			c6.2,11.4,18.2,19.1,32,19.1c20.1,0,36.4-16.3,36.4-36.4S360.1,635.5,340,635.5z M66.4,461.4c-14.2,0-25.8-11.5-25.8-25.8
			c0-14.2,11.5-25.8,25.8-25.8s25.8,11.5,25.8,25.8C92.2,449.8,80.7,461.4,66.4,461.4z M340,697.6c-14.2,0-25.8-11.5-25.8-25.8
			c0-14.2,11.5-25.8,25.8-25.8c14.2,0,25.8,11.5,25.8,25.8C365.7,686.1,354.2,697.6,340,697.6z"/>
	</g>
</g>
</svg>
