<?xml version="1.0" encoding="utf-8"?>
<!-- Generator: Adobe Illustrator 16.0.0, SVG Export Plug-In . SVG Version: 6.00 Build 0)  -->
<!DOCTYPE svg PUBLIC "-//W3C//DTD SVG 1.1//EN" "http://www.w3.org/Graphics/SVG/1.1/DTD/svg11.dtd">
<svg version="1.1" id="Layer_1" xmlns="http://www.w3.org/2000/svg" xmlns:xlink="http://www.w3.org/1999/xlink" x="0px" y="0px"
	 width="40px" height="40px" viewBox="0 0 40 40" enable-background="new 0 0 40 40" xml:space="preserve">
<g>
	<path fill="#1388FF" d="M20.029,0.298h-0.056c-6.805,0-12.342,5.535-12.342,12.337c0,4.459,2.032,10.344,6.037,17.491
		c2.969,5.299,5.98,9.356,6.009,9.397c0.084,0.11,0.216,0.179,0.356,0.179c0.005,0,0.008,0,0.013,0
		c0.145-0.005,0.277-0.077,0.357-0.198c0.031-0.045,3.02-4.559,5.969-10.08c3.979-7.453,5.998-13.102,5.998-16.789
		C32.369,5.833,26.834,0.298,20.029,0.298z M25.725,12.936c0,3.157-2.566,5.725-5.725,5.725s-5.725-2.567-5.725-5.725
		c0-3.157,2.568-5.724,5.725-5.724C23.156,7.212,25.725,9.779,25.725,12.936z"/>
</g>
</svg>
