<svg xmlns="http://www.w3.org/2000/svg" id="Group_2115" width="41.421" height="27.884" viewBox="0 0 41.421 27.884">
    <defs>
        <style>
            .cls-1{fill:#3fe0d0}
        </style>
    </defs>
    <g id="Group_298">
        <g id="Group_295">
            <g id="Group_294">
                <path id="Path_766" d="M106.266 177.483H92.728a13.983 13.983 0 0 0-13.942 13.942 13.983 13.983 0 0 0 13.942 13.942h13.538a13.983 13.983 0 0 0 13.942-13.942 13.983 13.983 0 0 0-13.942-13.942zm6.852 13.942a8 8 0 0 1-7.973 7.973h-11.3a8 8 0 0 1-7.973-7.973 8 8 0 0 1 7.973-7.973h11.3a8 8 0 0 1 7.973 7.973z" class="cls-1" transform="translate(-78.786 -177.483)"/>
            </g>
        </g>
        <g id="Group_296" transform="translate(13.03 11.088)">
            <path id="Path_767" d="M105.744 198.1c-.007-.062-.017-.125-.028-.186 0-.026-.009-.052-.015-.078-.018-.081-.037-.16-.062-.239 0-.015-.01-.028-.015-.043-.021-.064-.044-.127-.07-.19l-.037-.086c-.021-.048-.045-.1-.069-.142l-.044-.085c-.037-.067-.076-.132-.118-.2a2.855 2.855 0 0 0-2.015-1.246h-.022a2.921 2.921 0 0 0-.337-.021 2.882 2.882 0 0 0-.292.015 2.817 2.817 0 0 0-.819.21 2.87 2.87 0 0 0-.485.263 2.953 2.953 0 0 0-.422.349 2.853 2.853 0 0 0 0 4.037 2.954 2.954 0 0 0 .422.349 2.871 2.871 0 0 0 .485.263 2.817 2.817 0 0 0 .819.209 2.851 2.851 0 0 0 3.146-2.839c0-.089-.006-.176-.013-.262l-.009-.078z" class="cls-1" transform="translate(-100.058 -195.585)"/>
        </g>
        <g id="Group_297" transform="translate(22.683 11.088)">
            <path id="Path_768" d="M121.5 198.1c-.007-.062-.017-.124-.028-.186 0-.026-.009-.052-.015-.078-.017-.081-.037-.16-.061-.239 0-.015-.01-.029-.015-.044-.021-.064-.043-.127-.069-.189l-.037-.087c-.021-.048-.045-.095-.069-.141-.014-.028-.028-.057-.044-.085-.037-.067-.076-.132-.118-.2a2.854 2.854 0 0 0-2.015-1.246h-.022a2.921 2.921 0 0 0-.337-.021 2.854 2.854 0 1 0 2.854 2.854c0-.088-.006-.176-.013-.262-.003-.025-.006-.051-.011-.076z" class="cls-1" transform="translate(-115.816 -195.585)"/>
        </g>
    </g>
</svg>
