<?xml version="1.0" encoding="utf-8"?>
<!-- Generator: Adobe Illustrator 22.0.0, SVG Export Plug-In . SVG Version: 6.00 Build 0)  -->
<svg version="1.1" id="Layer_1" xmlns="http://www.w3.org/2000/svg" xmlns:xlink="http://www.w3.org/1999/xlink" x="0px" y="0px"
	 viewBox="0 0 85.9 175" style="enable-background:new 0 0 85.9 175;" xml:space="preserve">
<style type="text/css">
	.st0{fill:#008AE3;}
	.st1{fill:#121215;}
	.st2{fill:#101114;}
	.st3{fill:#131417;}
	.st4{fill:#0D0E13;}
	.st5{fill:#4CBDFC;}
	.st6{fill:#202226;}
	.st7{fill:#212428;}
	.st8{fill:#461218;}
	.st9{fill:#EACB2D;}
	.st10{fill:#1D2021;}
	.st11{fill:#343C3E;}
	.st12{fill:#2D3537;}
	.st13{fill:#161819;}
	.st14{fill:#4D1018;}
	.st15{fill:#2E3436;}
</style>
<g>
	<path class="st0" d="M75.3,63.4c0.6-15.7,0.5-15.3,0.5-15.2c0-0.3,1.2-13.3-1-25.7c-2.2-12.6-16.3-16-16.3-16l-0.7,0L42.9,5.9V6
		L28.1,6.5l-0.7,0c0,0-14.1,3.5-16.3,16c-2.1,12.4-1,25.4-1,25.7c0-0.1-0.1-0.4,0.5,15.2c0.6,16.5-1,57.2-0.8,62.2
		c0.2,4.9-0.4,15.4,0.6,18.2c1,2.8,4.3,16.2,4.3,16.2s5.4,10.4,28.3,8.8v-0.1c22.7,1.5,28.1-8.9,28.1-8.9s3.4-13.4,4.3-16.2
		c1-2.8,0.4-13.2,0.6-18.2C76.3,120.6,74.7,79.9,75.3,63.4L75.3,63.4z"/>
	<path class="st1" d="M61.6,49.2c-5.3-2.8-18.7-3-18.7-3v0c0,0-13.4,0.2-18.7,3c-5.3,2.8-7.3,4.1-6.9,5.9c0.4,1.8,4.3,20.2,4.3,20.7
		c0,0.5,0.4,1.3,2.4,0.7c2.1-0.6,18.8-1.3,18.8-1.3v0c0,0,16.8,0.7,18.8,1.3c2.1,0.6,2.4-0.2,2.4-0.7c0-0.5,4-18.8,4.3-20.7
		C68.9,53.3,66.9,52,61.6,49.2L61.6,49.2z"/>
	<path class="st2" d="M71.1,58.2c0,0-0.1,21.1,0,27.4c0.1,6.3-0.1,14.7-0.5,20.4c-0.5,5.7-1.5,31.5-1.5,31.5v0.5c0,0-3.3-9-4-15.9
		c-1.5-6.8-0.8-23.5,0-33.7C65.4,78.3,70.4,59.9,71.1,58.2L71.1,58.2z"/>
	<path class="st3" d="M62.8,130.9c-0.4-2.4-0.7-1.7-0.8-1.9c-0.1-0.2-2.5,0.4-3.5,0.7c-7.8,1.4-15.7,1-15.7,1v0c0,0-7.9,0.3-15.7-1
		c-1-0.2-3.4-0.9-3.5-0.7c-0.1,0.2-0.4-0.5-0.8,1.9c-0.4,2.4-2.4,16.7-2.2,16.9c0.1,0.1,4.9,3,13.2,4.3c1.8,0.1,8.9,0.4,8.9,0.4v0
		c0,0,7-0.3,8.9-0.4c8.4-1.3,13.1-4.2,13.2-4.3C65.1,147.6,63.1,133.3,62.8,130.9L62.8,130.9z"/>
	<path class="st4" d="M70.5,63.5l2.1,1.2v2h-2.1V63.5z"/>
	<path class="st5" d="M56.9,7.8c-0.2-0.1-0.4-0.2-0.6-0.3C55.4,7.2,55.8,7.3,56.9,7.8z M71.7,22.8C70.2,14,60.3,9.2,56.9,7.8
		c3.4,2.3,5.8,15.2,7.6,23.5c1.9,8.7,3,22.7,3,22.7s4.1,0.7,6,11.7C74.9,72.6,73.6,34.5,71.7,22.8L71.7,22.8z M29.5,7.6
		c-0.2,0.1-0.4,0.2-0.6,0.3C30,7.4,30.4,7.3,29.5,7.6z M14.1,22.8c-1.9,11.7-3.3,49.9-1.8,43c1.9-11,6-11.7,6-11.7s1.1-14,3-22.7
		c1.8-8.2,4.2-21.2,7.6-23.5C25.5,9.3,15.6,14.1,14.1,22.8z"/>
	<path class="st6" d="M64.4,98.5l6.4-4.8v5.7l-6.4,4V98.5z M21.2,144c-0.3,2.2-0.5,3.7-0.4,3.8c0.1,0.1,4.9,3,13.2,4.3
		c1.8,0.1,8.9,0.4,8.9,0.4v0c0,0,7-0.3,8.9-0.4c8.4-1.3,13.1-4.2,13.2-4.3c0.1-0.1-0.4-4.1-1-8.2L21.2,144L21.2,144z"/>
	<path class="st7" d="M20.4,70.4l41-9.7l6.2-2c0.4-1.8,0.7-3.2,0.8-3.6c0.4-1.8-1.6-3.2-6.9-5.9c-5.3-2.8-18.7-3-18.7-3v0
		c0,0-13.4,0.2-18.7,3c-5.3,2.8-7.3,4.1-6.9,5.9C17.4,56.3,19.2,64.7,20.4,70.4L20.4,70.4z"/>
	<path class="st2" d="M14.8,58.2c0,0,0.1,21.1,0,27.4c-0.1,6.3,0.1,14.7,0.5,20.4c0.5,5.7,1.5,31.5,1.5,31.5v0.5c0,0,3.3-9,4-15.9
		c1.4-6.8,0.8-23.5,0-33.7C20.5,78.3,15.5,60,14.8,58.2L14.8,58.2z"/>
	<path class="st0" d="M75.3,63.5c0.6-15.7,0.5-15.3,0.5-15.2c0-0.3,1.2-13.3-1-25.7c-2.2-12.6-16.3-16-16.3-16l-0.7,0L42.9,5.9V6
		L28.1,6.6l-0.7,0c0,0-14.1,3.5-16.3,16c-2.1,12.4-1,25.4-1,25.7c0-0.1-0.1-0.4,0.5,15.2c0.6,16.5-1,57.2-0.8,62.2
		c0.2,4.9-0.4,15.4,0.6,18.2c1,2.8,4.3,16.2,4.3,16.2s5.4,10.4,28.3,8.8v-0.1c22.7,1.5,28.1-8.9,28.1-8.9s3.4-13.4,4.3-16.2
		c1-2.8,0.4-13.2,0.6-18.2C76.3,120.7,74.7,80,75.3,63.5L75.3,63.5z M74.3,144.1c-2.8,16.3-6.8,18.9-11.3,21.3
		c-4.5,2.4-20.1,2.8-20.1,2.8v0.1c-1.6,0-15.7-0.5-19.9-2.8c-4.5-2.4-8.6-5.1-11.3-21.3c-2.8-16.3,1.1-22.9,0.6-36.8
		c-0.5-13.9-0.4-49.8-0.3-53.9c0.1-4-1-32.1,2.9-36.2c3.9-4.1,9.5-9.6,12.7-9.8c2-0.1,3.9-0.2,5.9-0.2V7.2H43V7.2h9.4v0.1
		c1.7,0,4,0.1,5.9,0.2c3.3,0.2,8.8,5.8,12.8,9.8c3.9,4.1,2.8,32.1,2.9,36.2c0.1,4,0.2,39.9-0.3,53.9C73.2,121.2,77,127.8,74.3,144.1
		L74.3,144.1z"/>
	<path class="st8" d="M15.5,155.9c0,0,2.6,5.5,6.7,6.9c4.1,1.5,7,2.2,7,2.2s-5.3-0.1-8-1.6C18.5,161.9,15.4,159.4,15.5,155.9
		L15.5,155.9z"/>
	<path class="st9" d="M27.5,7.5c0,0-5.7,2.8-7.4,4.6c-1.7,1.9-4.2,5.1-4.3,5.5c-0.1,0.4,0,1.6,0,1.6S26,8.2,27.5,7.5z"/>
	<path class="st10" d="M42.9,5.9L42.9,5.9L42.9,5.9L42.9,5.9z M56,7.9c-0.1-0.6-2.9-1.4-3.7-1.6c-0.7-0.1-8.9-0.4-9.4-0.4l0,0.1
		c-0.5,0-8.7,0.3-9.4,0.4c-0.7,0.1-3.6,1-3.7,1.6c-0.1,0.6,0.5,0.8,1.2,0.5c0.7-0.3,1.7-1.1,2.4-1.3C34.2,7.1,43,6.8,43,6.8l0-0.1
		c0.7,0,8.8,0.3,9.5,0.5c0.7,0.2,1.7,1,2.4,1.3C55.5,8.8,56,8.5,56,7.9L56,7.9z"/>
	<path class="st5" d="M13,64.8c0,0-5.7,2.3-6.1,4.5c-0.3,2.3-0.3,2.5,0,2.5c0.3,0,6.4-3.2,6.4-3.2v-3.9H13L13,64.8z"/>
	<path class="st4" d="M6.9,72.4l0-0.5l6.4-3.2v0.4L6.9,72.4z"/>
	<path class="st4" d="M15.4,63.6l-2.1,1.2v2h2.1V63.6z"/>
	<path class="st6" d="M21.4,98.6L15,93.8v5.7l6.4,4.1V98.6z"/>
	<path class="st11" d="M22.9,130.9c0.4-2.4,0.7-1.7,0.8-1.9c0.1-0.2,2.5,0.4,3.5,0.7c7.8,1.4,15.7,1,15.7,1v0c0,0,7.9,0.3,15.7-1
		c1-0.2,3.4-0.9,3.5-0.7c0.1,0.2,0.4-0.5,0.8,1.9s2.4,16.7,2.2,16.9c-0.1,0.1-4.9,3-13.2,4.3c-1.8,0.1-8.9,0.4-8.9,0.4v0
		c0,0-7-0.3-8.9-0.4c-8.4-1.3-13.1-4.2-13.2-4.3C20.5,147.6,22.5,133.3,22.9,130.9L22.9,130.9z M24.4,49.2c5.3-2.8,18.7-3,18.7-3v0
		c0,0,13.4,0.2,18.7,3c5.3,2.8,7.3,4.1,6.9,5.9c-0.4,1.8-4.3,20.2-4.3,20.7c0,0.5-0.4,1.3-2.4,0.7c-2.1-0.6-18.8-1.3-18.8-1.3v0
		c0,0-16.8,0.7-18.8,1.3c-2.1,0.6-2.4-0.2-2.4-0.7c0-0.5-4-18.8-4.3-20.7C17.1,53.3,19,52,24.4,49.2L24.4,49.2z"/>
	<path class="st12" d="M22,50.5c-3.6,2-5,3.2-4.7,4.7c0.4,1.8,4.3,20.2,4.3,20.7c0,0.5,0.4,1.3,2.4,0.7c0.5-0.1,1.7-0.3,3.3-0.4
		C25,70,22.9,56.4,22,50.5L22,50.5z M64,50.4c3.6,2,5,3.2,4.7,4.7c-0.4,1.8-4.3,20.2-4.3,20.7c0,0.5-0.4,1.3-2.4,0.7
		c-0.5-0.1-1.7-0.3-3.3-0.4C61,69.9,63.1,56.4,64,50.4z"/>
	<path class="st13" d="M67.6,52.8c-1.1-1-3-2.1-6-3.7c-5.3-2.8-18.7-3-18.7-3v0l0,0v0c-1.1,0-13.6,0.3-18.6,3c-3,1.6-4.9,2.7-6,3.7
		l4.7,3.7c0,0,9.6-1.5,20-1.7v0C53.3,55,62.8,56,62.8,56L67.6,52.8z"/>
	<path class="st9" d="M58.3,7.4c0,0,5.7,2.8,7.4,4.6c1.7,1.9,4.2,5.1,4.3,5.5c0.1,0.4,0,1.6,0,1.6S59.9,8.1,58.3,7.4z"/>
	<path class="st5" d="M51,9.2H33.1c0,0-3.7,1.1-4.9,14.5c-1.2,13.4-3.3,23.7,5,21.3c8.3-2.4,12.8-0.3,16.5-0.5
		c3.7-0.3,9.4,3.8,7.2-14.5S54.6,10.7,51,9.2z"/>
	<path class="st0" d="M32.5,43.7l3-30.4l-2.2,10.7L32.5,43.7z M53.3,43.7l-3-30.4L52.5,24L53.3,43.7z"/>
	<path class="st14" d="M70.3,155.8c0,0-2.6,5.5-6.7,6.9c-4.1,1.4-7.1,2.2-7.1,2.2s5.3-0.1,8-1.6C67.4,161.8,70.5,159.4,70.3,155.8z"
		/>
	<path class="st15" d="M23.7,129.1c-0.1,0.2-0.4-0.5-0.8,1.9c-0.4,2.4-2.4,16.7-2.2,16.9c0.1,0.1,1.2,0.8,3.3,1.6l2.7-19.8
		C25.6,129.4,23.8,129,23.7,129.1L23.7,129.1z M62.7,131c-0.4-2.4-0.7-1.7-0.8-1.9c-0.1-0.2-1.9,0.3-3,0.6l2.7,19.8
		c2.1-0.8,3.2-1.5,3.3-1.6C65.1,147.7,63.1,133.4,62.7,131z"/>
	<path class="st5" d="M72.9,64.7c0,0,5.7,2.3,6.1,4.5c0.3,2.3,0.3,2.5,0,2.5s-6.4-3.2-6.4-3.2v-3.8H72.9z"/>
	<path class="st4" d="M78.9,72.3l0.1-0.5l-6.4-3.2V69L78.9,72.3z"/>
	<path class="st5" d="M51.8,151.3H33c0,0-10.3-1.4-8.9,3S22.7,164,37,164h10.9c14.2,0,11.5-5.3,12.9-9.7
		C62.1,150,51.8,151.3,51.8,151.3L51.8,151.3z"/>
	<path class="st6" d="M43.5,149.1c-8.7,0-16.5-1.9-22-5l-0.4-0.1c-0.6,4.1-0.5,3.8-0.4,3.9c0.1,0.1,4.9,3,13.2,4.3
		c1.8,0.1,8.9,0.4,8.9,0.4v0c0,0,7-0.3,8.9-0.4c8.4-1.3,13.1-4.1,13.2-4.3c0,0-0.1-1.4-0.4-3.3C59.3,147.3,51.8,149.1,43.5,149.1
		L43.5,149.1z"/>
	<path class="st5" d="M55.8,90c2.1-6.5-1.4-8.7-5.3-9.4c-3.1-0.5-10.7-0.4-13.2-0.2c-4.5,0.3-9.4,2.2-7,9.6
		c4.1,12.6-0.2,29.9,0,31.9c0.2,1.5,2.3,4,6.7,4.6c1.6,0.2,11.5,0.2,13.3-0.2c3.6-0.9,5.4-3.1,5.5-4.4
		C56.1,119.9,51.8,102.7,55.8,90L55.8,90z"/>
</g>
</svg>
