<?xml version="1.0" encoding="utf-8"?>
<!-- Generator: Adobe Illustrator 16.0.0, SVG Export Plug-In . SVG Version: 6.00 Build 0)  -->
<!DOCTYPE svg PUBLIC "-//W3C//DTD SVG 1.1//EN" "http://www.w3.org/Graphics/SVG/1.1/DTD/svg11.dtd">
<svg version="1.1" id="Layer_1" xmlns="http://www.w3.org/2000/svg" xmlns:xlink="http://www.w3.org/1999/xlink" x="0px" y="0px"
	 width="109.667px" height="92.667px" viewBox="0 0 109.667 92.667" enable-background="new 0 0 109.667 92.667"
	 xml:space="preserve">
<g>
	<defs>
		<path id="SVGID_1_" d="M39.184,1.339l21.043,36.363c13.336,25.852,48.026,24.645,48.026,24.645L71.229,1.339H39.184z"/>
	</defs>
	<clipPath id="SVGID_2_">
		<use xlink:href="#SVGID_1_"  overflow="visible"/>
	</clipPath>
	<rect x="32.523" y="-5.321" clip-path="url(#SVGID_2_)" fill="#72C5CF" width="82.388" height="74.336"/>
</g>
<g>
	<defs>
		<rect id="SVGID_3_" x="-92.667" y="-38.89" width="1917.97" height="1363.89"/>
	</defs>
	<clipPath id="SVGID_4_">
		<use xlink:href="#SVGID_3_"  overflow="visible"/>
	</clipPath>
	<path clip-path="url(#SVGID_4_)" fill-rule="evenodd" clip-rule="evenodd" fill="#515254" d="M71.228,1.339H39.183L2.159,62.347
		c0,0,34.689,1.206,48.025-24.645L71.228,1.339"/>
</g>
<g>
	<defs>
		<path id="SVGID_5_" d="M39.184,1.339L2.16,62.347c0,0,34.688,1.207,48.025-24.645L71.229,1.339H39.184z"/>
	</defs>
	<clipPath id="SVGID_6_">
		<use xlink:href="#SVGID_5_"  overflow="visible"/>
	</clipPath>
	<rect x="-92.667" y="-38.89" clip-path="url(#SVGID_6_)" fill="#515254" width="1917.97" height="1363.89"/>
	<rect x="-4.5" y="-5.321" clip-path="url(#SVGID_6_)" fill="#515254" width="82.388" height="74.336"/>
</g>
<g>
	<defs>
		<rect id="SVGID_7_" x="-92.667" y="-38.89" width="1917.97" height="1363.89"/>
	</defs>
	<clipPath id="SVGID_8_">
		<use xlink:href="#SVGID_7_"  overflow="visible"/>
	</clipPath>
	<path clip-path="url(#SVGID_8_)" fill-rule="evenodd" clip-rule="evenodd" fill="#515254" d="M5.336,86.063
		c-1.176,0-1.862,0.646-1.862,1.819c0,1.075,0.784,1.877,2.254,1.877c2.155,0,3.39-1.134,3.39-2.503v-1.193H5.336z M9.275,89.68
		c-1,0.88-1.959,1.349-3.606,1.349c-2.156,0-3.567-1.369-3.567-3.128c0-1.956,1.333-3.11,3.293-3.11h3.723V83.48
		c0-1.407-0.863-2.365-2.273-2.365h-1c-0.979,0-1.861,0.489-2.312,1.349l-1.176-0.548c0.627-1.231,1.98-2.072,3.527-2.072h0.981
		c2.116,0,3.625,1.466,3.625,3.578v7.45H9.549L9.275,89.68z"/>
</g>
<g>
	<defs>
		<path id="SVGID_9_" d="M3.475,87.882c0-1.174,0.686-1.82,1.862-1.82H9.12v1.193c0,1.369-1.235,2.503-3.392,2.503
			C4.258,89.758,3.475,88.956,3.475,87.882 M5.884,79.844c-1.547,0-2.9,0.841-3.527,2.072l1.176,0.548
			c0.451-0.86,1.333-1.349,2.312-1.349h1c1.41,0,2.274,0.958,2.274,2.366v1.311H5.395c-1.959,0-3.293,1.153-3.293,3.109
			c0,1.759,1.412,3.128,3.568,3.128c1.647,0,2.606-0.468,3.606-1.349l0.275,1.192h0.94v-7.45c0-2.111-1.509-3.578-3.625-3.578H5.884
			z"/>
	</defs>
	<clipPath id="SVGID_10_">
		<use xlink:href="#SVGID_9_"  overflow="visible"/>
	</clipPath>
	<rect x="-92.667" y="-38.89" clip-path="url(#SVGID_10_)" fill="#515254" width="1917.97" height="1363.89"/>
	<rect x="-4.558" y="73.184" clip-path="url(#SVGID_10_)" fill="#515254" width="21.708" height="24.505"/>
</g>
<g>
	<defs>
		<rect id="SVGID_11_" x="-92.667" y="-38.89" width="1917.97" height="1363.89"/>
	</defs>
	<clipPath id="SVGID_12_">
		<use xlink:href="#SVGID_11_"  overflow="visible"/>
	</clipPath>
	<path clip-path="url(#SVGID_12_)" fill-rule="evenodd" clip-rule="evenodd" fill="#515254" d="M31.024,81.114H30.28
		c-1.371,0-2.449,1.076-2.449,2.445v3.656c0,1.409,1.039,2.542,2.449,2.542h0.745c1.411,0,2.451-1.133,2.451-2.542v-3.559
		C33.476,82.25,32.436,81.114,31.024,81.114 M27.831,80.919c0.529-0.685,1.47-1.076,2.449-1.076h0.745
		c2.117,0,3.823,1.701,3.823,3.813v3.559c0,2.113-1.706,3.814-3.823,3.814H30.28c-1.116,0-2.077-0.528-2.664-1.349l-0.216,1.192
		h-0.941V76.872h1.372V80.919z"/>
</g>
<g>
	<defs>
		<path id="SVGID_13_" d="M27.831,87.216v-3.657c0-1.368,1.079-2.444,2.449-2.444h0.745c1.411,0,2.45,1.134,2.45,2.542v3.559
			c0,1.408-1.039,2.542-2.45,2.542h-0.745C28.87,89.758,27.831,88.624,27.831,87.216 M26.458,76.871v14.001h0.941l0.215-1.192
			c0.588,0.822,1.548,1.349,2.665,1.349h0.745c2.117,0,3.823-1.701,3.823-3.813v-3.559c0-2.112-1.706-3.813-3.823-3.813h-0.745
			c-0.979,0-1.919,0.391-2.449,1.075v-4.048H26.458z"/>
	</defs>
	<clipPath id="SVGID_14_">
		<use xlink:href="#SVGID_13_"  overflow="visible"/>
	</clipPath>
	<rect x="-92.667" y="-38.89" clip-path="url(#SVGID_14_)" fill="#515254" width="1917.97" height="1363.89"/>
	<rect x="19.798" y="70.212" clip-path="url(#SVGID_14_)" fill="#515254" width="21.708" height="27.477"/>
</g>
<g>
	<defs>
		<rect id="SVGID_15_" x="-92.667" y="-38.89" width="1917.97" height="1363.89"/>
	</defs>
	<clipPath id="SVGID_16_">
		<use xlink:href="#SVGID_15_"  overflow="visible"/>
	</clipPath>
	<path clip-path="url(#SVGID_16_)" fill-rule="evenodd" clip-rule="evenodd" fill="#515254" d="M55.186,89.758
		c1.411,0,2.45-1.134,2.45-2.542v-3.559c0-1.408-1.039-2.542-2.45-2.542H54.44c-1.411,0-2.449,1.134-2.449,2.542v3.559
		c0,1.408,1.038,2.542,2.449,2.542H55.186z M54.44,79.844h0.745c2.117,0,3.822,1.701,3.822,3.813v3.559
		c0,2.112-1.705,3.814-3.822,3.814H54.44c-2.116,0-3.822-1.702-3.822-3.814v-3.559C50.618,81.545,52.324,79.844,54.44,79.844"/>
</g>
<g>
	<defs>
		<path id="SVGID_17_" d="M51.992,87.216v-3.559c0-1.408,1.038-2.542,2.449-2.542h0.745c1.411,0,2.45,1.134,2.45,2.542v3.559
			c0,1.408-1.039,2.542-2.45,2.542H54.44C53.029,89.758,51.992,88.624,51.992,87.216 M54.44,79.844
			c-2.116,0-3.822,1.701-3.822,3.813v3.559c0,2.112,1.706,3.813,3.822,3.813h0.745c2.117,0,3.821-1.701,3.821-3.813v-3.559
			c0-2.112-1.704-3.813-3.821-3.813H54.44z"/>
	</defs>
	<clipPath id="SVGID_18_">
		<use xlink:href="#SVGID_17_"  overflow="visible"/>
	</clipPath>
	<rect x="-92.667" y="-38.89" clip-path="url(#SVGID_18_)" fill="#515254" width="1917.97" height="1363.89"/>
	<rect x="43.958" y="73.184" clip-path="url(#SVGID_18_)" fill="#515254" width="21.708" height="24.505"/>
</g>
<g>
	<defs>
		<rect id="SVGID_19_" x="-92.667" y="-38.89" width="1917.97" height="1363.89"/>
	</defs>
	<clipPath id="SVGID_20_">
		<use xlink:href="#SVGID_19_"  overflow="visible"/>
	</clipPath>
	<path clip-path="url(#SVGID_20_)" fill-rule="evenodd" clip-rule="evenodd" fill="#515254" d="M76.15,87.216
		c0,1.408,1.039,2.542,2.45,2.542h0.745c1.411,0,2.449-1.134,2.449-2.542v-3.559c0-1.408-1.038-2.542-2.449-2.542h-0.745
		c-1.411,0-2.45,1.134-2.45,2.542V87.216z M82.227,90.873l-0.196-1.075c-0.646,0.763-1.568,1.232-2.685,1.232h-0.745
		c-2.116,0-3.821-1.701-3.821-3.814v-3.559c0-2.112,1.705-3.813,3.821-3.813h0.745c0.98,0,1.822,0.372,2.449,0.978v-3.95h1.372
		v14.001H82.227z"/>
</g>
<g>
	<defs>
		<path id="SVGID_21_" d="M76.15,87.216v-3.559c0-1.408,1.039-2.542,2.45-2.542h0.745c1.411,0,2.449,1.134,2.449,2.542v3.559
			c0,1.408-1.038,2.542-2.449,2.542h-0.745C77.189,89.758,76.15,88.624,76.15,87.216 M81.794,76.871v3.951
			c-0.627-0.607-1.469-0.979-2.449-0.979h-0.745c-2.117,0-3.821,1.701-3.821,3.813v3.559c0,2.112,1.704,3.813,3.821,3.813h0.745
			c1.116,0,2.039-0.468,2.685-1.231l0.196,1.074h0.941V76.871H81.794z"/>
	</defs>
	<clipPath id="SVGID_22_">
		<use xlink:href="#SVGID_21_"  overflow="visible"/>
	</clipPath>
	<rect x="-92.667" y="-38.89" clip-path="url(#SVGID_22_)" fill="#515254" width="1917.97" height="1363.89"/>
	<rect x="68.12" y="70.212" clip-path="url(#SVGID_22_)" fill="#515254" width="21.707" height="27.477"/>
</g>
<g>
	<defs>
		<rect id="SVGID_23_" x="-92.667" y="-38.89" width="1917.97" height="1363.89"/>
	</defs>
	<clipPath id="SVGID_24_">
		<use xlink:href="#SVGID_23_"  overflow="visible"/>
	</clipPath>
	<path clip-path="url(#SVGID_24_)" fill-rule="evenodd" clip-rule="evenodd" fill="#515254" d="M106.15,83.657
		c0-1.408-1.038-2.542-2.449-2.542h-0.746c-1.41,0-2.449,1.134-2.449,2.542v1.134h5.644V83.657z M107.308,88.956
		c-0.628,1.232-1.921,2.073-3.411,2.073h-0.941c-2.116,0-3.821-1.701-3.821-3.813v-3.559c0-2.112,1.705-3.813,3.821-3.813h0.746
		c2.116,0,3.821,1.701,3.821,3.813v2.405h-7.016v1.154c0,1.408,1.039,2.542,2.449,2.542h0.941c0.98,0,1.804-0.547,2.196-1.368
		L107.308,88.956z"/>
</g>
<g>
	<defs>
		<path id="SVGID_25_" d="M100.505,83.657c0-1.408,1.04-2.542,2.45-2.542h0.745c1.412,0,2.45,1.134,2.45,2.542v1.135h-5.645V83.657z
			 M102.956,79.844c-2.116,0-3.82,1.701-3.82,3.813v3.559c0,2.112,1.704,3.813,3.82,3.813h0.942c1.489,0,2.782-0.841,3.41-2.073
			l-1.215-0.566c-0.393,0.821-1.215,1.368-2.195,1.368h-0.942c-1.41,0-2.45-1.134-2.45-2.542v-1.154h7.017v-2.405
			c0-2.112-1.705-3.813-3.822-3.813H102.956z"/>
	</defs>
	<clipPath id="SVGID_26_">
		<use xlink:href="#SVGID_25_"  overflow="visible"/>
	</clipPath>
	<rect x="-92.667" y="-38.89" clip-path="url(#SVGID_26_)" fill="#515254" width="1917.97" height="1363.89"/>
	<rect x="92.476" y="73.184" clip-path="url(#SVGID_26_)" fill="#515254" width="21.707" height="24.505"/>
</g>
</svg>
