<?xml version="1.0" encoding="utf-8"?>
<!-- Generator: Adobe Illustrator 22.0.0, SVG Export Plug-In . SVG Version: 6.00 Build 0)  -->
<svg version="1.1" id="Layer_1" xmlns="http://www.w3.org/2000/svg" xmlns:xlink="http://www.w3.org/1999/xlink" x="0px" y="0px"
	 viewBox="0 0 48 48" style="enable-background:new 0 0 48 48;" xml:space="preserve">
<style type="text/css">
	.st0{fill:#525969;}
	.st1{fill:#FFFFFF;}
	.st2{fill:#F65136;}
</style>
<title>icons/48/Glass_Sensor/on</title>
<desc>Created with Sketch.</desc>
<g id="Symbols">
	<g id="icons_x2F_48_x2F_Glass_x5F_Sensor_x2F_on">
		<path id="Shape" class="st0" d="M6.1,5C5.7,5,5.4,5.3,5.4,5.7s0.3,0.7,0.7,0.7h0.7v33.4H6.1c-1.2,0-2.1,0.9-2.1,2.1S4.9,44,6.1,44
			H42c1.2,0,2.1-0.9,2.1-2.1s-0.9-2.1-2.1-2.1h-0.7V6.4H42c0.4,0,0.7-0.3,0.7-0.7S42.3,5,41.9,5H6.1z M8.1,6.4h31.7v33.4H8.1V6.4z
			 M10.9,7.8c-0.8,0-1.4,0.6-1.4,1.4V37c0,0.8,0.6,1.4,1.4,1.4h26.2c0.8,0,1.4-0.6,1.4-1.4V9.2c0-0.8-0.6-1.4-1.4-1.4
			C37.1,7.8,10.9,7.8,10.9,7.8z M10.9,9.2h12.4V19H10.9V9.2z M24.7,9.2h12.4V37H24.7V20.3v-1.4V9.2z M18,20l-4.1,4.8
			c-0.2,0.2-0.2,0.5-0.1,0.8c0.1,0.3,0.4,0.4,0.7,0.4H18l-4.1,4.8c-0.2,0.2-0.2,0.5-0.1,0.8c0.1,0.3,0.4,0.4,0.7,0.4h2.8l-4.1,4.8
			c-0.3,0.3-0.2,0.8,0.1,1.1c0.1,0.1,0.3,0.2,0.5,0.2s0.4-0.1,0.6-0.3l5.2-6c0.2-0.2,0.2-0.5,0.1-0.8s-0.4-0.4-0.7-0.4h-2.8l4.1-4.8
			c0.2-0.2,0.2-0.5,0.1-0.8s-0.4-0.4-0.7-0.4h-3.5L20,20H18z M10.9,20.3h12.4V37H10.9V20.3z M6.1,41.2H42c0.4,0,0.7,0.3,0.7,0.7
			s-0.3,0.7-0.7,0.7H6.1c-0.4,0-0.7-0.3-0.7-0.7S5.7,41.2,6.1,41.2z M31.3,31.2c0,0.1,0,0.2-0.1,0.3c-0.2,0.4-0.7,0.5-1,0.3L28.9,31
			c-0.2-0.1-0.4-0.4-0.4-0.7c0-0.1,0-0.3,0.1-0.4c0.2-0.4,0.7-0.5,1-0.3l1.3,0.8C31.2,30.7,31.3,31,31.3,31.2z M31.3,14.8
			c0,0.3-0.1,0.6-0.4,0.7l-1.3,0.8c-0.4,0.2-0.8,0.1-1-0.3c-0.1-0.1-0.1-0.2-0.1-0.4c0-0.3,0.1-0.5,0.4-0.7l1.3-0.8
			c0.4-0.2,0.8-0.1,1,0.3C31.2,14.6,31.2,14.7,31.3,14.8z M32.9,27.1c0,0.1,0,0.2,0,0.3c-0.1,0.4-0.5,0.6-0.9,0.5l-1.5-0.4
			c-0.3-0.1-0.6-0.4-0.6-0.7c0-0.1,0-0.1,0-0.2c0.1-0.4,0.5-0.6,0.9-0.5l1.5,0.4C32.6,26.6,32.8,26.8,32.9,27.1z M32.9,18.9
			c0,0.3-0.3,0.5-0.6,0.6l-1.5,0.4c-0.4,0.1-0.8-0.1-0.9-0.5c0-0.1,0-0.1,0-0.2c0-0.3,0.2-0.6,0.6-0.7l1.5-0.4
			c0.4-0.1,0.8,0.1,0.9,0.5C32.9,18.7,32.9,18.8,32.9,18.9z M33.4,23c0,0.4-0.3,0.8-0.8,0.8h-1.5c-0.4,0-0.8-0.3-0.8-0.8
			s0.3-0.8,0.8-0.8h1.5C33.1,22.2,33.4,22.6,33.4,23z"/>
	</g>
</g>
<g id="Layer_2_1_">
	<circle class="st1" cx="34.9" cy="35.3" r="11.2"/>
	
		<rect x="27.8" y="33.3" transform="matrix(0.7198 -0.6942 0.6942 0.7198 -14.4459 34.0291)" class="st2" width="14.3" height="3.2"/>
	
		<rect x="33.4" y="27.7" transform="matrix(0.7198 -0.6942 0.6942 0.7198 -14.386 34.0487)" class="st2" width="3.2" height="14.3"/>
</g>
</svg>
