<?xml version="1.0" encoding="utf-8"?>
<!-- Generator: Adobe Illustrator 22.0.0, SVG Export Plug-In . SVG Version: 6.00 Build 0)  -->
<svg version="1.1" id="Layer_1" xmlns="http://www.w3.org/2000/svg" xmlns:xlink="http://www.w3.org/1999/xlink" x="0px" y="0px"
	 viewBox="0 0 48 48" style="enable-background:new 0 0 48 48;" xml:space="preserve">
<style type="text/css">
	.st0{fill:#525969;}
	.st1{fill:#FFFFFF;}
	.st2{fill:#17BB5D;}
</style>
<g id="Layer_1_1_">
	<title>icons/48/Temperature_Sensor/on</title>
	<desc>Created with Sketch.</desc>
	<g id="Symbols">
		<g id="icons_x2F_48_x2F_Temperature_x5F_Sensor_x2F_on">
			<path id="Shape" class="st0" d="M24.5,2c-1.5,0-2.9,0.5-4,1.5s-1.7,2.5-1.7,4v20.6c0,0.2-0.1,0.4-0.2,0.5c-2.9,2.1-4.3,5.5-3.8,9
				c0.6,4.3,4.1,7.8,8.4,8.3c0.4,0,0.7,0.1,1.1,0.1c2.4,0,4.7-0.9,6.5-2.4c2-1.8,3.2-4.4,3.2-7.2c0-3.1-1.4-5.9-3.9-7.7
				c-0.2-0.1-0.2-0.3-0.2-0.5V7.7C29.9,4.6,27.5,2.1,24.5,2z M24.3,3.4h0.1c2.2,0.1,4,2,4,4.3v6.7l0,0h-8.2v-2.1h2
				c0.4,0,0.7-0.3,0.7-0.7s-0.3-0.7-0.7-0.7h-2V8.8h3.4c0.4,0,0.7-0.3,0.7-0.7c0-0.4-0.3-0.7-0.7-0.7h-3.4c0-1.1,0.5-2.2,1.3-3
				C22.2,3.8,23.3,3.4,24.3,3.4z M28.5,15.7v12.4c0,0.6,0.3,1.3,0.8,1.6c2.1,1.6,3.3,4,3.3,6.6c0,2.3-1,4.6-2.8,6.2
				c-1.8,1.6-4.1,2.3-6.5,2c-3.7-0.4-6.7-3.4-7.2-7.1c-0.4-3,0.8-5.9,3.3-7.7c0.1-0.1,0.2-0.2,0.3-0.3h3.9c0.4,0,0.7-0.3,0.7-0.7
				c0-0.4-0.3-0.7-0.7-0.7h-3.4v-2h2c0.4,0,0.7-0.3,0.7-0.7c0-0.4-0.3-0.7-0.7-0.7h-2v-2.1h3.4c0.4,0,0.7-0.3,0.7-0.7
				c0-0.4-0.3-0.7-0.7-0.7h-3.4V19h2c0.4,0,0.7-0.3,0.7-0.7c0-0.4-0.3-0.7-0.7-0.7h-2v-2.1L28.5,15.7L28.5,15.7z M27.5,31.1
				c-0.3,0-0.5,0.1-0.7,0.3c-0.2,0.3-0.1,0.7,0.2,1c0.3,0.2,0.6,0.5,0.9,0.8c0.1,0.1,0.3,0.2,0.5,0.2s0.3-0.1,0.5-0.2
				c0.3-0.3,0.3-0.7,0-1c-0.3-0.4-0.7-0.7-1.2-1C27.7,31.1,27.6,31.1,27.5,31.1z M29.6,34.6c-0.4,0.1-0.6,0.4-0.5,0.8
				c0.1,0.3,0.1,0.6,0.1,0.9c0,0.9-0.2,1.7-0.7,2.5c-0.2,0.3-0.1,0.7,0.2,0.9c0.1,0.1,0.2,0.1,0.4,0.1c0.2,0,0.5-0.1,0.6-0.3
				c0.6-1,0.9-2.1,0.9-3.2c0-0.4,0-0.8-0.1-1.2C30.4,34.8,30,34.6,29.6,34.6z"/>
		</g>
	</g>
</g>
<g id="Layer_2_1_">
	<circle class="st1" cx="33.2" cy="31.1" r="11.2"/>
	<rect x="31.8" y="24.4" class="st2" width="3" height="13.1"/>
	<rect x="26.7" y="29.5" class="st2" width="13.1" height="3"/>
</g>
</svg>
