<?xml version="1.0" encoding="utf-8"?>
<!-- Generator: Adobe Illustrator 22.0.0, SVG Export Plug-In . SVG Version: 6.00 Build 0)  -->
<svg version="1.1" id="Layer_1" xmlns="http://www.w3.org/2000/svg" xmlns:xlink="http://www.w3.org/1999/xlink" x="0px" y="0px"
	 viewBox="0 0 48 48" style="enable-background:new 0 0 48 48;" xml:space="preserve">
<style type="text/css">
	.st0{fill:#525969;}
	.st1{fill:#FFFFFF;}
	.st2{fill:#17BB5D;}
</style>
<g id="Layer_1_1_">
	<title>icons/48/lock/closed/on</title>
	<desc>Created with Sketch.</desc>
	<g id="Symbols">
		<g id="icons_x2F_48_x2F_lock_x2F_closed_x2F_on">
			<path id="Shape" class="st0" d="M24,0c-6.7,0-12.2,5.4-12.2,12v6.4c-3.3,3.1-5.3,7.5-5.3,12.4C6.5,40.3,14.4,48,24,48
				s17.5-7.7,17.5-17.3c0-4.9-2-9.2-5.3-12.4V12C36.2,5.4,30.7,0,24,0z M24,1.5c0.5,0,1,0,1.5,0.1v3c-0.5-0.1-1-0.2-1.5-0.2
				s-1,0.1-1.5,0.2v-3C23,1.5,23.5,1.5,24,1.5z M21,1.9v3.2c-2.7,1.2-4.6,3.8-4.6,6.9v3.2c-1.1,0.5-2.1,1.1-3,1.9V12
				C13.3,7.3,16.6,3.2,21,1.9z M27,1.9c4.4,1.3,7.6,5.3,7.6,10.1v5.1c-0.9-0.7-2-1.3-3-1.9V12c0-3.1-1.9-5.7-4.6-6.9
				C27,5.1,27,1.9,27,1.9z M24,6c3.4,0,6.1,2.7,6.1,6v2.6c-1.9-0.7-3.9-1.1-6.1-1.1s-4.2,0.4-6.1,1.1V12C17.9,8.7,20.6,6,24,6z
				 M24,15c2.2,0,4.2,0.4,6.1,1.2c0.5,0.2,1,0.4,1.5,0.7c1.1,0.6,2.1,1.3,3,2.1c0.5,0.5,1,1,1.5,1.5c2.4,2.7,3.8,6.3,3.8,10.2
				c0,8.7-7.2,15.8-16,15.8S8,39.4,8,30.8c0-3.9,1.4-7.4,3.8-10.2c0.5-0.5,1-1.1,1.5-1.5c0.9-0.8,1.9-1.5,3-2.1
				c0.5-0.3,1-0.5,1.5-0.7C19.8,15.4,21.8,15,24,15z M24,18c-7.1,0-12.9,5.7-12.9,12.8c0,0.8,0.1,1.7,0.2,2.5
				c0.1,0.4,0.4,0.6,0.7,0.6h0.1c0.4-0.1,0.7-0.5,0.6-0.9c-0.1-0.7-0.2-1.4-0.2-2.2c0-6.2,5.1-11.3,11.4-11.3c1.1,0,2.2,0.2,3.3,0.5
				c0.4,0.1,0.8-0.1,0.9-0.5s-0.1-0.8-0.5-0.9C26.5,18.2,25.3,18,24,18z M30.6,19.8c-0.3,0-0.6,0.1-0.8,0.3c-0.2,0.4-0.1,0.8,0.2,1
				c0.4,0.3,0.9,0.6,1.2,0.9c0.1,0.1,0.3,0.2,0.5,0.2s0.4-0.1,0.6-0.3c0.3-0.3,0.2-0.8-0.1-1.1c-0.4-0.4-0.9-0.7-1.4-1
				C30.8,19.9,30.7,19.8,30.6,19.8z M34,23c-0.2,0-0.4,0-0.6,0.1c-0.3,0.2-0.4,0.7-0.2,1c1.4,1.9,2.1,4.2,2.1,6.6
				c0,5.2-3.5,9.6-8.6,10.9c-0.4,0.1-0.7,0.5-0.6,0.9c0.1,0.3,0.4,0.6,0.7,0.6c0.1,0,0.1,0,0.2,0c5.7-1.4,9.7-6.5,9.7-12.4
				c0-2.7-0.8-5.3-2.4-7.4C34.4,23.1,34.2,23,34,23z M24.1,24c-0.3,0-0.7,0-1,0.1c-1.8,0.4-3.2,1.8-3.5,3.6
				c-0.3,1.6,0.3,3.1,1.4,4.2v2.7c0,1.7,1.4,3,3,3s3-1.3,3-3v-2.7c1-0.9,1.5-2.1,1.5-3.3c0-1.4-0.6-2.6-1.7-3.5
				C26.1,24.4,25.1,24,24.1,24z M24,25.5c0.7,0,1.4,0.2,1.9,0.7c0.7,0.6,1.1,1.4,1.1,2.3s-0.4,1.8-1.2,2.4c-0.2,0.1-0.3,0.4-0.3,0.6
				v3c0,0.8-0.7,1.5-1.5,1.5s-1.5-0.7-1.5-1.5v-3c0-0.2-0.1-0.5-0.3-0.6c-0.9-0.7-1.4-1.8-1.2-3c0.2-1.2,1.2-2.1,2.3-2.4
				C23.6,25.5,23.8,25.5,24,25.5z M13.9,36c-0.1,0-0.2,0-0.3,0.1l-1.3,0.8c-0.4,0.2-0.5,0.7-0.3,1c0.1,0.2,0.4,0.4,0.7,0.4
				c0.1,0,0.3,0,0.4-0.1l1.3-0.8c0.4-0.2,0.5-0.7,0.3-1C14.5,36.1,14.2,36,13.9,36z M16.3,38.8c-0.2,0-0.4,0.1-0.5,0.3l-1,1.1
				c-0.3,0.3-0.2,0.8,0.1,1.1c0.1,0.1,0.3,0.2,0.5,0.2s0.4-0.1,0.6-0.3l1-1.2c0.3-0.3,0.2-0.8-0.1-1.1
				C16.7,38.8,16.5,38.8,16.3,38.8z M19.6,40.6c-0.3,0-0.6,0.2-0.7,0.5l-0.5,1.4c-0.1,0.4,0.1,0.8,0.5,1c0.1,0,0.2,0,0.3,0
				c0.3,0,0.6-0.2,0.7-0.5l0.5-1.4c0.1-0.4-0.1-0.8-0.5-1C19.8,40.6,19.7,40.6,19.6,40.6z M23.2,41.3c-0.4,0-0.8,0.3-0.8,0.8v1.5
				c0,0.4,0.3,0.8,0.8,0.8c0.4,0,0.8-0.3,0.8-0.8V42C24,41.6,23.7,41.3,23.2,41.3z"/>
		</g>
	</g>
</g>
<g id="Layer_2_1_">
	<circle class="st1" cx="34.6" cy="36" r="11.2"/>
	<rect x="33.1" y="29.3" class="st2" width="3" height="13.1"/>
	<rect x="28" y="34.3" class="st2" width="13.1" height="3"/>
</g>
</svg>
