<?xml version="1.0" encoding="utf-8"?>
<!-- Generator: Adobe Illustrator 22.0.0, SVG Export Plug-In . SVG Version: 6.00 Build 0)  -->
<svg version="1.1" id="Layer_1" xmlns="http://www.w3.org/2000/svg" xmlns:xlink="http://www.w3.org/1999/xlink" x="0px" y="0px"
	 viewBox="0 0 48 48" style="enable-background:new 0 0 48 48;" xml:space="preserve">
<style type="text/css">
	.st0{fill:#AFB5C1;}
	.st1{fill:#FFFFFF;}
	.st2{fill:#F65136;}
</style>
<title>icons/48/bulb/off</title>
<desc>Created with Sketch.</desc>
<g id="Symbols">
	<g id="icons_x2F_48_x2F_bulb_x2F_off">
		<path id="Shape" class="st0" d="M24.5,2C15.9,2,9,8.9,9,17.3c0,4.9,2.2,7.9,4.2,10.2c1,1.1,2,2.1,2.7,3.1c0.7,0.9,1.1,1.8,1.1,2.8
			V40c0,1.8,1.5,3.3,3.4,3.3h0.7c0.3,1.5,1.7,2.7,3.3,2.7s3-1.2,3.3-2.7h0.7c1.9,0,3.4-1.5,3.4-3.3v-6.7c0-1,0.4-1.8,1.1-2.8
			c0.7-0.9,1.7-1.9,2.7-3.1c2.1-2.3,4.2-5.3,4.2-10.2C40,8.9,33.1,2,24.5,2z M24.5,3.3c7.8,0,14.2,6.3,14.2,14
			c0,4.5-1.9,7.1-3.9,9.3c-1,1.1-2,2.1-2.8,3.1s-1.4,2.2-1.4,3.6V34H18.4v-0.7c0-1.4-0.6-2.5-1.4-3.6c-0.8-1-1.8-2-2.8-3.1
			c-2-2.2-3.9-4.8-3.9-9.3C10.3,9.6,16.7,3.3,24.5,3.3z M20.4,13.3c-0.3,0-0.5,0.2-0.6,0.4c-0.1,0.3,0,0.5,0.2,0.7l3.6,3.5L20,21.5
			c-0.2,0.2-0.2,0.4-0.2,0.6c0.1,0.2,0.2,0.4,0.5,0.5c0.2,0.1,0.5,0,0.7-0.2l3.6-3.5l3.6,3.5c0.2,0.2,0.4,0.2,0.7,0.2
			c0.2-0.1,0.4-0.2,0.5-0.5c0.1-0.2,0-0.5-0.2-0.6L25.5,18l3.6-3.5c0.2-0.2,0.3-0.5,0.2-0.7c-0.1-0.3-0.4-0.4-0.6-0.4
			s-0.3,0.1-0.5,0.2l-3.6,3.5L21,13.6C20.8,13.4,20.6,13.3,20.4,13.3z M18.4,35.3h12.1v1.3h-8.1V38h8.1v1.3h-8.1v1.3h8
			c-0.3,0.8-1,1.3-1.9,1.3h-8.1c-0.9,0-1.6-0.6-1.9-1.3h2.6v-1.3h-2.7V38h2.7v-1.3h-2.7V35.3z M22.6,43.3h3.8
			c-0.3,0.8-1,1.3-1.9,1.3S22.9,44.1,22.6,43.3z"/>
	</g>
</g>
<g id="Layer_2_1_">
	<circle class="st1" cx="35.8" cy="34" r="11.2"/>
	<rect x="28.7" y="32" transform="matrix(0.7198 -0.6942 0.6942 0.7198 -13.3011 34.3104)" class="st2" width="14.3" height="3.2"/>
	
		<rect x="34.3" y="26.4" transform="matrix(0.7198 -0.6942 0.6942 0.7198 -13.2481 34.3168)" class="st2" width="3.2" height="14.3"/>
</g>
</svg>
