<?xml version="1.0" encoding="utf-8"?>
<!-- Generator: Adobe Illustrator 22.0.0, SVG Export Plug-In . SVG Version: 6.00 Build 0)  -->
<svg version="1.1" id="Layer_1" xmlns="http://www.w3.org/2000/svg" xmlns:xlink="http://www.w3.org/1999/xlink" x="0px" y="0px"
	 viewBox="0 0 48 48" style="enable-background:new 0 0 48 48;" xml:space="preserve">
<style type="text/css">
	.st0{fill:url(#Shape_1_);}
	.st1{fill:none;}
	.st2{fill:#FFFFFF;}
	.st3{fill:#F65136;}
</style>
<g id="Layer_1_1_">
	<title>icons/48/bulb_on/on</title>
	<desc>Created with Sketch.</desc>
	<g id="Symbols">
		<g id="icons_x2F_48_x2F_bulb_x5F_on_x2F_on">
			
				<linearGradient id="Shape_1_" gradientUnits="userSpaceOnUse" x1="-1827" y1="23.3673" x2="-1827" y2="24.4091" gradientTransform="matrix(44 0 0 44 80412 -1028)">
				<stop  offset="0" style="stop-color:#000000"/>
				<stop  offset="1" style="stop-color:#000000"/>
			</linearGradient>
			<path id="Shape" class="st0" d="M8.9,2C8.7,2,8.6,2.1,8.4,2.2c-0.3,0.3-0.3,0.7,0,0.9c0.3,0.3,0.7,0.3,0.9,0
				c0.3-0.3,0.3-0.7,0-0.9C9.3,2.1,9.1,2,8.9,2z M39.1,2c-0.2,0-0.3,0.1-0.5,0.2c-0.3,0.3-0.3,0.7,0,0.9c0.3,0.3,0.7,0.3,0.9,0
				c0.3-0.3,0.3-0.7,0-0.9C39.4,2.1,39.3,2,39.1,2z M24,2.4c-8.5,0-15.3,6.8-15.3,15.2c0,4.8,2.1,7.8,4.2,10.1c1,1.1,2,2.1,2.7,3
				s1.1,1.8,1.1,2.7V40c0,1.8,1.5,3.3,3.3,3.3h0.7C21,44.9,22.4,46,24,46s3-1.1,3.3-2.6H28c1.8,0,3.3-1.5,3.3-3.3v-6.6
				c0-1,0.4-1.8,1.1-2.7c0.7-0.9,1.7-1.9,2.7-3c2-2.3,4.2-5.3,4.2-10.1C39.3,9.2,32.5,2.4,24,2.4z M24,3.7c7.7,0,14,6.2,14,13.9
				c0,4.4-1.9,7-3.8,9.2c-1,1.1-2,2.1-2.8,3.1S30,32.1,30,33.4v0.7h-3.3V20.8c1.1-0.3,2-1.3,2-2.5c0-1.5-1.2-2.6-2.7-2.6
				c-0.8,0-1.5,0.4-2,0.9c-0.5-0.6-1.2-0.9-2-0.9c-1.5,0-2.7,1.2-2.7,2.6c0,1.2,0.9,2.2,2,2.5v13.3H18v-0.7c0-1.3-0.6-2.5-1.4-3.5
				c-0.8-1-1.8-2-2.8-3.1c-2-2.2-3.8-4.8-3.8-9.2C10,9.9,16.3,3.7,24,3.7z M11.3,4.3c-0.2,0-0.3,0.1-0.5,0.2c-0.3,0.3-0.3,0.7,0,0.9
				c0.3,0.3,0.7,0.3,0.9,0c0.3-0.3,0.3-0.7,0-0.9C11.6,4.4,11.4,4.3,11.3,4.3z M36.7,4.3c-0.2,0-0.3,0.1-0.5,0.2
				c-0.3,0.3-0.3,0.7,0,0.9c0.3,0.3,0.7,0.3,0.9,0c0.3-0.3,0.3-0.7,0-0.9C37.1,4.4,36.9,4.3,36.7,4.3z M9.2,7C8.9,7,8.6,7.1,8.5,7.3
				C8.3,7.6,8.4,8,8.7,8.2s0.7,0.2,0.9-0.1c0.2-0.3,0.1-0.7-0.2-0.9C9.3,7.1,9.2,7.1,9.2,7z M38.8,7c-0.1,0-0.2,0-0.2,0.1
				c-0.3,0.2-0.4,0.6-0.2,0.9s0.6,0.4,0.9,0.2c0.3-0.2,0.4-0.6,0.2-0.9C39.4,7.1,39.1,7,38.8,7z M4.3,8.9C4,8.9,3.8,9,3.7,9.3
				C3.5,9.6,3.7,10,4,10.1s0.7,0,0.9-0.4C5,9.4,4.9,9,4.5,8.9C4.5,8.9,4.4,8.9,4.3,8.9z M43.7,8.9c-0.1,0-0.2,0-0.3,0
				C43.1,9,43,9.4,43.1,9.8s0.5,0.5,0.9,0.4c0.3-0.1,0.5-0.5,0.4-0.9C44.2,9,44,8.9,43.7,8.9z M7.4,10.1c-0.3,0-0.5,0.2-0.6,0.4
				c-0.1,0.3,0,0.7,0.4,0.9c0.3,0.1,0.7,0,0.9-0.4c0.1-0.3,0-0.7-0.4-0.9C7.5,10.1,7.5,10.1,7.4,10.1z M40.6,10.1
				c-0.1,0-0.2,0-0.3,0.1C40,10.3,39.9,10.7,40,11s0.5,0.5,0.9,0.4c0.3-0.1,0.5-0.5,0.4-0.9C41.1,10.3,40.9,10.1,40.6,10.1z
				 M6.5,13.5c-0.4-0.1-0.7,0.2-0.8,0.5c-0.1,0.4,0.2,0.7,0.5,0.8c0.4,0.1,0.7-0.2,0.8-0.5C7.1,13.9,6.8,13.5,6.5,13.5z M41.5,13.5
				c-0.4,0.1-0.6,0.4-0.5,0.8c0.1,0.4,0.4,0.6,0.8,0.5c0.4-0.1,0.6-0.4,0.5-0.8C42.2,13.6,41.9,13.4,41.5,13.5z M2.7,16.9
				c-0.4,0-0.7,0.3-0.7,0.7s0.3,0.7,0.7,0.7s0.7-0.3,0.7-0.7S3,16.9,2.7,16.9z M6,16.9c-0.4,0-0.7,0.3-0.7,0.7s0.3,0.7,0.7,0.7
				s0.7-0.3,0.7-0.7S6.4,16.9,6,16.9z M22,16.9c0.7,0,1.3,0.6,1.3,1.3h1.3c0-0.7,0.6-1.3,1.3-1.3c0.7,0,1.3,0.6,1.3,1.3
				c0,0.7-0.6,1.3-1.3,1.3h-0.7V34h-2.7V19.6H22c-0.7,0-1.3-0.6-1.3-1.3C20.7,17.5,21.3,16.9,22,16.9z M42,16.9
				c-0.4,0-0.7,0.3-0.7,0.7s0.3,0.7,0.7,0.7s0.7-0.3,0.7-0.7S42.4,16.9,42,16.9z M45.3,16.9c-0.4,0-0.7,0.3-0.7,0.7s0.3,0.7,0.7,0.7
				S46,18,46,17.6S45.7,16.9,45.3,16.9z M6.2,20.4c-0.4,0.1-0.6,0.4-0.5,0.8s0.4,0.6,0.8,0.5c0.3,0,0.6-0.4,0.5-0.7
				C6.9,20.6,6.6,20.4,6.2,20.4z M41.5,20.4c-0.3,0.1-0.5,0.3-0.5,0.5c-0.1,0.4,0.2,0.7,0.5,0.8c0.4,0.1,0.7-0.2,0.8-0.5
				c0.1-0.4-0.2-0.7-0.5-0.8C41.7,20.4,41.6,20.4,41.5,20.4z M7.4,23.8c-0.1,0-0.2,0-0.3,0c-0.3,0.1-0.5,0.5-0.4,0.9
				C6.9,25,7.3,25.2,7.6,25C8,24.9,8.1,24.5,8,24.2C7.9,23.9,7.6,23.8,7.4,23.8z M40.6,23.8c-0.3,0-0.5,0.2-0.6,0.4
				c-0.1,0.3,0,0.7,0.4,0.9c0.3,0.1,0.7,0,0.9-0.4c0.1-0.3,0-0.7-0.4-0.9C40.8,23.8,40.7,23.8,40.6,23.8z M4.3,25
				c-0.1,0-0.2,0-0.3,0.1c-0.3,0.1-0.5,0.5-0.4,0.9c0.1,0.3,0.5,0.5,0.9,0.4c0.3-0.1,0.5-0.5,0.4-0.9C4.8,25.2,4.6,25,4.3,25z
				 M43.7,25c-0.3,0-0.5,0.2-0.6,0.4c-0.1,0.3,0,0.7,0.4,0.9c0.3,0.1,0.7,0,0.9-0.4s0-0.7-0.4-0.9C43.9,25,43.8,25,43.7,25z
				 M8.9,26.9c-0.1,0-0.2,0.1-0.2,0.1c-0.3,0.2-0.4,0.6-0.2,0.9s0.6,0.4,0.9,0.2c0.3-0.2,0.4-0.6,0.2-0.9
				C9.4,26.9,9.2,26.8,8.9,26.9z M39.1,26.9c-0.3,0-0.5,0.1-0.7,0.3c-0.2,0.3-0.1,0.7,0.2,0.9c0.3,0.2,0.7,0.1,0.9-0.2
				c0.2-0.3,0.1-0.7-0.2-0.9C39.3,26.9,39.2,26.9,39.1,26.9z M11.3,29.6c-0.2,0-0.3,0.1-0.5,0.2c-0.3,0.3-0.3,0.7,0,0.9
				c0.3,0.3,0.7,0.3,0.9,0c0.3-0.3,0.3-0.7,0-0.9C11.6,29.6,11.4,29.6,11.3,29.6z M36.7,29.6c-0.2,0-0.3,0.1-0.5,0.2
				c-0.3,0.3-0.3,0.7,0,0.9c0.3,0.3,0.7,0.3,0.9,0c0.3-0.3,0.3-0.7,0-0.9C37.1,29.6,36.9,29.6,36.7,29.6z M39.1,31.9
				c-0.2,0-0.3,0.1-0.5,0.2c-0.3,0.3-0.3,0.7,0,0.9c0.3,0.3,0.7,0.3,0.9,0c0.3-0.3,0.3-0.7,0-0.9C39.4,32,39.3,31.9,39.1,31.9z
				 M8.9,31.9c-0.2,0-0.3,0.1-0.5,0.2c-0.3,0.3-0.3,0.7,0,0.9c0.3,0.3,0.7,0.3,0.9,0c0.3-0.3,0.3-0.7,0-0.9
				C9.3,32,9.1,31.9,8.9,31.9z M18,35.4h12v1.3h-8V38h8v1.3h-8v1.3h7.9c-0.3,0.8-1,1.3-1.9,1.3h-8c-0.9,0-1.6-0.5-1.9-1.3h2.5v-1.3
				H18V38h2.7v-1.3H18V35.4z M22.1,43.4h3.8c-0.3,0.8-1,1.3-1.9,1.3S22.4,44.1,22.1,43.4z"/>
			<rect id="Rectangle" class="st1" width="48" height="48"/>
		</g>
	</g>
</g>
<g id="Layer_2_1_">
	<circle class="st2" cx="34.1" cy="34" r="11.2"/>
	<rect x="27" y="32" transform="matrix(0.7198 -0.6942 0.6942 0.7198 -13.7774 33.1303)" class="st3" width="14.3" height="3.2"/>
	
		<rect x="32.6" y="26.4" transform="matrix(0.7198 -0.6942 0.6942 0.7198 -13.7245 33.1367)" class="st3" width="3.2" height="14.3"/>
</g>
</svg>
