<?xml version="1.0" encoding="UTF-8"?>
<svg width="48px" height="48px" viewBox="0 0 48 48" version="1.1" xmlns="http://www.w3.org/2000/svg" xmlns:xlink="http://www.w3.org/1999/xlink">
    <!-- Generator: Sketch 47.1 (45422) - http://www.bohemiancoding.com/sketch -->
    <title>icons/48/door_sensor/on</title>
    <desc>Created with Sketch.</desc>
    <defs>
        <linearGradient x1="50%" y1="-4.16739522%" x2="50%" y2="100%" id="linearGradient-1">
            <stop stop-color="#61E4F8" offset="0%"></stop>
            <stop stop-color="#4AC6E0" offset="100%"></stop>
        </linearGradient>
    </defs>
    <g id="Symbols" stroke="none" stroke-width="1" fill="none" fill-rule="evenodd">
        <g id="icons/48/door_sensor/on" fill-rule="nonzero" fill="url(#linearGradient-1)">
            <path d="M26.0659019,2.00052916 C25.9087702,2.00321453 25.7489288,2.02201353 25.5917964,2.06229691 L11.7208286,5.49979691 C10.7942917,5.72806822 10.146799,6.55253128 10.146799,7.50052916 L10.146799,39.7270917 C10.146799,40.6777756 10.7942917,41.4995526 11.7208286,41.7278239 L25.5917964,45.1653239 C25.7624745,45.2082927 25.9331525,45.2270917 26.101121,45.2270917 C26.5589718,45.2270917 27.0086942,45.0793864 27.3771418,44.7893473 C27.8864664,44.3972578 28.1790571,43.8037522 28.1790571,43.1645917 L28.1790571,40.1138104 L35.8080894,40.1138104 C36.9540699,40.1138104 37.8887345,39.1872969 37.8887345,38.0513104 L37.8887345,9.17631041 C37.8887345,8.04032391 36.9540699,7.11381041 35.8080894,7.11381041 L28.1790571,7.11381041 L28.1790571,4.06302916 C28.1790571,3.42386935 27.8864664,2.83036297 27.3771418,2.4355881 C26.9978575,2.14286297 26.5372984,1.98978697 26.0659019,2.00052916 Z M26.0875753,3.37552916 C26.2447077,3.37284378 26.3991304,3.42118328 26.523752,3.52054903 C26.6944301,3.65214066 26.7919603,3.85087078 26.7919603,4.06302916 L26.7919603,43.1645917 C26.7919603,43.37675 26.6944301,43.5754802 26.523752,43.7070725 C26.3557836,43.8386641 26.1390497,43.8816328 25.9304435,43.8306073 L15.516381,41.2524823 C15.624748,41.1289475 15.6951861,40.9758708 15.6951861,40.8013104 C15.6951861,40.4199631 15.383631,40.1138104 15.0016378,40.1138104 L13.614541,40.1138104 C13.2975679,40.1138104 13.0401962,40.3286542 12.9589214,40.6186932 L12.0594758,40.3931073 C11.7506297,40.317912 11.5338958,40.0439865 11.5338958,39.7270917 L11.5338958,7.50052916 C11.5338958,7.18363497 11.7506297,6.90970885 12.0594758,6.83451353 L12.9589214,6.6089276 C13.0401962,6.89896666 13.2975679,7.11381041 13.614541,7.11381041 L15.0016378,7.11381041 C15.383631,7.11381041 15.6951861,6.80765841 15.6951861,6.42631041 C15.6951861,6.25175003 15.624748,6.09867403 15.516381,5.97513853 L25.9304435,3.39701353 C25.9819173,3.38358597 26.0361008,3.37552916 26.0875753,3.37552916 Z M28.1790571,8.48881041 L35.8080894,8.48881041 C36.1900826,8.48881041 36.5016378,8.79764847 36.5016378,9.17631041 L36.5016378,38.0513104 C36.5016378,38.4299723 36.1900826,38.7388104 35.8080894,38.7388104 L28.1790571,38.7388104 L28.1790571,8.48881041 Z M13.614541,9.17631041 C13.2325477,9.17631041 12.9209926,9.4824631 12.9209926,9.86381041 C12.9209926,10.2451584 13.2325477,10.5513104 13.614541,10.5513104 L15.0016378,10.5513104 C15.383631,10.5513104 15.6951861,10.2451584 15.6951861,9.86381041 C15.6951861,9.4824631 15.383631,9.17631041 15.0016378,9.17631041 L13.614541,9.17631041 Z M13.614541,12.6138104 C13.2325477,12.6138104 12.9209926,12.9199631 12.9209926,13.3013104 C12.9209926,13.6826584 13.2325477,13.9888104 13.614541,13.9888104 L15.0016378,13.9888104 C15.383631,13.9888104 15.6951861,13.6826584 15.6951861,13.3013104 C15.6951861,12.9199631 15.383631,12.6138104 15.0016378,12.6138104 L13.614541,12.6138104 Z M5.14837432,13.3013104 C4.87745698,13.3120526 4.62821303,13.4758708 4.5225551,13.7417401 C3.55538037,16.255412 3,19.8513594 3,23.611125 C3,27.373576 3.55538037,30.9722088 4.5252641,33.4831953 C4.63092203,33.7571208 4.89371168,33.9263104 5.17275671,33.9263104 C5.25674126,33.9263104 5.34072581,33.9128828 5.42200066,33.8806563 C5.77961155,33.7463786 5.95841734,33.3489177 5.82295832,32.9917401 C4.90996706,30.6311442 4.38709677,27.2124432 4.38709677,23.6138104 C4.38709677,20.0124922 4.90996706,16.5964766 5.82024932,14.2358807 C5.95570765,13.8787032 5.77961155,13.4812422 5.42200066,13.3469645 C5.33259811,13.314738 5.23777687,13.298625 5.14837432,13.3013104 Z M42.7679556,13.3013104 C42.6785531,13.298625 42.5864415,13.3120526 42.4970383,13.3469645 C42.1394274,13.4812422 41.9606223,13.8787032 42.0960806,14.2358807 C43.0063629,16.5964766 43.5319429,20.0124922 43.5319429,23.6138104 C43.5319429,27.2124432 43.0063629,30.6338303 42.0960806,32.9944255 C41.9606223,33.3489177 42.1367184,33.7463786 42.4943293,33.8833417 C42.5756048,33.9128828 42.6622984,33.9263104 42.7435732,33.9263104 C43.0226183,33.9263104 43.2854079,33.7598068 43.3910659,33.4858807 C44.3609496,30.9722088 44.9190396,27.373576 44.9190396,23.6138104 C44.9190396,19.8513594 44.3609496,16.255412 43.3937749,13.7417401 C43.2908266,13.4758708 43.038873,13.3120526 42.7679556,13.3013104 Z M7.71396169,16.0513104 C7.44304435,16.0593672 7.19109071,16.2258708 7.08814247,16.4917401 C6.38646639,18.3098552 5.98550873,20.9040938 5.98550873,23.6138104 C5.98550873,26.323527 6.38646639,28.9177657 7.08814247,30.7358807 C7.1938004,31.0098068 7.45659005,31.1763104 7.73563508,31.1763104 C7.81690994,31.1763104 7.90360348,31.1628828 7.98487903,31.1306563 C8.34248992,30.9963786 8.51858602,30.5989177 8.383127,30.2417401 C7.74105308,28.576701 7.3726055,26.1597088 7.3726055,23.6138104 C7.3726055,21.0652266 7.74105308,18.6509198 8.383127,16.9858807 C8.51858602,16.6287032 8.34248992,16.2312422 7.98487903,16.0969645 C7.89547579,16.0620526 7.80336424,16.048625 7.71396169,16.0513104 Z M13.614541,16.0513104 C13.2325477,16.0513104 12.9209926,16.3574631 12.9209926,16.7388104 C12.9209926,17.1201584 13.2325477,17.4263104 13.614541,17.4263104 L15.0016378,17.4263104 C15.383631,17.4263104 15.6951861,17.1201584 15.6951861,16.7388104 C15.6951861,16.3574631 15.383631,16.0513104 15.0016378,16.0513104 L13.614541,16.0513104 Z M40.3595007,16.0513104 C40.2673891,16.048625 40.1752769,16.0620526 40.0858743,16.0969645 C39.7282634,16.2312422 39.5494576,16.6287032 39.6876257,16.9858807 C40.3296996,18.6509198 40.6954382,21.0652266 40.6954382,23.6138104 C40.6954382,26.1623942 40.3269906,28.5793864 39.6849167,30.2444255 C39.5494576,30.5989177 39.7282634,30.9963786 40.0858743,31.1333417 C40.1671492,31.1628828 40.2511337,31.1763104 40.3324093,31.1763104 C40.6114536,31.1763104 40.874244,31.0098068 40.9799012,30.7358807 C41.6815773,28.9177657 42.0825349,26.323527 42.0825349,23.6138104 C42.0825349,20.9040938 41.6842863,18.3098552 40.9826109,16.4917401 C40.879662,16.2258708 40.627709,16.0620526 40.3595007,16.0513104 Z M13.614541,19.4888104 C13.2325477,19.4888104 12.9209926,19.7949631 12.9209926,20.1763104 C12.9209926,20.5576584 13.2325477,20.8638104 13.614541,20.8638104 L15.0016378,20.8638104 C15.383631,20.8638104 15.6951861,20.5576584 15.6951861,20.1763104 C15.6951861,19.7949631 15.383631,19.4888104 15.0016378,19.4888104 L13.614541,19.4888104 Z M23.3242184,20.1763104 C22.1782379,20.1763104 21.2435732,21.1028239 21.2435732,22.2388104 L21.2435732,24.9888104 C21.2435732,26.1247969 22.1782379,27.0513104 23.3242184,27.0513104 C23.7062117,27.0513104 24.0177668,26.7451584 24.0177668,26.3638104 C24.0177668,25.9824631 23.7062117,25.6763104 23.3242184,25.6763104 C22.9422251,25.6763104 22.63067,25.3674723 22.63067,24.9888104 L22.63067,22.2388104 C22.63067,21.8601485 22.9422251,21.5513104 23.3242184,21.5513104 C23.7062117,21.5513104 24.0177668,21.2451584 24.0177668,20.8638104 C24.0177668,20.4824631 23.7062117,20.1763104 23.3242184,20.1763104 Z M13.614541,22.9263104 C13.2325477,22.9263104 12.9209926,23.2324631 12.9209926,23.6138104 C12.9209926,23.9951584 13.2325477,24.3013104 13.614541,24.3013104 L15.0016378,24.3013104 C15.383631,24.3013104 15.6951861,23.9951584 15.6951861,23.6138104 C15.6951861,23.2324631 15.383631,22.9263104 15.0016378,22.9263104 L13.614541,22.9263104 Z M13.614541,26.3638104 C13.2325477,26.3638104 12.9209926,26.6699631 12.9209926,27.0513104 C12.9209926,27.4326584 13.2325477,27.7388104 13.614541,27.7388104 L15.0016378,27.7388104 C15.383631,27.7388104 15.6951861,27.4326584 15.6951861,27.0513104 C15.6951861,26.6699631 15.383631,26.3638104 15.0016378,26.3638104 L13.614541,26.3638104 Z M13.614541,29.8013104 C13.2325477,29.8013104 12.9209926,30.1074631 12.9209926,30.4888104 C12.9209926,30.8701584 13.2325477,31.1763104 13.614541,31.1763104 L15.0016378,31.1763104 C15.383631,31.1763104 15.6951861,30.8701584 15.6951861,30.4888104 C15.6951861,30.1074631 15.383631,29.8013104 15.0016378,29.8013104 L13.614541,29.8013104 Z M13.614541,33.2388104 C13.2325477,33.2388104 12.9209926,33.5449631 12.9209926,33.9263104 C12.9209926,34.3076584 13.2325477,34.6138104 13.614541,34.6138104 L15.0016378,34.6138104 C15.383631,34.6138104 15.6951861,34.3076584 15.6951861,33.9263104 C15.6951861,33.5449631 15.383631,33.2388104 15.0016378,33.2388104 L13.614541,33.2388104 Z M13.614541,36.6763104 C13.2325477,36.6763104 12.9209926,36.9824631 12.9209926,37.3638104 C12.9209926,37.7451584 13.2325477,38.0513104 13.614541,38.0513104 L15.0016378,38.0513104 C15.383631,38.0513104 15.6951861,37.7451584 15.6951861,37.3638104 C15.6951861,36.9824631 15.383631,36.6763104 15.0016378,36.6763104 L13.614541,36.6763104 Z" id="Shape"></path>
        </g>
    </g>
</svg>