<?xml version="1.0" encoding="utf-8"?>
<!-- Generator: Adobe Illustrator 22.0.0, SVG Export Plug-In . SVG Version: 6.00 Build 0)  -->
<svg version="1.1" id="Layer_1" xmlns="http://www.w3.org/2000/svg" xmlns:xlink="http://www.w3.org/1999/xlink" x="0px" y="0px"
	 viewBox="0 0 48 48" style="enable-background:new 0 0 48 48;" xml:space="preserve">
<style type="text/css">
	.st0{fill:#525969;stroke:#525969;stroke-miterlimit:10;}
	.st1{fill:#FFFFFF;}
	.st2{fill:#17BB5D;}
</style>
<title>icons/48/door_sensor/on</title>
<desc>Created with Sketch.</desc>
<g id="Symbols">
	<g id="icons_x2F_48_x2F_door_x5F_sensor_x2F_on">
		<path id="Shape" class="st0" d="M26.1,2c-0.2,0-0.3,0-0.5,0.1L11.7,5.5c-0.9,0.2-1.6,1.1-1.6,2v32.2c0,1,0.6,1.8,1.6,2l13.9,3.4
			c0.2,0,0.3,0.1,0.5,0.1c0.5,0,0.9-0.1,1.3-0.4c0.5-0.4,0.8-1,0.8-1.6v-3.1h7.6c1.1,0,2.1-0.9,2.1-2.1V9.2c0-1.1-0.9-2.1-2.1-2.1
			h-7.6v-3c0-0.6-0.3-1.2-0.8-1.6C27,2.1,26.5,2,26.1,2z M26.1,3.4c0.2,0,0.3,0,0.4,0.1c0.2,0.1,0.3,0.3,0.3,0.5v39.1
			c0,0.2-0.1,0.4-0.3,0.5c-0.2,0.1-0.4,0.2-0.6,0.1l-10.4-2.6c0.1-0.1,0.2-0.3,0.2-0.5c0-0.4-0.3-0.7-0.7-0.7h-1.4
			c-0.3,0-0.6,0.2-0.7,0.5L12,40.2c-0.3-0.1-0.5-0.3-0.5-0.7v-32c0-0.3,0.2-0.6,0.5-0.7l1-0.2c0.1,0.3,0.3,0.5,0.7,0.5H15
			c0.4,0,0.7-0.3,0.7-0.7c0-0.2-0.1-0.3-0.2-0.5l10.4-2.6C26,3.4,26,3.4,26.1,3.4z M28.2,8.5h7.6c0.4,0,0.7,0.3,0.7,0.7v28.9
			c0,0.4-0.3,0.7-0.7,0.7h-7.6C28.2,38.8,28.2,8.5,28.2,8.5z M13.6,9.2c-0.4,0-0.7,0.3-0.7,0.7s0.3,0.7,0.7,0.7H15
			c0.4,0,0.7-0.3,0.7-0.7S15.4,9.2,15,9.2H13.6z M13.6,12.6c-0.4,0-0.7,0.3-0.7,0.7s0.3,0.7,0.7,0.7H15c0.4,0,0.7-0.3,0.7-0.7
			s-0.3-0.7-0.7-0.7H13.6z M5.1,13.3c-0.3,0-0.5,0.2-0.6,0.4c-1,2.5-1.5,6.1-1.5,9.9s0.6,7.4,1.5,9.9c0.1,0.3,0.4,0.4,0.6,0.4
			c0.1,0,0.2,0,0.2,0C5.8,33.7,6,33.3,5.8,33c-0.9-2.4-1.4-5.8-1.4-9.4s0.5-7,1.4-9.4c0.1-0.4,0-0.8-0.4-0.9
			C5.3,13.3,5.2,13.3,5.1,13.3z M42.8,13.3c-0.1,0-0.2,0-0.3,0c-0.4,0.1-0.5,0.5-0.4,0.9c0.9,2.4,1.4,5.8,1.4,9.4s-0.5,7-1.4,9.4
			c-0.1,0.4,0,0.8,0.4,0.9c0.1,0,0.2,0,0.2,0c0.3,0,0.5-0.2,0.6-0.4c1-2.5,1.5-6.1,1.5-9.9s-0.6-7.4-1.5-9.9
			C43.3,13.5,43,13.3,42.8,13.3z M7.7,16.1c-0.3,0-0.5,0.2-0.6,0.4C6.4,18.3,6,20.9,6,23.6s0.4,5.3,1.1,7.1c0.1,0.3,0.4,0.4,0.6,0.4
			c0.1,0,0.2,0,0.2,0c0.4-0.1,0.5-0.5,0.4-0.9c-0.6-1.7-1-4.1-1-6.6s0.4-5,1-6.6c0.1-0.4,0-0.8-0.4-0.9C7.9,16.1,7.8,16,7.7,16.1z
			 M13.6,16.1c-0.4,0-0.7,0.3-0.7,0.7c0,0.4,0.3,0.7,0.7,0.7H15c0.4,0,0.7-0.3,0.7-0.7c0-0.4-0.3-0.7-0.7-0.7H13.6z M40.4,16.1
			c-0.1,0-0.2,0-0.3,0c-0.4,0.1-0.5,0.5-0.4,0.9c0.6,1.7,1,4.1,1,6.6s-0.4,5-1,6.6c-0.1,0.4,0,0.8,0.4,0.9c0.1,0,0.2,0,0.2,0
			c0.3,0,0.5-0.2,0.6-0.4c0.7-1.8,1.1-4.4,1.1-7.1s-0.4-5.3-1.1-7.1C40.9,16.2,40.6,16.1,40.4,16.1z M13.6,19.5
			c-0.4,0-0.7,0.3-0.7,0.7c0,0.4,0.3,0.7,0.7,0.7H15c0.4,0,0.7-0.3,0.7-0.7c0-0.4-0.3-0.7-0.7-0.7H13.6z M23.3,20.2
			c-1.1,0-2.1,0.9-2.1,2.1V25c0,1.1,0.9,2.1,2.1,2.1c0.4,0,0.7-0.3,0.7-0.7c0-0.4-0.3-0.7-0.7-0.7c-0.4,0-0.7-0.3-0.7-0.7v-2.8
			c0-0.4,0.3-0.7,0.7-0.7c0.4,0,0.7-0.3,0.7-0.7C24,20.5,23.7,20.2,23.3,20.2z M13.6,22.9c-0.4,0-0.7,0.3-0.7,0.7
			c0,0.4,0.3,0.7,0.7,0.7H15c0.4,0,0.7-0.3,0.7-0.7c0-0.4-0.3-0.7-0.7-0.7H13.6z M13.6,26.4c-0.4,0-0.7,0.3-0.7,0.7
			c0,0.4,0.3,0.7,0.7,0.7H15c0.4,0,0.7-0.3,0.7-0.7c0-0.4-0.3-0.7-0.7-0.7H13.6z M13.6,29.8c-0.4,0-0.7,0.3-0.7,0.7
			c0,0.4,0.3,0.7,0.7,0.7H15c0.4,0,0.7-0.3,0.7-0.7c0-0.4-0.3-0.7-0.7-0.7H13.6z M13.6,33.2c-0.4,0-0.7,0.3-0.7,0.7s0.3,0.7,0.7,0.7
			H15c0.4,0,0.7-0.3,0.7-0.7s-0.3-0.7-0.7-0.7H13.6z M13.6,36.7c-0.4,0-0.7,0.3-0.7,0.7s0.3,0.7,0.7,0.7H15c0.4,0,0.7-0.3,0.7-0.7
			s-0.3-0.7-0.7-0.7H13.6z"/>
	</g>
</g>
<circle class="st1" cx="36.7" cy="36.8" r="10.4"/>
<rect x="35.3" y="30.3" class="st2" width="3" height="13.3"/>
<rect x="30.2" y="35.4" class="st2" width="13.3" height="3"/>
</svg>
