<?xml version="1.0" encoding="UTF-8"?>
<svg width="48px" height="48px" viewBox="0 0 48 48" version="1.1" xmlns="http://www.w3.org/2000/svg" xmlns:xlink="http://www.w3.org/1999/xlink">
    <!-- Generator: Sketch 52.6 (67491) - http://www.bohemiancoding.com/sketch -->
    <title>icons/48/gateway/factory reset</title>
    <desc>Created with Sketch.</desc>
    <defs>
        <rect id="path-1" x="0" y="0" width="48" height="48"></rect>
    </defs>
    <g id="icons/48/gateway/factory-reset" stroke="none" stroke-width="1" fill="none" fill-rule="evenodd">
        <g id="Shape-+-Combined-Shape-+-Combined-Shape-Mask">
            <mask id="mask-2" fill="white">
                <use xlink:href="#path-1"></use>
            </mask>
            <g id="Mask" fill-rule="nonzero"></g>
            <path d="M14.5,26 C14.8007815,26 15,26.3061527 15,26.6875 L15,28.0625 C15,28.443848 14.8007815,28.75 14.5,28.75 C14.199219,28.75 14,28.4411619 14,28.0625 L14,26.6875 C14,26.3061527 14.199219,26 14.5,26 Z M17.5,26 C17.8007815,26 18,26.3061527 18,26.6875 L18,28.0625 C18,28.443848 17.8007815,28.75 17.5,28.75 C17.199219,28.75 17,28.4411619 17,28.0625 L17,26.6875 C17,26.3061527 17.199219,26 17.5,26 Z M20.5,26 C20.8007815,26 21,26.3061527 21,26.6875 L21,28.0625 C21,28.443848 20.8007815,28.75 20.5,28.75 C20.199219,28.75 20,28.4411619 20,28.0625 L20,26.6875 C20,26.3061527 20.199219,26 20.5,26 Z M26.5,26 C26.8007815,26 27,26.3061527 27,26.6875 L27,28.0625 C27,28.443848 26.8007815,28.75 26.5,28.75 C26.199219,28.75 26,28.4411619 26,28.0625 L26,26.6875 C26,26.3061527 26.199219,26 26.5,26 Z M23.5,26 C23.8007815,26 24,26.3061527 24,26.6875 L24,28.0625 C24,28.443848 23.8007815,28.75 23.5,28.75 C23.199219,28.75 23,28.4411619 23,28.0625 L23,26.6875 C23,26.3061527 23.199219,26 23.5,26 Z M11.3420194,4 L29.3420194,4 L29.3420194,25 L11.3420194,25 L11.3420194,4 Z M25.3678278,36.4143397 C25.3060245,35.8787111 25.3575273,35.3616235 25.4976148,34.883678 C25.9631996,33.2953331 27.4238177,32.1272507 29.1563703,32.1066496 L29.1563703,31.0683541 C29.1563703,31.010671 29.2284741,30.9797694 29.2758566,31.0147912 L31.4121908,32.5845951 C31.4472127,32.6113766 31.4472127,32.6649394 31.4121908,32.6896607 L29.2779168,34.2594646 C29.2284741,34.2944865 29.1584304,34.2635848 29.1584304,34.2059017 L29.1584304,33.1696664 C28.0191895,33.1882074 27.0468175,33.8907049 26.6286152,34.883678 C26.4699867,35.258618 26.3896424,35.6727001 26.4123036,36.1073833 C26.4432053,36.7048153 26.6677573,37.2548647 27.0220962,37.6998484 C27.2116263,37.9367611 27.1663039,38.2828596 26.9211508,38.4620892 C26.6883584,38.6330783 26.362861,38.5856958 26.1836314,38.3590837 C25.744828,37.8110944 25.4522923,37.1436187 25.3678278,36.4143397 Z M31.5357974,34.4201532 C31.3462673,34.1832405 31.3915897,33.837142 31.6346827,33.6579125 C31.8674751,33.4869233 32.1909124,33.5343059 32.3722021,33.760918 C32.8110055,34.3089073 33.1035412,34.9763829 33.1859456,35.7056619 C33.2456888,36.2412905 33.1962461,36.7583781 33.0561586,37.2363237 C32.5926339,38.8267286 31.1299557,39.9948111 29.3974031,40.013352 L29.3974031,41.0516475 C29.3974031,41.1093306 29.3273594,41.1402323 29.2779168,41.1052104 L27.1436427,39.5354065 C27.1086208,39.5106852 27.1086208,39.4571223 27.1436427,39.4303409 L29.2799769,37.860537 C29.3273594,37.8255151 29.3994632,37.8564168 29.3994632,37.9140999 L29.3994632,38.9503352 C30.5387041,38.9338544 31.5110761,38.2292967 31.9292784,37.2363237 C32.0858468,36.8634437 32.1682512,36.4493616 32.14559,36.0126183 C32.1167484,35.4151864 31.8921964,34.8630769 31.5357974,34.4201532 Z" id="Shape" fill="#5E5F63" mask="url(#mask-2)"></path>
            <path d="M36.3,36.15 C36.3,39.917174 33.3865934,43.0038854 29.69,43.2799144 L29.69,44 C29.69,45.1045695 28.7945695,46 27.69,46 L13,46 C11.8954305,46 11,45.1045695 11,44 L11,5 C11,3.8954305 11.8954305,3 13,3 L27.69,3 C28.7945695,3 29.69,3.8954305 29.69,5 L29.69,29.0200856 C33.3865934,29.2961146 36.3,32.382826 36.3,36.15 Z M29.6155361,30.0173093 L28.69,29.9481984 L28.69,5 C28.69,4.44771525 28.2422847,4 27.69,4 L13,4 C12.4477153,4 12,4.44771525 12,5 L12,44 C12,44.5522847 12.4477153,45 13,45 L27.69,45 C28.2422847,45 28.69,44.5522847 28.69,44 L28.69,42.3518016 L29.6155361,42.2826907 C32.8105427,42.0441158 35.3,39.3734481 35.3,36.15 C35.3,32.9265519 32.8105427,30.2558842 29.6155361,30.0173093 Z" id="Combined-Shape" fill="#5E5F63" mask="url(#mask-2)"></path>
            <path d="M28.69,5 C28.69,4.44771525 28.2422847,4 27.69,4 L13,4 C12.4477153,4 12,4.44771525 12,5 L12,44 C12,44.5522847 12.4477153,45 13,45 L27.69,45 C28.2422847,45 28.69,44.5522847 28.69,44 L28.69,43.2854408 C24.9555279,43.0483168 22,39.9443087 22,36.15 C22,32.3556913 24.9555279,29.2516832 28.69,29.0145592 L28.69,5 Z M29.15,30 C25.7534488,30 23,32.7534488 23,36.15 C23,39.5465512 25.7534488,42.3 29.15,42.3 C29.3319537,42.3 29.5120618,42.2920983 29.69,42.2766192 L29.69,44 C29.69,45.1045695 28.7945695,46 27.69,46 L13,46 C11.8954305,46 11,45.1045695 11,44 L11,5 C11,3.8954305 11.8954305,3 13,3 L27.69,3 C28.7945695,3 29.69,3.8954305 29.69,5 L29.69,30.0233808 C29.5120618,30.0079017 29.3319537,30 29.15,30 Z" id="Combined-Shape" fill="#5E5F63" mask="url(#mask-2)"></path>
        </g>
    </g>
</svg>