<?xml version="1.0" encoding="UTF-8"?>
<svg width="48px" height="48px" viewBox="0 0 48 48" version="1.1" xmlns="http://www.w3.org/2000/svg" xmlns:xlink="http://www.w3.org/1999/xlink">
    <!-- Generator: Sketch 52.6 (67491) - http://www.bohemiancoding.com/sketch -->
    <title>icons/48/gateway/firmware upgrade</title>
    <desc>Created with Sketch.</desc>
    <defs>
        <rect id="path-1" x="0" y="0" width="48" height="48"></rect>
    </defs>
    <g id="icons/48/gateway/firmware-upgrade" stroke="none" stroke-width="1" fill="none" fill-rule="evenodd">
        <g id="Shape-+-Combined-Shape-+-Combined-Shape-Mask">
            <mask id="mask-2" fill="white">
                <use xlink:href="#path-1"></use>
            </mask>
            <g id="Mask" fill-rule="nonzero"></g>
            <path d="M14.5,26 C14.8007815,26 15,26.3061527 15,26.6875 L15,28.0625 C15,28.443848 14.8007815,28.75 14.5,28.75 C14.199219,28.75 14,28.4411619 14,28.0625 L14,26.6875 C14,26.3061527 14.199219,26 14.5,26 Z M17.5,26 C17.8007815,26 18,26.3061527 18,26.6875 L18,28.0625 C18,28.443848 17.8007815,28.75 17.5,28.75 C17.199219,28.75 17,28.4411619 17,28.0625 L17,26.6875 C17,26.3061527 17.199219,26 17.5,26 Z M20.5,26 C20.8007815,26 21,26.3061527 21,26.6875 L21,28.0625 C21,28.443848 20.8007815,28.75 20.5,28.75 C20.199219,28.75 20,28.4411619 20,28.0625 L20,26.6875 C20,26.3061527 20.199219,26 20.5,26 Z M26.5,26 C26.8007815,26 27,26.3061527 27,26.6875 L27,28.0625 C27,28.443848 26.8007815,28.75 26.5,28.75 C26.199219,28.75 26,28.4411619 26,28.0625 L26,26.6875 C26,26.3061527 26.199219,26 26.5,26 Z M23.5,26 C23.8007815,26 24,26.3061527 24,26.6875 L24,28.0625 C24,28.443848 23.8007815,28.75 23.5,28.75 C23.199219,28.75 23,28.4411619 23,28.0625 L23,26.6875 C23,26.3061527 23.199219,26 23.5,26 Z M27.2714286,39.7 L27.2714286,36.3769231 L24.7,36.3769231 L29.2,32.5 L33.7,36.3769231 L31.1285714,36.3769231 L31.1285714,39.7 L27.2714286,39.7 Z M11.3420194,4 L29.3420194,4 L29.3420194,25 L11.3420194,25 L11.3420194,4 Z" id="Shape" fill="#5E5F63" mask="url(#mask-2)"></path>
            <path d="M36.3,36.15 C36.3,39.917174 33.3865934,43.0038854 29.69,43.2799144 L29.69,44 C29.69,45.1045695 28.7945695,46 27.69,46 L13,46 C11.8954305,46 11,45.1045695 11,44 L11,5 C11,3.8954305 11.8954305,3 13,3 L27.69,3 C28.7945695,3 29.69,3.8954305 29.69,5 L29.69,29.0200856 C33.3865934,29.2961146 36.3,32.382826 36.3,36.15 Z M29.6155361,30.0173093 L28.69,29.9481984 L28.69,5 C28.69,4.44771525 28.2422847,4 27.69,4 L13,4 C12.4477153,4 12,4.44771525 12,5 L12,44 C12,44.5522847 12.4477153,45 13,45 L27.69,45 C28.2422847,45 28.69,44.5522847 28.69,44 L28.69,42.3518016 L29.6155361,42.2826907 C32.8105427,42.0441158 35.3,39.3734481 35.3,36.15 C35.3,32.9265519 32.8105427,30.2558842 29.6155361,30.0173093 Z" id="Combined-Shape" fill="#5E5F63" mask="url(#mask-2)"></path>
            <path d="M28.69,5 C28.69,4.44771525 28.2422847,4 27.69,4 L13,4 C12.4477153,4 12,4.44771525 12,5 L12,44 C12,44.5522847 12.4477153,45 13,45 L27.69,45 C28.2422847,45 28.69,44.5522847 28.69,44 L28.69,43.2854408 C24.9555279,43.0483168 22,39.9443087 22,36.15 C22,32.3556913 24.9555279,29.2516832 28.69,29.0145592 L28.69,5 Z M29.15,30 C25.7534488,30 23,32.7534488 23,36.15 C23,39.5465512 25.7534488,42.3 29.15,42.3 C29.3319537,42.3 29.5120618,42.2920983 29.69,42.2766192 L29.69,44 C29.69,45.1045695 28.7945695,46 27.69,46 L13,46 C11.8954305,46 11,45.1045695 11,44 L11,5 C11,3.8954305 11.8954305,3 13,3 L27.69,3 C28.7945695,3 29.69,3.8954305 29.69,5 L29.69,30.0233808 C29.5120618,30.0079017 29.3319537,30 29.15,30 Z" id="Combined-Shape" fill="#5E5F63" mask="url(#mask-2)"></path>
        </g>
    </g>
</svg>