<?xml version="1.0" encoding="utf-8"?>
<!-- Generator: Adobe Illustrator 22.0.0, SVG Export Plug-In . SVG Version: 6.00 Build 0)  -->
<svg version="1.1" id="Layer_1" xmlns="http://www.w3.org/2000/svg" xmlns:xlink="http://www.w3.org/1999/xlink" x="0px" y="0px"
	 viewBox="0 0 48 48" style="enable-background:new 0 0 48 48;" xml:space="preserve">
<style type="text/css">
	.st0{fill:#525969;}
	.st1{fill:#FFFFFF;}
	.st2{fill:#17BB5D;}
</style>
<g id="Layer_1_1_">
	<title>icons/48/garage/on</title>
	<desc>Created with Sketch.</desc>
	<g id="Symbols">
		<g id="icons_x2F_48_x2F_garage_x2F_on">
			<path id="Shape" class="st0" d="M24,4c-0.3,0-0.7,0.1-1,0.2L3.3,13.9C2.5,14.3,2,15,2,15.9v2.3c0,0.5,0.3,1,0.7,1.3
				c0.5,0.3,1,0.3,1.5,0.1L5,19.2v23.3H2.8c-0.4,0-0.8,0.3-0.8,0.7S2.3,44,2.8,44h42.5c0.4,0,0.8-0.3,0.8-0.7s-0.3-0.7-0.8-0.7H43
				V19.2l0.8,0.4c0.2,0.1,0.4,0.2,0.7,0.2s0.6-0.1,0.8-0.2c0.5-0.3,0.7-0.7,0.7-1.3V16c0-0.8-0.5-1.6-1.3-2L25,4.2
				C24.7,4.1,24.3,4,24,4z M24,5.5c0.1,0,0.2,0,0.3,0.1L44,15.3c0.3,0.1,0.4,0.4,0.4,0.7v2.3L24.7,8.5c-0.2-0.1-0.4-0.2-0.7-0.2
				s-0.5,0-0.7,0.2L3.5,18.2v-2.3c0-0.3,0.2-0.5,0.4-0.7l19.7-9.7C23.8,5.5,23.9,5.5,24,5.5z M24,9.9l17.4,8.6v24.1h-3V25.4
				c0-1.2-1-2.2-2.3-2.2H11.9c-1.3,0-2.3,1-2.3,2.2v17.1h-3V18.4L24,9.9z M8.8,18.7C8.4,18.7,8,19,8,19.4v1.5c0,0.4,0.3,0.7,0.8,0.7
				c0.4,0,0.8-0.3,0.8-0.7v-1.5C9.6,19,9.2,18.7,8.8,18.7z M12.6,18.7c-0.4,0-0.8,0.3-0.8,0.7v1.5c0,0.4,0.3,0.7,0.8,0.7
				c0.4,0,0.8-0.3,0.8-0.7v-1.5C13.4,19,13,18.7,12.6,18.7z M16.4,18.7c-0.4,0-0.8,0.3-0.8,0.7v1.5c0,0.4,0.3,0.7,0.8,0.7
				s0.8-0.3,0.8-0.7v-1.5C17.2,19,16.8,18.7,16.4,18.7z M20.2,18.7c-0.4,0-0.8,0.3-0.8,0.7v1.5c0,0.4,0.3,0.7,0.8,0.7
				c0.4,0,0.8-0.3,0.8-0.7v-1.5C21,19,20.6,18.7,20.2,18.7z M24,18.7c-0.4,0-0.8,0.3-0.8,0.7v1.5c0,0.4,0.3,0.7,0.8,0.7
				s0.8-0.3,0.8-0.7v-1.5C24.8,19,24.4,18.7,24,18.7z M27.8,18.7c-0.4,0-0.8,0.3-0.8,0.7v1.5c0,0.4,0.3,0.7,0.8,0.7s0.8-0.3,0.8-0.7
				v-1.5C28.6,19,28.2,18.7,27.8,18.7z M31.6,18.7c-0.4,0-0.8,0.3-0.8,0.7v1.5c0,0.4,0.3,0.7,0.8,0.7c0.5,0,0.8-0.3,0.8-0.7v-1.5
				C32.3,19,32,18.7,31.6,18.7z M35.4,18.7c-0.4,0-0.8,0.3-0.8,0.7v1.5c0,0.4,0.3,0.7,0.8,0.7c0.4,0,0.8-0.3,0.8-0.7v-1.5
				C36.1,19,35.8,18.7,35.4,18.7z M39.2,18.7c-0.4,0-0.8,0.3-0.8,0.7v1.5c0,0.4,0.3,0.7,0.8,0.7c0.4,0,0.8-0.3,0.8-0.7v-1.5
				C39.9,19,39.6,18.7,39.2,18.7z M11.9,24.7h24.3c0.4,0,0.8,0.3,0.8,0.7v3.7H11.1v-3.7C11.1,25,11.4,24.7,11.9,24.7z M22.5,26.1
				c-0.4,0-0.8,0.3-0.8,0.7c0,0.4,0.3,0.7,0.8,0.7h3c0.4,0,0.8-0.3,0.8-0.7c0-0.4-0.3-0.7-0.8-0.7H22.5z M11.1,30.6h25.8V38H11.1v-3
				h17.4c0.4,0,0.8-0.3,0.8-0.7s-0.3-0.7-0.8-0.7H11.1V30.6z M31.6,33.6c-0.4,0-0.8,0.3-0.8,0.7s0.3,0.7,0.8,0.7h3
				c0.4,0,0.8-0.3,0.8-0.7s-0.3-0.7-0.8-0.7H31.6z M11.1,39.5h25.8v3H11.1V39.5z"/>
		</g>
	</g>
</g>
<g id="Layer_2_1_">
	<circle class="st1" cx="35.8" cy="35.8" r="11.2"/>
	<rect x="34.4" y="29.1" class="st2" width="3" height="13.1"/>
	<rect x="29.3" y="34.1" class="st2" width="13.1" height="3"/>
</g>
</svg>
