<?xml version="1.0" encoding="UTF-8"?>
<svg width="48px" height="48px" viewBox="0 0 48 48" version="1.1" xmlns="http://www.w3.org/2000/svg" xmlns:xlink="http://www.w3.org/1999/xlink">
    <!-- Generator: Sketch 52.6 (67491) - http://www.bohemiancoding.com/sketch -->
    <title>icons/48/gateway/reboot</title>
    <desc>Created with Sketch.</desc>
    <defs>
        <rect id="path-1" x="0" y="0" width="48" height="48"></rect>
        <path d="M28.69,5 C28.69,4.44771525 28.2422847,4 27.69,4 L13,4 C12.4477153,4 12,4.44771525 12,5 L12,44 C12,44.5522847 12.4477153,45 13,45 L27.69,45 C28.2422847,45 28.69,44.5522847 28.69,44 L28.69,43.2854408 C24.9555279,43.0483168 22,39.9443087 22,36.15 C22,32.3556913 24.9555279,29.2516832 28.69,29.0145592 L28.69,5 Z M29.15,30 C25.7534488,30 23,32.7534488 23,36.15 C23,39.5465512 25.7534488,42.3 29.15,42.3 C29.3319537,42.3 29.5120618,42.2920983 29.69,42.2766192 L29.69,44 C29.69,45.1045695 28.7945695,46 27.69,46 L13,46 C11.8954305,46 11,45.1045695 11,44 L11,5 C11,3.8954305 11.8954305,3 13,3 L27.69,3 C28.7945695,3 29.69,3.8954305 29.69,5 L29.69,30.0233808 C29.5120618,30.0079017 29.3319537,30 29.15,30 Z" id="path-3"></path>
    </defs>
    <g id="icons/48/gateway/reboot" stroke="none" stroke-width="1" fill="none" fill-rule="evenodd">
        <g id="Combined-Shape-+-Combined-Shape-+-Combined-Shape-Mask">
            <mask id="mask-2" fill="white">
                <use xlink:href="#path-1"></use>
            </mask>
            <g id="Mask" fill-rule="nonzero"></g>
            <path d="M11.3420194,4 L29.3420194,4 L29.3420194,25 L11.3420194,25 L11.3420194,4 Z M14.5,26 C14.8007815,26 15,26.3061527 15,26.6875 L15,28.0625 C15,28.443848 14.8007815,28.75 14.5,28.75 C14.199219,28.75 14,28.4411619 14,28.0625 L14,26.6875 C14,26.3061527 14.199219,26 14.5,26 Z M17.5,26 C17.8007815,26 18,26.3061527 18,26.6875 L18,28.0625 C18,28.443848 17.8007815,28.75 17.5,28.75 C17.199219,28.75 17,28.4411619 17,28.0625 L17,26.6875 C17,26.3061527 17.199219,26 17.5,26 Z M20.5,26 C20.8007815,26 21,26.3061527 21,26.6875 L21,28.0625 C21,28.443848 20.8007815,28.75 20.5,28.75 C20.199219,28.75 20,28.4411619 20,28.0625 L20,26.6875 C20,26.3061527 20.199219,26 20.5,26 Z M26.5,26 C26.8007815,26 27,26.3061527 27,26.6875 L27,28.0625 C27,28.443848 26.8007815,28.75 26.5,28.75 C26.199219,28.75 26,28.4411619 26,28.0625 L26,26.6875 C26,26.3061527 26.199219,26 26.5,26 Z M23.5,26 C23.8007815,26 24,26.3061527 24,26.6875 L24,28.0625 C24,28.443848 23.8007815,28.75 23.5,28.75 C23.199219,28.75 23,28.4411619 23,28.0625 L23,26.6875 C23,26.3061527 23.199219,26 23.5,26 Z M29.578451,40.5747761 C27.306251,40.8156181 25.3439845,39.3025419 25.0069318,37.2857197 C24.9526935,36.9603072 25.2238853,36.6679875 25.5706234,36.6679875 C25.8495635,36.6679875 26.0916991,36.8591904 26.136252,37.1220943 C26.3764505,38.5377306 27.71885,39.607731 29.2975737,39.5121296 C30.7871916,39.4220436 32.0017435,38.2748267 32.1005348,36.8610289 C32.2167599,35.2174199 30.8530525,33.8422304 29.1503553,33.8164915 L29.1503553,34.8736226 C29.1503553,34.9306157 29.0728719,34.9637085 29.0205707,34.9269387 L26.7231886,33.3256151 C26.6844469,33.2980377 26.6844469,33.2447216 26.7231886,33.2171442 L29.0205707,31.6158206 C29.0728719,31.5790508 29.1503553,31.6103051 29.1503553,31.6691367 L29.1503553,32.7281062 C31.5736479,32.7538451 33.5068581,34.7633132 33.2221067,37.1239327 C33.0051532,38.9293287 31.4806678,40.3725423 29.578451,40.5747761 Z" id="Combined-Shape" fill="#5E5F63" mask="url(#mask-2)"></path>
            <path d="M29.6155361,30.0173093 L28.69,29.9481984 L28.69,5 C28.69,4.44771525 28.2422847,4 27.69,4 L13,4 C12.4477153,4 12,4.44771525 12,5 L12,44 C12,44.5522847 12.4477153,45 13,45 L27.69,45 C28.2422847,45 28.69,44.5522847 28.69,44 L28.69,42.3518016 L29.6155361,42.2826907 C32.8105427,42.0441158 35.3,39.3734481 35.3,36.15 C35.3,32.9265519 32.8105427,30.2558842 29.6155361,30.0173093 Z M36.3,36.15 C36.3,39.917174 33.3865934,43.0038854 29.69,43.2799144 L29.69,44 C29.69,45.1045695 28.7945695,46 27.69,46 L13,46 C11.8954305,46 11,45.1045695 11,44 L11,5 C11,3.8954305 11.8954305,3 13,3 L27.69,3 C28.7945695,3 29.69,3.8954305 29.69,5 L29.69,29.0200856 C33.3865934,29.2961146 36.3,32.382826 36.3,36.15 Z" id="Combined-Shape" fill="#5E5F63" mask="url(#mask-2)"></path>
            <mask id="mask-4" fill="white">
                <use xlink:href="#path-3"></use>
            </mask>
            <use id="Combined-Shape" fill="#5E5F63" xlink:href="#path-3"></use>
        </g>
    </g>
</svg>