<?xml version="1.0" encoding="utf-8"?>
<!-- Generator: Adobe Illustrator 22.0.0, SVG Export Plug-In . SVG Version: 6.00 Build 0)  -->
<svg version="1.1" id="Layer_1" xmlns="http://www.w3.org/2000/svg" xmlns:xlink="http://www.w3.org/1999/xlink" x="0px" y="0px"
	 viewBox="0 0 48 48" style="enable-background:new 0 0 48 48;" xml:space="preserve">
<style type="text/css">
	.st0{fill:#525969;}
	.st1{fill:#FFFFFF;}
	.st2{fill:#17BB5D;}
</style>
<g id="Layer_1_1_">
	<title>icons/48/indoor-siren/on</title>
	<desc>Created with Sketch.</desc>
	<g id="Symbols">
		<g id="icons_x2F_48_x2F_indoor-siren_x2F_on">
			<path id="Rectangle-7" class="st0" d="M11.1,6.6C10.4,7,10,7.7,10,8.4v31.3c0,0.7,0.4,1.4,1,1.8c4.4,2.4,8.7,3.5,13,3.5
				s8.6-1.2,13-3.5c0.6-0.3,1-1,1-1.8V8.4c0-0.8-0.4-1.5-1.1-1.8C32.6,4.5,28.3,3.5,24,3.5S15.4,4.5,11.1,6.6z M10.3,4.8
				c4.6-2.2,9.2-3.3,13.7-3.3s9.2,1.1,13.7,3.3C39.1,5.5,40,6.9,40,8.4v31.3c0,1.5-0.8,2.8-2.1,3.5C33.3,45.7,28.6,47,24,47
				s-9.3-1.3-13.9-3.8c-1.3-0.7-2.1-2-2.1-3.5V8.4C8,6.9,8.9,5.5,10.3,4.8z M24,12.2c-6,0-10.9,4.9-10.9,10.9S18,33.9,24,33.9
				S34.9,29.1,34.9,23S30,12.2,24,12.2z M24,13.6c5.2,0,9.4,4.2,9.4,9.4s-4.2,9.4-9.4,9.4s-9.4-4.2-9.4-9.4S18.8,13.6,24,13.6z
				 M23.1,15.8c-3.6,0.4-6.4,3.5-6.4,7.2c0,4,3.2,7.3,7.2,7.3s7.2-3.3,7.2-7.3c0-1.4-0.4-2.8-1.2-3.9c-0.2-0.3-0.7-0.4-1-0.2
				c-0.3,0.2-0.4,0.7-0.2,1c0.6,0.9,0.9,2,0.9,3.1c0,3.2-2.6,5.8-5.8,5.8S18,26.2,18,23c0-2.9,2.2-5.4,5.1-5.8
				c0.4,0,0.7-0.4,0.6-0.8C23.9,16.1,23.5,15.8,23.1,15.8z M26,16.1c-0.3,0-0.5,0.2-0.6,0.5c-0.1,0.4,0.1,0.8,0.5,0.9
				c0.5,0.2,1,0.4,1.5,0.7c0.1,0.1,0.3,0.1,0.4,0.1c0.2,0,0.5-0.1,0.6-0.3c0.2-0.3,0.1-0.8-0.2-1c-0.6-0.4-1.2-0.7-1.8-0.9
				C26.2,16.1,26.1,16.1,26,16.1z M23,2v8c0,0.6,0.4,1,1,1s1-0.4,1-1V2h2v8c0,1.7-1.3,3-3,3s-3-1.3-3-3V2H23z M21,2h2v8
				c0,0.6,0.4,1,1,1s1-0.4,1-1V2h2v8c0,1.7-1.3,3-3,3s-3-1.3-3-3V2z M14,37L14,37L14,37c0.6,0,1,0.4,1,1v1l0,0c0,0.6-0.4,1-1,1l0,0
				l0,0c-0.6,0-1-0.4-1-1v-1l0,0C13,37.4,13.4,37,14,37z M18,37L18,37L18,37c0.6,0,1,0.4,1,1v1l0,0c0,0.6-0.4,1-1,1l0,0l0,0
				c-0.6,0-1-0.4-1-1v-1l0,0C17,37.4,17.4,37,18,37z M22,37L22,37L22,37c0.6,0,1,0.4,1,1v1l0,0c0,0.6-0.4,1-1,1l0,0l0,0
				c-0.6,0-1-0.4-1-1v-1l0,0C21,37.4,21.4,37,22,37z M26,37L26,37L26,37c0.6,0,1,0.4,1,1v1l0,0c0,0.6-0.4,1-1,1l0,0l0,0
				c-0.6,0-1-0.4-1-1v-1l0,0C25,37.4,25.4,37,26,37z M30,37L30,37L30,37c0.6,0,1,0.4,1,1v1l0,0c0,0.6-0.4,1-1,1l0,0l0,0
				c-0.6,0-1-0.4-1-1v-1l0,0C29,37.4,29.4,37,30,37z M34,37L34,37L34,37c0.6,0,1,0.4,1,1v1l0,0c0,0.6-0.4,1-1,1l0,0l0,0
				c-0.6,0-1-0.4-1-1v-1l0,0C33,37.4,33.4,37,34,37z"/>
		</g>
	</g>
</g>
<g id="Layer_2_1_">
	<circle class="st1" cx="35.8" cy="35.4" r="11.2"/>
	<rect x="34.3" y="28.8" class="st2" width="3" height="13.1"/>
	<rect x="29.2" y="33.8" class="st2" width="13.1" height="3"/>
</g>
</svg>
