<?xml version="1.0" encoding="utf-8"?>
<!-- Generator: Adobe Illustrator 22.0.0, SVG Export Plug-In . SVG Version: 6.00 Build 0)  -->
<svg version="1.1" id="Layer_1" xmlns="http://www.w3.org/2000/svg" xmlns:xlink="http://www.w3.org/1999/xlink" x="0px" y="0px"
	 viewBox="0 0 48 48" style="enable-background:new 0 0 48 48;" xml:space="preserve">
<style type="text/css">
	.st0{fill:#525969;}
	.st1{fill:#FFFFFF;}
	.st2{fill:#17BB5D;}
</style>
<g id="Layer_1_1_">
	<title>icons/48/keyfob/on</title>
	<desc>Created with Sketch.</desc>
	<g id="Symbols">
		<g id="icons_x2F_48_x2F_keyfob_x2F_on">
			<path id="Combined-Shape" class="st0" d="M29.4,7c-1.6-1.6-4.1-1.5-5.7,0.1L4.7,26c-1.6,1.6-1.6,4.2-0.1,5.7L16,43.1
				c1.6,1.6,4.1,1.5,5.7-0.1l18.9-18.9c1.6-1.6,1.6-4.2,0.1-5.7L29.4,7z M30.8,5.6l11.3,11.3c2.3,2.3,2.3,6.2-0.1,8.6L23.2,44.4
				c-2.4,2.4-6.3,2.5-8.6,0.1L3.2,33.2c-2.3-2.3-2.3-6.2,0.1-8.6L22.2,5.7C24.6,3.3,28.5,3.3,30.8,5.6z M12.4,18.3L12.4,18.3
				L12.4,18.3c0.4,0.4,0.4,1,0,1.4l-0.7,0.7l0,0c-0.4,0.4-1,0.4-1.4,0l0,0l0,0c-0.4-0.4-0.4-1,0-1.4l0.7-0.7l0,0
				C11.4,18,12,18,12.4,18.3z M15.3,21.2L15.3,21.2L15.3,21.2c0.4,0.4,0.4,1,0,1.4l-0.7,0.7l0,0c-0.4,0.4-1,0.4-1.4,0l0,0l0,0
				c-0.4-0.4-0.4-1,0-1.4l0.7-0.7l0,0C14.2,20.8,14.9,20.8,15.3,21.2z M18.1,24L18.1,24L18.1,24c0.4,0.4,0.4,1,0,1.4l-0.7,0.7l0,0
				c-0.4,0.4-1,0.4-1.4,0l0,0l0,0c-0.4-0.4-0.4-1,0-1.4l0.7-0.7l0,0C17.1,23.6,17.7,23.6,18.1,24z M20.9,26.8L20.9,26.8L20.9,26.8
				c0.4,0.4,0.4,1,0,1.4l-0.7,0.7l0,0c-0.4,0.4-1,0.4-1.4,0l0,0l0,0c-0.4-0.4-0.4-1,0-1.4l0.7-0.7l0,0
				C19.9,26.4,20.5,26.4,20.9,26.8z M23.7,29.7L23.7,29.7L23.7,29.7c0.4,0.4,0.4,1,0,1.4L23,31.8l0,0c-0.4,0.4-1,0.4-1.4,0l0,0l0,0
				c-0.4-0.4-0.4-1,0-1.4l0.7-0.7l0,0C22.7,29.3,23.4,29.3,23.7,29.7z M26.6,32.5L26.6,32.5L26.6,32.5c0.4,0.4,0.4,1,0,1.4l-0.7,0.7
				l0,0c-0.4,0.4-1,0.4-1.4,0l0,0l0,0c-0.4-0.4-0.4-1,0-1.4l0.7-0.7l0,0C25.6,32.1,26.2,32.1,26.6,32.5z M29.4,35.3L29.4,35.3
				L29.4,35.3c0.4,0.4,0.4,1,0,1.4l-0.7,0.7l0,0c-0.4,0.4-1,0.4-1.4,0l0,0l0,0c-0.4-0.4-0.4-1,0-1.4l0.7-0.7l0,0
				C28.4,34.9,29,34.9,29.4,35.3z M35.8,19c-0.4-0.4-1-0.4-1.4,0s-0.4,1,0,1.4s1,0.4,1.4,0C36.2,20.1,36.2,19.4,35.8,19z M22.6,18
				v-2.5c0-0.6-0.4-1-1-1s-1,0.4-1,1V18h-2.5c-0.6,0-1,0.4-1,1s0.4,1,1,1h2.5v2.5c0,0.6,0.4,1,1,1s1-0.4,1-1V20h2.5c0.6,0,1-0.4,1-1
				s-0.4-1-1-1H22.6z M28.7,24.7l-1.4-1.4c-0.4-0.4-1-0.4-1.4,0s-0.4,1,0,1.4l1.4,1.4l-1.4,1.4c-0.4,0.4-0.4,1,0,1.4s1,0.4,1.4,0
				l1.4-1.4l1.4,1.4c0.4,0.4,1,0.4,1.4,0s0.4-1,0-1.4l-1.4-1.4l1.4-1.4c0.4-0.4,0.4-1,0-1.4s-1-0.4-1.4,0L28.7,24.7z M37.2,17.6
				c1.2,1.2,1.2,3.1,0,4.2C36,23,34.1,23,33,21.8c-1.2-1.2-1.2-3.1,0-4.2C34.1,16.5,36,16.5,37.2,17.6z M29.4,11.3
				c0.8,0.8,0.8,2,0,2.8s-2,0.8-2.8,0s-0.8-2,0-2.8S28.6,10.5,29.4,11.3z M35.9,3.1c-0.5,0.1-1-0.3-1.1-0.9c-0.1-0.5,0.3-1,0.9-1.1
				c5.4-0.7,10.3,3.2,11,8.6c0.1,0.8,0.1,1.6,0,2.4c-0.1,0.5-0.6,0.9-1.1,0.9c-0.5-0.1-0.9-0.6-0.9-1.1c0.1-0.6,0.1-1.3,0-2
				C44.1,5.6,40.2,2.5,35.9,3.1z M35.2,6.6c-0.6,0.1-1-0.4-1.1-0.9c0-0.6,0.4-1,0.9-1.1c4.1-0.4,7.8,2.7,8.2,6.8c0,0.5,0,0.9,0,1.4
				c-0.1,0.6-0.5,1-1.1,0.9s-1-0.5-0.9-1.1c0-0.3,0-0.7,0-1C40.9,8.6,38.2,6.3,35.2,6.6z"/>
		</g>
	</g>
</g>
<g id="Layer_2_1_">
	<circle class="st1" cx="35.9" cy="36" r="11.2"/>
	<rect x="34.5" y="29.1" class="st2" width="3" height="13.1"/>
	<rect x="29.4" y="34.1" class="st2" width="13.1" height="3"/>
</g>
</svg>
