<?xml version="1.0" encoding="utf-8"?>
<!-- Generator: Adobe Illustrator 22.0.0, SVG Export Plug-In . SVG Version: 6.00 Build 0)  -->
<svg version="1.1" id="Layer_1" xmlns="http://www.w3.org/2000/svg" xmlns:xlink="http://www.w3.org/1999/xlink" x="0px" y="0px"
	 viewBox="0 0 48 48" style="enable-background:new 0 0 48 48;" xml:space="preserve">
<style type="text/css">
	.st0{fill:#525969;}
	.st1{fill:#FFFFFF;}
	.st2{fill:#17BB5D;}
</style>
<title>icons/48/keypad/on</title>
<desc>Created with Sketch.</desc>
<g id="Symbols">
	<g id="icons_x2F_48_x2F_keypad_x2F_on">
		<path id="Rectangle-8" class="st0" d="M14.3,4c-3.8,0-6.9,3.1-6.9,7v26c0,3.9,3.1,7,6.9,7h19.8c3.8,0,6.9-3.1,6.9-7V11
			c0-3.9-3.1-7-6.9-7H14.3z M14.3,2h19.8C39,2,43,6,43,11v26c0,5-4,9-8.9,9H14.3c-4.9,0-8.9-4-8.9-9V11C5.4,6,9.4,2,14.3,2z
			 M20.2,17c0.5,0,1,0.4,1,1s-0.4,1-1,1c-0.5,0-1-0.4-1-1S19.7,17,20.2,17z M24.2,17c0.5,0,1,0.4,1,1s-0.4,1-1,1s-1-0.4-1-1
			S23.6,17,24.2,17z M16.3,17c0.5,0,1,0.4,1,1s-0.4,1-1,1c-0.5,0-1-0.4-1-1S15.7,17,16.3,17z M20.2,21c0.5,0,1,0.4,1,1s-0.4,1-1,1
			c-0.5,0-1-0.4-1-1S19.7,21,20.2,21z M24.2,21c0.5,0,1,0.4,1,1s-0.4,1-1,1s-1-0.4-1-1S23.6,21,24.2,21z M16.3,21c0.5,0,1,0.4,1,1
			s-0.4,1-1,1c-0.5,0-1-0.4-1-1S15.7,21,16.3,21z M20.2,25c0.5,0,1,0.4,1,1s-0.4,1-1,1c-0.5,0-1-0.4-1-1S19.7,25,20.2,25z M24.2,25
			c0.5,0,1,0.4,1,1s-0.4,1-1,1s-1-0.4-1-1S23.6,25,24.2,25z M16.3,25c0.5,0,1,0.4,1,1s-0.4,1-1,1c-0.5,0-1-0.4-1-1S15.7,25,16.3,25z
			 M20.2,29c0.5,0,1,0.4,1,1s-0.4,1-1,1c-0.5,0-1-0.4-1-1S19.7,29,20.2,29z M24.2,29c0.5,0,1,0.4,1,1s-0.4,1-1,1s-1-0.4-1-1
			S23.6,29,24.2,29z M28.2,17c0.5,0,1,0.4,1,1s-0.4,1-1,1s-1-0.4-1-1S27.6,17,28.2,17z M28.2,21c0.5,0,1,0.4,1,1s-0.4,1-1,1
			s-1-0.4-1-1S27.6,21,28.2,21z M28.2,25c0.5,0,1,0.4,1,1s-0.4,1-1,1s-1-0.4-1-1S27.6,25,28.2,25z M28.2,29c0.5,0,1,0.4,1,1
			s-0.4,1-1,1s-1-0.4-1-1S27.6,29,28.2,29z M16.3,29c0.5,0,1,0.4,1,1s-0.4,1-1,1c-0.5,0-1-0.4-1-1S15.7,29,16.3,29z M7.4,16.4v-2.8
			c0.2-0.3,0.5-0.6,0.7-0.9c3.2-3.8,7.9-6.1,13.1-6.1c0.8,0,1.7,0.1,2.5,0.2c0.4,0.1,0.7,0.4,0.6,0.9c0,0.3-0.3,0.6-0.8,0.5
			C22.7,8.1,22,8,21.2,8c-5.5,0-10.3,2.8-13.1,7.1C7.9,15.6,7.6,16,7.4,16.4z M7.4,31.6c0.3,0.5,0.5,1,0.9,1.4
			c2.8,4.2,7.6,6.9,13,6.9C29.9,39.9,37,32.8,37,24c0-4.9-2.2-9.5-6-12.5c-0.3-0.3-0.4-0.7-0.1-1.1c0.3-0.3,0.7-0.4,1.1-0.1
			c4.2,3.3,6.6,8.3,6.6,13.7c0,9.6-7.7,17.4-17.3,17.4c-5.2,0-9.9-2.4-13.1-6.1c-0.3-0.3-0.5-0.6-0.8-1C7.4,34.3,7.4,31.6,7.4,31.6z
			 M26.9,7.6c-0.3,0-0.6,0.2-0.7,0.5c-0.1,0.4,0.1,0.8,0.4,1c0.6,0.2,1.2,0.5,1.7,0.8c0.1,0.1,0.2,0.1,0.3,0.1
			c0.3,0,0.5-0.2,0.7-0.4c0.2-0.4,0-0.8-0.3-1c-0.6-0.3-1.3-0.6-1.9-0.8C27.1,7.6,27,7.6,26.9,7.6z"/>
	</g>
</g>
<g id="Layer_2_1_">
	<circle class="st1" cx="35.5" cy="35.8" r="11.2"/>
	<rect x="34" y="29" class="st2" width="3" height="13.1"/>
	<rect x="29" y="34" class="st2" width="13.1" height="3"/>
</g>
</svg>
