<?xml version="1.0" encoding="utf-8"?>
<!-- Generator: Adobe Illustrator 22.0.0, SVG Export Plug-In . SVG Version: 6.00 Build 0)  -->
<svg version="1.1" id="Layer_1" xmlns="http://www.w3.org/2000/svg" xmlns:xlink="http://www.w3.org/1999/xlink" x="0px" y="0px"
	 viewBox="0 0 48 48" style="enable-background:new 0 0 48 48;" xml:space="preserve">
<style type="text/css">
	.st0{fill:#525969;}
	.st1{fill:#FFFFFF;}
	.st2{fill:#F65136;}
</style>
<title>icons/48/motioncamera-b/on</title>
<desc>Created with Sketch.</desc>
<g id="Symbols">
	<g id="icons_x2F_48_x2F_motioncamera-b_x2F_on">
		<path id="Rectangle-6" class="st0" d="M13.5,3.9c-1.3,0-2.3,0.9-2.3,2v36.4c0,1.1,1,2,2.3,2h21.1c1.3,0,2.3-0.9,2.3-2V5.9
			c0.1-1.1-0.9-2-2.2-2H13.5z M13.9,2.1h20.4c2.5,0,4.5,1.8,4.5,4v36.2c0,2.2-2,4-4.5,4H13.9c-2.5-0.1-4.5-1.9-4.5-4.1V6.1
			C9.4,3.9,11.4,2.1,13.9,2.1z M14.9,28.8L14.9,28.8L14.9,28.8c0.6,0,0.9,0.4,0.9,0.9v0.9l0,0c0,0.6-0.4,0.9-0.9,0.9l0,0l0,0
			c-0.6,0-0.9-0.4-0.9-0.9v-0.9l0,0C14,29.1,14.4,28.8,14.9,28.8z M18.6,29.7L18.6,29.7L18.6,29.7c0.6,0,0.9,0.4,0.9,0.9v0.9l0,0
			c0,0.6-0.4,0.9-0.9,0.9l0,0l0,0c-0.6,0-0.9-0.4-0.9-0.9v-0.9l0,0C17.7,30.1,18,29.7,18.6,29.7z M22.3,30.6L22.3,30.6L22.3,30.6
			c0.6,0,0.9,0.4,0.9,0.9v0.9l0,0c0,0.6-0.4,0.9-0.9,0.9l0,0l0,0c-0.6,0-0.9-0.4-0.9-0.9v-0.9l0,0C21.3,31,21.7,30.6,22.3,30.6z
			 M25.9,30.6L25.9,30.6L25.9,30.6c0.6,0,0.9,0.4,0.9,0.9v0.9l0,0c0,0.6-0.4,0.9-0.9,0.9l0,0l0,0c-0.6,0-0.9-0.4-0.9-0.9v-0.9l0,0
			C25,31,25.4,30.6,25.9,30.6z M29.6,29.7L29.6,29.7L29.6,29.7c0.6,0,0.9,0.4,0.9,0.9v0.9l0,0c0,0.6-0.4,0.9-0.9,0.9l0,0l0,0
			c-0.6,0-0.9-0.4-0.9-0.9v-0.9l0,0C28.7,30.1,29.1,29.7,29.6,29.7z M33.3,28.8L33.3,28.8L33.3,28.8c0.6,0,0.9,0.4,0.9,0.9v0.9l0,0
			c0,0.6-0.4,0.9-0.9,0.9l0,0l0,0c-0.6,0-0.9-0.4-0.9-0.9v-0.9l0,0C32.4,29.1,32.8,28.8,33.3,28.8z M14.9,13.1L14.9,13.1L14.9,13.1
			c0.6,0,0.9,0.4,0.9,0.9V15l0,0c0,0.6-0.4,0.9-0.9,0.9l0,0l0,0c-0.6,0-0.9-0.4-0.9-0.9V14l0,0C14,13.5,14.4,13.1,14.9,13.1z
			 M11.2,27.8L11.2,27.8L11.2,27.8c0.6,0,0.9,0.4,0.9,0.9v0.9l0,0c0,0.6-0.4,0.9-0.9,0.9l0,0l0,0c-0.6,0-0.9-0.4-0.9-0.9v-0.9l0,0
			C10.3,28.2,10.7,27.8,11.2,27.8z M11.2,13.1L11.2,13.1L11.2,13.1c0.6,0,0.9,0.4,0.9,0.9V15l0,0c0,0.6-0.4,0.9-0.9,0.9l0,0l0,0
			c-0.6,0-0.9-0.4-0.9-0.9V14l0,0C10.3,13.5,10.7,13.1,11.2,13.1z M18.6,13.1L18.6,13.1L18.6,13.1c0.6,0,0.9,0.4,0.9,0.9V15l0,0
			c0,0.6-0.4,0.9-0.9,0.9l0,0l0,0c-0.6,0-0.9-0.4-0.9-0.9V14l0,0C17.7,13.5,18,13.1,18.6,13.1z M22.3,13.1L22.3,13.1L22.3,13.1
			c0.6,0,0.9,0.4,0.9,0.9V15l0,0c0,0.6-0.4,0.9-0.9,0.9l0,0l0,0c-0.6,0-0.9-0.4-0.9-0.9V14l0,0C21.3,13.5,21.7,13.1,22.3,13.1z
			 M25.9,13.1L25.9,13.1L25.9,13.1c0.6,0,0.9,0.4,0.9,0.9V15l0,0c0,0.6-0.4,0.9-0.9,0.9l0,0l0,0c-0.6,0-0.9-0.4-0.9-0.9V14l0,0
			C25,13.5,25.4,13.1,25.9,13.1z M29.6,13.1L29.6,13.1L29.6,13.1c0.6,0,0.9,0.4,0.9,0.9V15l0,0c0,0.6-0.4,0.9-0.9,0.9l0,0l0,0
			c-0.6,0-0.9-0.4-0.9-0.9V14l0,0C28.7,13.5,29.1,13.1,29.6,13.1z M33.3,13.1L33.3,13.1L33.3,13.1c0.6,0,0.9,0.4,0.9,0.9V15l0,0
			c0,0.6-0.4,0.9-0.9,0.9l0,0l0,0c-0.6,0-0.9-0.4-0.9-0.9V14l0,0C32.4,13.5,32.8,13.1,33.3,13.1z M37,27.8L37,27.8L37,27.8
			c0.6,0,0.9,0.4,0.9,0.9v0.9l0,0c0,0.6-0.4,0.9-0.9,0.9l0,0l0,0c-0.6,0-0.9-0.4-0.9-0.9v-0.9l0,0C36.1,28.2,36.4,27.8,37,27.8z
			 M37,13.1L37,13.1L37,13.1c0.6,0,0.9,0.4,0.9,0.9V15l0,0c0,0.6-0.4,0.9-0.9,0.9l0,0l0,0c-0.6,0-0.9-0.4-0.9-0.9V14l0,0
			C36.1,13.5,36.4,13.1,37,13.1z M24.1,6.7c1,0,1.8,0.8,1.8,1.8s-0.8,1.8-1.8,1.8s-1.8-0.8-1.8-1.8S23.1,6.7,24.1,6.7z M24.1,37
			c-1,0-1.8,0.8-1.8,1.8c0,1,0.8,1.8,1.8,1.8s1.8-0.8,1.8-1.8C25.9,37.9,25.1,37,24.1,37z M24.1,35.2c2,0,3.7,1.7,3.7,3.7
			c0,2-1.7,3.7-3.7,3.7s-3.7-1.7-3.7-3.7C20.4,36.9,22.1,35.2,24.1,35.2z M17.7,16.8c-0.6,0-0.9,0.4-0.9,0.9v9
			c0,0.4,0.2,0.6,0.6,0.8c2.3,1.1,4.6,1.7,6.8,1.7s4.5-0.6,6.8-1.7c0.3-0.2,0.6-0.5,0.6-0.8v-9c0-0.6-0.4-0.9-0.9-0.9H17.7z
			 M17.7,15h12.9c1.6,0,2.8,1.2,2.8,2.8v9c0,1.1-0.6,2-1.6,2.5c-2.6,1.2-5.1,1.8-7.6,1.8s-5.1-0.6-7.6-1.8c-0.9-0.5-1.6-1.5-1.6-2.5
			v-9C14.9,16.2,16.1,15,17.7,15z"/>
	</g>
</g>
<g id="Layer_2_1_">
	<circle class="st1" cx="36.2" cy="36.8" r="11.2"/>
	
		<rect x="29.1" y="34.8" transform="matrix(0.7198 -0.6942 0.6942 0.7198 -15.1229 35.3518)" class="st2" width="14.3" height="3.2"/>
	
		<rect x="34.7" y="29.2" transform="matrix(0.7198 -0.6942 0.6942 0.7198 -15.063 35.3715)" class="st2" width="3.2" height="14.3"/>
</g>
</svg>
