<?xml version="1.0" encoding="utf-8"?>
<!-- Generator: Adobe Illustrator 22.0.0, SVG Export Plug-In . SVG Version: 6.00 Build 0)  -->
<svg version="1.1" id="Layer_1" xmlns="http://www.w3.org/2000/svg" xmlns:xlink="http://www.w3.org/1999/xlink" x="0px" y="0px"
	 viewBox="0 0 48 48" style="enable-background:new 0 0 48 48;" xml:space="preserve">
<style type="text/css">
	.st0{fill:#525969;}
	.st1{fill:#FFFFFF;}
	.st2{fill:#17BB5D;}
</style>
<title>icons/48/motioncamera-a/on</title>
<desc>Created with Sketch.</desc>
<g id="Symbols">
	<g id="icons_x2F_48_x2F_motioncamera-a_x2F_on">
		<path id="Rectangle-6" class="st0" d="M9.2,3.7c-1.3,0-2.3,0.9-2.3,2v36.2c0,1.1,1,2,2.3,2h20.9c1.3,0,2.3-0.9,2.3-2V5.7
			c0.1-1.1-0.9-2-2.2-2C30.2,3.7,9.2,3.7,9.2,3.7z M9.5,1.9h20.3c2.5,0,4.5,1.8,4.5,4v35.9c0,2.2-2,4-4.5,4H9.5
			C7,45.7,5,43.9,5,41.7V5.9C5.1,3.7,7.1,1.9,9.5,1.9z M10.5,28.3L10.5,28.3L10.5,28.3c0.5,0,0.9,0.4,0.9,0.9v0.9l0,0
			c0,0.5-0.4,0.9-0.9,0.9l0,0l0,0c-0.5,0-0.9-0.4-0.9-0.9v-0.9l0,0C9.6,28.7,10,28.3,10.5,28.3z M14.2,29.3L14.2,29.3L14.2,29.3
			c0.5,0,0.9,0.4,0.9,0.9v0.9l0,0c0,0.5-0.4,0.9-0.9,0.9l0,0l0,0c-0.5,0-0.9-0.4-0.9-0.9v-0.9l0,0C13.3,29.6,13.7,29.3,14.2,29.3z
			 M17.8,30.2L17.8,30.2L17.8,30.2c0.5,0,0.9,0.4,0.9,0.9V32l0,0c0,0.5-0.4,0.9-0.9,0.9l0,0l0,0c-0.5,0-0.9-0.4-0.9-0.9v-0.9l0,0
			C16.9,30.5,17.3,30.2,17.8,30.2z M21.5,30.2L21.5,30.2L21.5,30.2c0.5,0,0.9,0.4,0.9,0.9V32l0,0c0,0.5-0.4,0.9-0.9,0.9l0,0l0,0
			c-0.5,0-0.9-0.4-0.9-0.9v-0.9l0,0C20.6,30.5,21,30.2,21.5,30.2z M25.2,29.3L25.2,29.3L25.2,29.3c0.5,0,0.9,0.4,0.9,0.9v0.9l0,0
			c0,0.5-0.4,0.9-0.9,0.9l0,0l0,0c-0.5,0-0.9-0.4-0.9-0.9v-0.9l0,0C24.2,29.6,24.6,29.3,25.2,29.3z M28.8,28.3L28.8,28.3L28.8,28.3
			c0.5,0,0.9,0.4,0.9,0.9v0.9l0,0c0,0.5-0.4,0.9-0.9,0.9l0,0l0,0c-0.5,0-0.9-0.4-0.9-0.9v-0.9l0,0C27.9,28.7,28.3,28.3,28.8,28.3z
			 M10.5,12.8L10.5,12.8L10.5,12.8c0.5,0,0.9,0.4,0.9,0.9v0.9l0,0c0,0.5-0.4,0.9-0.9,0.9l0,0l0,0c-0.5,0-0.9-0.4-0.9-0.9v-0.9l0,0
			C9.6,13.2,10,12.8,10.5,12.8z M6.9,27.4L6.9,27.4L6.9,27.4c0.5,0,0.9,0.4,0.9,0.9v0.9l0,0c0,0.5-0.4,0.9-0.9,0.9l0,0l0,0
			c-0.5,0-0.9-0.4-0.9-0.9v-0.9l0,0C6,27.8,6.3,27.4,6.9,27.4z M6.9,12.8L6.9,12.8L6.9,12.8c0.5,0,0.9,0.4,0.9,0.9v0.9l0,0
			c0,0.5-0.4,0.9-0.9,0.9l0,0l0,0c-0.5,0-0.9-0.4-0.9-0.9v-0.9l0,0C6,13.2,6.3,12.8,6.9,12.8z M14.2,12.8L14.2,12.8L14.2,12.8
			c0.5,0,0.9,0.4,0.9,0.9v0.9l0,0c0,0.5-0.4,0.9-0.9,0.9l0,0l0,0c-0.5,0-0.9-0.4-0.9-0.9v-0.9l0,0C13.3,13.2,13.7,12.8,14.2,12.8z
			 M17.8,12.8L17.8,12.8L17.8,12.8c0.5,0,0.9,0.4,0.9,0.9v0.9l0,0c0,0.5-0.4,0.9-0.9,0.9l0,0l0,0c-0.5,0-0.9-0.4-0.9-0.9v-0.9l0,0
			C16.9,13.2,17.3,12.8,17.8,12.8z M21.5,12.8L21.5,12.8L21.5,12.8c0.5,0,0.9,0.4,0.9,0.9v0.9l0,0c0,0.5-0.4,0.9-0.9,0.9l0,0l0,0
			c-0.5,0-0.9-0.4-0.9-0.9v-0.9l0,0C20.6,13.2,21,12.8,21.5,12.8z M25.2,12.8L25.2,12.8L25.2,12.8c0.5,0,0.9,0.4,0.9,0.9v0.9l0,0
			c0,0.5-0.4,0.9-0.9,0.9l0,0l0,0c-0.5,0-0.9-0.4-0.9-0.9v-0.9l0,0C24.2,13.2,24.6,12.8,25.2,12.8z M28.8,12.8L28.8,12.8L28.8,12.8
			c0.5,0,0.9,0.4,0.9,0.9v0.9l0,0c0,0.5-0.4,0.9-0.9,0.9l0,0l0,0c-0.5,0-0.9-0.4-0.9-0.9v-0.9l0,0C27.9,13.2,28.3,12.8,28.8,12.8z
			 M32.5,27.4L32.5,27.4L32.5,27.4c0.5,0,0.9,0.4,0.9,0.9v0.9l0,0c0,0.5-0.4,0.9-0.9,0.9l0,0l0,0c-0.5,0-0.9-0.4-0.9-0.9v-0.9l0,0
			C31.5,27.8,31.9,27.4,32.5,27.4z M32.5,12.8L32.5,12.8L32.5,12.8c0.5,0,0.9,0.4,0.9,0.9v0.9l0,0c0,0.5-0.4,0.9-0.9,0.9l0,0l0,0
			c-0.5,0-0.9-0.4-0.9-0.9v-0.9l0,0C31.5,13.2,31.9,12.8,32.5,12.8z M19.7,6.4c1,0,1.8,0.8,1.8,1.8S20.7,10,19.7,10
			s-1.8-0.8-1.8-1.8S18.7,6.4,19.7,6.4z M19.7,36.6c-1,0-1.8,0.8-1.8,1.8s0.8,1.8,1.8,1.8s1.8-0.8,1.8-1.8S20.7,36.6,19.7,36.6z
			 M19.7,34.7c2,0,3.7,1.6,3.7,3.7S21.7,42,19.7,42S16,40.4,16,38.4S17.7,34.7,19.7,34.7z M13.3,16.5c-0.5,0-0.9,0.4-0.9,0.9v8.9
			c0,0.4,0.2,0.6,0.5,0.8c2.3,1.1,4.6,1.6,6.8,1.6s4.5-0.5,6.8-1.6c0.3-0.2,0.5-0.5,0.5-0.8v-8.9c0-0.5-0.4-0.9-0.9-0.9H13.3z
			 M13.3,14.7h12.8c1.6,0,2.7,1.2,2.7,2.7v8.9c0,1.1-0.6,2-1.6,2.5c-2.6,1.2-5,1.8-7.6,1.8s-5-0.6-7.6-1.8c-0.9-0.5-1.6-1.5-1.6-2.5
			v-8.9C10.5,15.8,11.7,14.7,13.3,14.7z M39.9,14.3c1.7,2.5,2.6,5.3,2.6,8.6s-0.8,6.2-2.6,8.6c-0.3,0.5-0.2,1,0.2,1.3
			c0.4,0.3,1,0.2,1.3-0.2c1.9-2.7,2.9-6,2.9-9.7s-1-6.9-2.9-9.7c-0.3-0.5-0.8-0.5-1.3-0.2C39.8,13.3,39.7,13.8,39.9,14.3z
			 M36.3,16.6c1.7,1.7,2.6,3.8,2.6,6.3s-0.8,4.5-2.6,6.3c-0.3,0.3-0.2,0.7,0.2,0.9c0.4,0.2,1,0.2,1.3-0.2c1.9-2,2.9-4.4,2.9-7
			s-1-5-2.9-7c-0.3-0.3-0.8-0.4-1.3-0.2S36,16.3,36.3,16.6z"/>
	</g>
</g>
<g id="Layer_2_1_">
	<circle class="st1" cx="34.8" cy="36.6" r="11.2"/>
	<rect x="33.3" y="29.8" class="st2" width="3" height="13.1"/>
	<rect x="28.3" y="34.8" class="st2" width="13.1" height="3"/>
</g>
</svg>
