<?xml version="1.0" encoding="utf-8"?>
<!-- Generator: Adobe Illustrator 22.0.0, SVG Export Plug-In . SVG Version: 6.00 Build 0)  -->
<svg version="1.1" id="Layer_1" xmlns="http://www.w3.org/2000/svg" xmlns:xlink="http://www.w3.org/1999/xlink" x="0px" y="0px"
	 viewBox="0 0 48 48" style="enable-background:new 0 0 48 48;" xml:space="preserve">
<style type="text/css">
	.st0{fill:#525969;}
	.st1{fill:#FFFFFF;}
	.st2{fill:#17BB5D;}
</style>
<g id="Layer_1_1_">
	<title>icons/48/Occupancy/on</title>
	<desc>Created with Sketch.</desc>
	<g id="Symbols">
		<g id="icons_x2F_48_x2F_Occupancy_x2F_on">
			<path id="Shape" class="st0" d="M17.2,2.8c0.3,0,0.6,0.1,0.8,0.3c1.6,1.7,2.7,4,2.7,6.5c0,1-0.3,1.9-0.6,2.8
				c0.1,0.1,0.2,0.1,0.3,0.2c2.2,1.4,3.6,3.8,3.6,6.2v9.5c0,2.5-1.4,4.6-3.4,5.8V41c0,1.4-0.4,2.8-1.2,3.9c-0.3,0.4-0.8,0.5-1.2,0.2
				c-0.4-0.3-0.5-0.8-0.2-1.2c0.6-0.9,1-1.9,1-3V33l0.5-0.2c1.7-0.8,2.9-2.5,2.9-4.6v-9.5c0-1.8-1-3.6-2.9-4.8
				c-0.2-0.1-0.4-0.2-0.7-0.4l-0.7-0.4l0.3-0.7c0.4-0.9,0.6-1.9,0.6-2.9c0-2.1-0.8-4-2.2-5.3c-0.2-0.2-0.3-0.5-0.2-0.8
				C16.7,3.1,16.9,2.9,17.2,2.8z M22.4,2.8c0.4-0.1,0.7,0.1,0.9,0.4c1,1.9,1.6,4,1.6,6.3c0,0.4,0,0.8-0.1,1.2c2.1,2.2,3.4,5,3.4,7.9
				v9.5c0,3.1-1.3,5.9-3.4,7.9v4.8c0,1.3-0.2,2.5-0.6,3.7c-0.2,0.4-0.6,0.7-1.1,0.5c-0.4-0.2-0.7-0.7-0.5-1.1c0.3-1,0.6-2,0.6-3.1
				v-5.5l0.3-0.3c1.9-1.7,3.1-4.2,3.1-6.9v-9.5c0-2.6-1.1-5.1-3.2-7L23,11.4l0.1-0.4c0.1-0.5,0.1-0.9,0.1-1.4c0-2-0.5-3.9-1.4-5.5
				c-0.1-0.2-0.1-0.5,0-0.8C21.9,3.1,22.1,2.9,22.4,2.8z M11.4,4.5c-2.8,0-5,2.3-5,5.1s2.3,5.1,5,5.1c-3.3,0-5.4,0.6-6.7,1.4
				C3.5,16.9,3,17.9,3,18.7v9.5c0,1.4,1.1,2.5,2.5,2.5h0.8v10.2c0,1.4,1.1,2.5,2.5,2.5h5c1.4,0,2.5-1.1,2.5-2.5V30.8h0.8
				c1.4,0,2.5-1.1,2.5-2.5v-9.5c0-0.8-0.4-1.8-1.7-2.6c-1.3-0.8-3.3-1.4-6.7-1.4c2.8,0,5-2.3,5-5.1C16.4,6.8,14.2,4.5,11.4,4.5z
				 M11.4,6.2c1.9,0,3.4,1.5,3.4,3.4S13.3,13,11.4,13S8,11.5,8,9.6S9.5,6.2,11.4,6.2z M11.4,16.4c3.2,0,4.9,0.6,5.7,1.1
				c0.9,0.6,0.9,1.1,0.9,1.2v9.5c0,0.5-0.4,0.8-0.8,0.8h-2.5v11.8c0,0.5-0.4,0.8-0.8,0.8h-5c-0.5,0-0.8-0.4-0.8-0.8V29.1H5.5
				c-0.5,0-0.8-0.4-0.8-0.8v-9.5c0,0,0.1-0.6,1-1.2S8.3,16.4,11.4,16.4z M38.1,17.2c-1.3,0-2.4,1-2.4,2.3v8.9c0,1.3,1.1,2.3,2.4,2.3
				h4.5c1.3,0,2.4-1,2.4-2.3v-8.9c0-1.3-1.1-2.3-2.4-2.3H38.1z M38.1,18.9h4.5c0.4,0,0.7,0.3,0.7,0.6v8.9c0,0.3-0.3,0.6-0.7,0.6
				h-4.5c-0.4,0-0.7-0.3-0.7-0.6v-8.9C37.4,19.2,37.7,18.9,38.1,18.9z M40.4,25.7c-0.6,0-1.1,0.5-1.1,1.1s0.5,1.1,1.1,1.1
				s1.1-0.5,1.1-1.1S41,25.7,40.4,25.7z"/>
			<path id="Path" class="st0" d="M29.2,31c0,0.3,0.1,0.6,0.4,0.7l1.3,0.7c0.3,0.2,0.8,0.1,1-0.3C32,32,32,31.9,32,31.7
				c0-0.2-0.1-0.5-0.4-0.6l-1.3-0.7c-0.3-0.2-0.8-0.1-1,0.3C29.3,30.8,29.2,30.9,29.2,31z"/>
			<path id="Path_1_" class="st0" d="M29.2,17c0,0.1,0,0.2,0.1,0.3c0.2,0.3,0.6,0.5,1,0.3l1.3-0.7c0.2-0.1,0.4-0.4,0.4-0.6
				c0-0.1,0-0.2-0.1-0.4c-0.2-0.3-0.6-0.5-1-0.3l-1.3,0.7C29.3,16.5,29.2,16.8,29.2,17z"/>
			<path id="Path_2_" class="st0" d="M30.6,20.2c0,0.1,0,0.2,0,0.3c0.1,0.4,0.5,0.6,0.9,0.5l1.4-0.4c0.3-0.1,0.5-0.4,0.5-0.7
				c0-0.1,0-0.1,0-0.2c-0.1-0.4-0.5-0.6-0.9-0.5l-1.4,0.4C30.9,19.7,30.7,20,30.6,20.2z"/>
			<path id="Path_3_" class="st0" d="M30.6,27.8c0,0.3,0.2,0.5,0.5,0.6l1.4,0.4c0.4,0.1,0.8-0.1,0.9-0.5c0-0.1,0-0.1,0-0.2
				c0-0.3-0.2-0.6-0.5-0.7L31.5,27c-0.4-0.1-0.8,0.1-0.9,0.5C30.6,27.6,30.6,27.7,30.6,27.8z"/>
			<path id="Path_4_" class="st0" d="M31.1,24c0,0.4,0.3,0.7,0.7,0.7h1.5c0.4,0,0.7-0.3,0.7-0.7c0-0.4-0.3-0.7-0.7-0.7h-1.5
				C31.4,23.3,31.1,23.6,31.1,24z"/>
		</g>
	</g>
</g>
<g id="Layer_2_1_">
	<circle class="st1" cx="28.8" cy="35.8" r="11.2"/>
	<rect x="27.7" y="28.9" class="st2" width="3" height="13.1"/>
	<rect x="22.6" y="33.9" class="st2" width="13.1" height="3"/>
</g>
</svg>
