<?xml version="1.0" encoding="utf-8"?>
<!-- Generator: Adobe Illustrator 22.0.0, SVG Export Plug-In . SVG Version: 6.00 Build 0)  -->
<svg version="1.1" id="Layer_1" xmlns="http://www.w3.org/2000/svg" xmlns:xlink="http://www.w3.org/1999/xlink" x="0px" y="0px"
	 viewBox="0 0 48 48" style="enable-background:new 0 0 48 48;" xml:space="preserve">
<style type="text/css">
	.st0{fill:#525969;}
	.st1{fill:#FFFFFF;}
	.st2{fill:#17BB5D;}
</style>
<g id="Layer_1_1_">
	<title>icons/48/outdoor-siren/on copy</title>
	<desc>Created with Sketch.</desc>
	<g id="Symbols">
		<g id="icons_x2F_48_x2F_outdoor-siren_x2F_on-copy">
			<path id="Shape" class="st0" d="M6.7,4C5.2,4,4,5.2,4,6.7v34.7C4,42.8,5.2,44,6.7,44h34.7c1.5,0,2.7-1.2,2.7-2.7V6.7
				C44,5.2,42.8,4,41.3,4H6.7z M6.7,5.3h34.7c0.7,0,1.3,0.6,1.3,1.3v34.7c0,0.7-0.6,1.3-1.3,1.3H6.7c-0.7,0-1.3-0.6-1.3-1.3V6.7
				C5.3,5.9,5.9,5.3,6.7,5.3z M9.3,8.7C9,8.7,8.7,9,8.7,9.3C8.7,9.7,9,10,9.3,10C9.7,10,10,9.7,10,9.3C10,9,9.7,8.7,9.3,8.7z
				 M12,8.7c-0.4,0-0.7,0.3-0.7,0.7s0.3,0.7,0.7,0.7s0.7-0.3,0.7-0.7S12.4,8.7,12,8.7z M14.7,8.7C14.3,8.7,14,9,14,9.3
				c0,0.4,0.3,0.7,0.7,0.7s0.7-0.3,0.7-0.7C15.3,9,15,8.7,14.7,8.7z M17.3,8.7c-0.4,0-0.7,0.3-0.7,0.7s0.3,0.7,0.7,0.7
				S18,9.7,18,9.3C18,9,17.7,8.7,17.3,8.7z M20,8.7c-0.4,0-0.7,0.3-0.7,0.7s0.3,0.7,0.7,0.7s0.7-0.3,0.7-0.7S20.4,8.7,20,8.7z
				 M22.7,8.7C22.3,8.7,22,9,22,9.3c0,0.4,0.3,0.7,0.7,0.7s0.7-0.3,0.7-0.7C23.3,9,23,8.7,22.7,8.7z M25.3,8.7
				c-0.4,0-0.7,0.3-0.7,0.7s0.3,0.7,0.7,0.7S26,9.7,26,9.3C26,9,25.7,8.7,25.3,8.7z M28,8.7c-0.4,0-0.7,0.3-0.7,0.7s0.3,0.7,0.7,0.7
				s0.7-0.3,0.7-0.7S28.4,8.7,28,8.7z M30.7,8.7C30.3,8.7,30,9,30,9.3c0,0.4,0.3,0.7,0.7,0.7s0.7-0.3,0.7-0.7
				C31.3,9,31,8.7,30.7,8.7z M33.3,8.7c-0.4,0-0.7,0.3-0.7,0.7s0.3,0.7,0.7,0.7S34,9.7,34,9.3C34,9,33.7,8.7,33.3,8.7z M36,8.7
				c-0.4,0-0.7,0.3-0.7,0.7s0.3,0.7,0.7,0.7s0.7-0.3,0.7-0.7S36.4,8.7,36,8.7z M38.7,8.7C38.3,8.7,38,9,38,9.3
				c0,0.4,0.3,0.7,0.7,0.7s0.7-0.3,0.7-0.7C39.3,9,39,8.7,38.7,8.7z M9.3,11.3c-0.4,0-0.7,0.3-0.7,0.7s0.3,0.7,0.7,0.7
				S10,12.4,10,12S9.7,11.3,9.3,11.3z M38.7,11.3c-0.4,0-0.7,0.3-0.7,0.7s0.3,0.7,0.7,0.7s0.7-0.3,0.7-0.7S39,11.3,38.7,11.3z
				 M9.3,14c-0.4,0-0.7,0.3-0.7,0.7s0.3,0.7,0.7,0.7s0.7-0.3,0.7-0.7S9.7,14,9.3,14z M38.7,14c-0.4,0-0.7,0.3-0.7,0.7
				s0.3,0.7,0.7,0.7s0.7-0.3,0.7-0.7C39.3,14.3,39,14,38.7,14z M9.3,16.7c-0.4,0-0.7,0.3-0.7,0.7S9,18,9.3,18c0.4,0,0.7-0.3,0.7-0.7
				S9.7,16.7,9.3,16.7z M38.7,16.7c-0.4,0-0.7,0.3-0.7,0.7s0.3,0.7,0.7,0.7s0.7-0.3,0.7-0.7S39,16.7,38.7,16.7z M17.4,17.4
				c-1.7,1.7-2.7,4-2.7,6.6s1,4.9,2.7,6.6l1.4-1.4c-1.3-1.3-2.1-3.2-2.1-5.2s0.8-3.9,2.1-5.2L17.4,17.4z M30.6,17.4l-1.4,1.4
				c1.3,1.3,2.1,3.2,2.1,5.2s-0.8,3.9-2.1,5.2l1.4,1.4c1.7-1.7,2.7-4,2.7-6.6S32.3,19.1,30.6,17.4z M9.3,19.3
				c-0.4,0-0.7,0.3-0.7,0.7s0.3,0.7,0.7,0.7S10,20.4,10,20S9.7,19.3,9.3,19.3z M38.7,19.3c-0.4,0-0.7,0.3-0.7,0.7s0.3,0.7,0.7,0.7
				s0.7-0.3,0.7-0.7S39,19.3,38.7,19.3z M24,21.3c-1.5,0-2.7,1.2-2.7,2.7s1.2,2.7,2.7,2.7s2.7-1.2,2.7-2.7S25.5,21.3,24,21.3z
				 M9.3,22c-0.4,0-0.7,0.3-0.7,0.7s0.3,0.7,0.7,0.7s0.7-0.3,0.7-0.7S9.7,22,9.3,22z M38.7,22c-0.4,0-0.7,0.3-0.7,0.7
				s0.3,0.7,0.7,0.7s0.7-0.3,0.7-0.7S39,22,38.7,22z M9.3,24.7c-0.4,0-0.7,0.3-0.7,0.7S9,26,9.3,26c0.4,0,0.7-0.3,0.7-0.7
				S9.7,24.7,9.3,24.7z M38.7,24.7c-0.4,0-0.7,0.3-0.7,0.7s0.3,0.7,0.7,0.7s0.7-0.3,0.7-0.7S39,24.7,38.7,24.7z M9.3,27.3
				c-0.4,0-0.7,0.3-0.7,0.7s0.3,0.7,0.7,0.7S10,28.4,10,28S9.7,27.3,9.3,27.3z M38.7,27.3c-0.4,0-0.7,0.3-0.7,0.7s0.3,0.7,0.7,0.7
				s0.7-0.3,0.7-0.7S39,27.3,38.7,27.3z M9.3,30c-0.4,0-0.7,0.3-0.7,0.7s0.3,0.7,0.7,0.7s0.7-0.3,0.7-0.7S9.7,30,9.3,30z M38.7,30
				c-0.4,0-0.7,0.3-0.7,0.7s0.3,0.7,0.7,0.7s0.7-0.3,0.7-0.7S39,30,38.7,30z M9.3,32.7c-0.4,0-0.7,0.3-0.7,0.7S9,34,9.3,34
				c0.4,0,0.7-0.3,0.7-0.7S9.7,32.7,9.3,32.7z M38.7,32.7c-0.4,0-0.7,0.3-0.7,0.7s0.3,0.7,0.7,0.7s0.7-0.3,0.7-0.7
				S39,32.7,38.7,32.7z M9.3,35.3c-0.4,0-0.7,0.3-0.7,0.7s0.3,0.7,0.7,0.7S10,36.4,10,36S9.7,35.3,9.3,35.3z M38.7,35.3
				c-0.4,0-0.7,0.3-0.7,0.7s0.3,0.7,0.7,0.7s0.7-0.3,0.7-0.7S39,35.3,38.7,35.3z M9.3,38c-0.4,0-0.7,0.3-0.7,0.7s0.3,0.7,0.7,0.7
				s0.7-0.3,0.7-0.7S9.7,38,9.3,38z M12,38c-0.4,0-0.7,0.3-0.7,0.7s0.3,0.7,0.7,0.7s0.7-0.3,0.7-0.7S12.4,38,12,38z M14.7,38
				c-0.4,0-0.7,0.3-0.7,0.7s0.3,0.7,0.7,0.7s0.7-0.3,0.7-0.7S15,38,14.7,38z M17.3,38c-0.4,0-0.7,0.3-0.7,0.7s0.3,0.7,0.7,0.7
				S18,39,18,38.7S17.7,38,17.3,38z M20,38c-0.4,0-0.7,0.3-0.7,0.7s0.3,0.7,0.7,0.7s0.7-0.3,0.7-0.7S20.4,38,20,38z M22.7,38
				c-0.4,0-0.7,0.3-0.7,0.7s0.3,0.7,0.7,0.7s0.7-0.3,0.7-0.7S23,38,22.7,38z M25.3,38c-0.4,0-0.7,0.3-0.7,0.7s0.3,0.7,0.7,0.7
				S26,39,26,38.7S25.7,38,25.3,38z M28,38c-0.4,0-0.7,0.3-0.7,0.7s0.3,0.7,0.7,0.7s0.7-0.3,0.7-0.7S28.4,38,28,38z M30.7,38
				c-0.4,0-0.7,0.3-0.7,0.7s0.3,0.7,0.7,0.7s0.7-0.3,0.7-0.7S31,38,30.7,38z M33.3,38c-0.4,0-0.7,0.3-0.7,0.7s0.3,0.7,0.7,0.7
				S34,39,34,38.7S33.7,38,33.3,38z M36,38c-0.4,0-0.7,0.3-0.7,0.7s0.3,0.7,0.7,0.7s0.7-0.3,0.7-0.7S36.4,38,36,38z M38.7,38
				c-0.4,0-0.7,0.3-0.7,0.7s0.3,0.7,0.7,0.7s0.7-0.3,0.7-0.7S39,38,38.7,38z"/>
		</g>
	</g>
</g>
<g id="Layer_2_1_">
	<circle class="st1" cx="36.7" cy="36.7" r="11.2"/>
	<rect x="35.2" y="30" class="st2" width="3" height="13.1"/>
	<rect x="30.1" y="35" class="st2" width="13.1" height="3"/>
</g>
</svg>
