<?xml version="1.0" encoding="utf-8"?>
<!-- Generator: Adobe Illustrator 22.0.0, SVG Export Plug-In . SVG Version: 6.00 Build 0)  -->
<svg version="1.1" id="Layer_1" xmlns="http://www.w3.org/2000/svg" xmlns:xlink="http://www.w3.org/1999/xlink" x="0px" y="0px"
	 viewBox="0 0 48 48" style="enable-background:new 0 0 48 48;" xml:space="preserve">
<style type="text/css">
	.st0{fill:#525969;}
	.st1{display:none;}
	.st2{display:inline;fill:#FFFFFF;}
	.st3{display:inline;fill:#17BB5D;}
	.st4{fill:#FFFFFF;}
	.st5{fill:#17BB5D;}
</style>
<g id="Layer_1_1_">
	<title>icons/48/switch/on/onn</title>
	<desc>Created with Sketch.</desc>
	<g id="Symbols">
		<g id="icons_x2F_48_x2F_switch_x2F_on_x2F_onn">
			<path id="Shape" class="st0" d="M11.6,3C10.2,3,9,4.2,9,5.6v36.8c0,1.4,1.2,2.6,2.6,2.6h22.8c1.4,0,2.6-1.2,2.6-2.6V5.6
				C37,4.2,35.8,3,34.4,3H11.6z M11.6,4.8h22.8c0.5,0,0.9,0.4,0.9,0.9v36.8c0,0.5-0.4,0.9-0.9,0.9H11.6c-0.5,0-0.9-0.4-0.9-0.9V5.6
				C10.8,5.1,11.1,4.8,11.6,4.8z M17.8,10.9c-0.4,0-1,0.2-1.2,0.5c-0.3,0.4-0.5,0.8-0.5,1.2v22.8c0,0.4,0.2,1,0.5,1.2
				c0.4,0.3,0.8,0.5,1.2,0.5h10.5c0.4,0,1-0.2,1.2-0.5c0.3-0.4,0.5-0.8,0.5-1.2V12.6c0-0.4-0.2-1-0.5-1.2c-0.4-0.3-0.8-0.5-1.2-0.5
				C28.3,10.9,17.8,10.9,17.8,10.9z M17.8,12.6h10.5v10.5H17.8V12.6z M17.8,24.9h10.5v10.5H17.8V24.9z M23,26.6
				c-0.5,0-0.9,0.4-0.9,0.9v5.3c0,0.5,0.4,0.9,0.9,0.9s0.9-0.4,0.9-0.9v-5.3C23.9,27,23.5,26.6,23,26.6z"/>
		</g>
	</g>
	<g id="Layer_3_1_" class="st1">
		<circle class="st2" cx="36.6" cy="36.6" r="10.4"/>
		<rect x="35.2" y="30.1" class="st3" width="3" height="13.3"/>
		<rect x="30.1" y="35.2" class="st3" width="13.3" height="3"/>
	</g>
</g>
<g id="Layer_2_1_">
	<circle class="st4" cx="35.8" cy="36.2" r="11.2"/>
	<rect x="34.4" y="29.5" class="st5" width="3" height="13.1"/>
	<rect x="29.4" y="34.5" class="st5" width="13.1" height="3"/>
</g>
</svg>
