<?xml version="1.0" encoding="utf-8"?>
<!-- Generator: Adobe Illustrator 16.0.0, SVG Export Plug-In . SVG Version: 6.00 Build 0)  -->
<!DOCTYPE svg PUBLIC "-//W3C//DTD SVG 1.1//EN" "http://www.w3.org/Graphics/SVG/1.1/DTD/svg11.dtd">
<svg version="1.1" id="Layer_1" xmlns:sketch="http://www.bohemiancoding.com/sketch/ns"
	 xmlns="http://www.w3.org/2000/svg" xmlns:xlink="http://www.w3.org/1999/xlink" x="0px" y="0px" width="14px" height="22px"
	 viewBox="0 0 14 22" enable-background="new 0 0 14 22" xml:space="preserve">
<title>quick Automation</title>
<desc>Created with Sketch.</desc>
<g id="Page-1" sketch:type="MSPage">
	<g id="Billing" transform="translate(-29.000000, -408.000000)" sketch:type="MSArtboardGroup">
		<g id="Nav" transform="translate(0.000000, -2.000000)" sketch:type="MSLayerGroup">
			<g id="quick-Automation" transform="translate(29.000000, 410.000000)" sketch:type="MSShapeGroup">
				<path id="Shape" fill="#6DBFC9" d="M13.71,9.376c0,0-0.001-0.032-0.004-0.076c-0.001-0.002,0-0.005-0.001-0.007
					c-0.018-0.19-0.112-0.657-0.652-0.689l-4.428-0.02l1.139-7.151c0,0,0.066-0.646-0.535-0.758c0,0-0.369-0.156-0.746,0.397
					L0.926,11.251c0,0-0.54,0.491-0.233,0.995c0,0,0.13,0.328,0.562,0.328h4.667l-1.996,8.273c0,0-0.243,0.666,0.283,0.908
					c0,0,0.497,0.295,0.897-0.264s8.479-11.84,8.479-11.84s0.093-0.152,0.113-0.274L13.71,9.376L13.71,9.376z M11.729,9.959
					l-5.833,8.146l1.443-5.807c0,0,0.341-0.963-0.582-1.048h-4.19l5.458-7.354L7.178,9.02c0,0-0.261,0.907,0.864,0.907h3.354
					L11.729,9.959L11.729,9.959z"/>
			</g>
		</g>
	</g>
</g>
</svg>
