<?xml version="1.0" encoding="utf-8"?>
<!-- Generator: Adobe Illustrator 22.0.0, SVG Export Plug-In . SVG Version: 6.00 Build 0)  -->
<svg version="1.1" id="Layer_1" xmlns="http://www.w3.org/2000/svg" xmlns:xlink="http://www.w3.org/1999/xlink" x="0px" y="0px"
	 viewBox="0 0 48 48" style="enable-background:new 0 0 48 48;" xml:space="preserve">
<style type="text/css">
	.st0{fill:#525969;}
	.st1{fill:#FFFFFF;}
	.st2{fill:#17BB5D;}
</style>
<title>icons/48/smoke/on</title>
<desc>Created with Sketch.</desc>
<g id="Symbols">
	<g id="icons_x2F_48_x2F_smoke_x2F_on">
		<path id="Shape" class="st0" d="M24,2C17.3,2,12.2,3,8.7,4.3C7,5,5.6,5.7,4.7,6.4C4.2,6.7,3.8,7,3.5,7.4C3.2,7.7,3,8.1,3,8.7
			c0,0.1,0,0.2,0,0.2l1.6,6.7c0,0.1,0.1,0.2,0.2,0.3l2.7,3.6l1.1,5.1h0.1c0.1,0.4,0.2,0.8,0.5,1c0.3,0.3,0.7,0.5,1.1,0.7
			c0.9,0.4,2,0.8,3.3,1.2c2.7,0.7,6.4,1.2,10.4,1.2s7.6-0.5,10.4-1.2c1.4-0.3,2.5-0.7,3.4-1.2c0.4-0.2,0.8-0.4,1.1-0.7
			c0.3-0.2,0.4-0.6,0.5-1h0.1l1-5l2.7-3.7c0.1-0.1,0.1-0.2,0.1-0.3L45,8.9c0-0.1,0-0.2,0-0.2c0-0.5-0.2-1-0.5-1.3
			c-0.3-0.4-0.7-0.7-1.1-1c-0.9-0.7-2.3-1.4-4-2C35.8,3,30.7,2,24,2z M24,3.9c6.5,0,11.4,1,14.6,2.2c1.6,0.6,2.8,1.2,3.6,1.8
			c0.4,0.3,0.6,0.5,0.7,0.7c0,0.1,0.1,0.1,0.1,0.1L41.4,15l-2.1,2.9c-0.2-0.1-0.3-0.2-0.5-0.3l-0.9,1.7c0.3,0.1,0.4,0.3,0.6,0.4
			l-0.6,2.9c-0.1,0-0.1-0.1-0.2-0.1l-0.8,1.7c0.3,0.1,0.4,0.2,0.5,0.3c-0.1,0.1-0.3,0.2-0.5,0.3c-0.6,0.3-1.7,0.7-3,1
			c-2.6,0.6-6.1,1.1-9.9,1.1s-7.4-0.5-9.9-1.1c-1.3-0.3-2.3-0.7-3-1c-0.2-0.1-0.4-0.2-0.5-0.3c0.2-0.1,0.3-0.2,0.5-0.3l-0.8-1.7
			c-0.1,0-0.1,0.1-0.2,0.1l-0.6-2.9c0.2-0.1,0.3-0.2,0.6-0.4l-0.9-1.7c-0.2,0.1-0.3,0.2-0.5,0.3L6.5,15L4.9,8.7c0,0,0,0,0.1-0.1
			c0.1-0.2,0.4-0.4,0.7-0.7c0.7-0.5,2-1.2,3.6-1.8C12.6,4.9,17.5,3.9,24,3.9z M23,14.4h-1.5h-0.1l-1.3,0.1l0.2,1.9l1.2-0.1h0.1h1.5
			L23,14.4z M25,14.4v1.9h1.2l0,0l1.5,0.1l0.1-1.9l-1.5-0.1h-0.1H25z M18.3,14.8l-1.1,0.1h-0.1l-1.6,0.3l0.4,1.9l1.6-0.3l1.1-0.2
			L18.3,14.8z M29.7,14.8l-0.2,1.9l0.4,0.1l0,0l1.6,0.3l0,0l0.6,0.1l0.4-1.8l-0.6-0.1l0,0L30.2,15h-0.1L29.7,14.8z M13.6,15.8
			l-1.3,0.4h-0.1L11,16.6l0,0l-0.1,0.1l0.8,1.8h0.1l0,0l1.1-0.4H13l1.3-0.4L13.6,15.8z M34.4,15.8l-0.5,1.8l0.4,0.1l0,0l1.1,0.4l0,0
			l1,0.4l0.7-1.8l-1-0.4l0,0l-1.2-0.4l0,0L34.4,15.8z M24,19.7h-1.5v1.9H24l0,0h1.5l0.1-1.9H24L24,19.7z M20.4,19.8l-0.6,0.1h-0.1
			l-1.8,0.2h-0.1l-0.6,0.1l0.4,1.9l0.5-0.1l1.8-0.2l0,0l0.6-0.1L20.4,19.8z M27.6,19.8l-0.1,1.9h0.1l1.5,0.2h0.1l1.2,0.2l0.3-1.9
			L29.4,20l0,0l-1.6-0.2l0,0H27.6z M15.3,20.6l-0.5,0.1h-0.1l-1.3,0.4l0,0l-1.1,0.4l0.6,1.8l1-0.4H14l1.2-0.4h0.1l0.5-0.1L15.3,20.6
			z M32.7,20.6l-0.5,1.8l0.8,0.2l0,0l1,0.3l0,0l1,0.3l0.6-1.8l-1-0.3l0,0l-1.1-0.3h-0.1L32.7,20.6z M15.3,30.6
			c-0.3,0-0.6,0.2-0.7,0.5c-0.1,0.3-0.2,0.6,0,0.8c0,0,0.2,0.5,0.4,1.1c0.1,0.3,0.2,0.6,0.3,0.8s0.1,0.3,0.1,0.3
			c0,0.1-0.1,0.4-0.3,0.8c-0.3,0.5-0.6,1.1-0.6,1.9s0.3,1.4,0.6,1.9s0.4,0.8,0.4,0.7s-0.2,0.7-0.4,1.2s-0.4,1-0.4,1
			c-0.2,0.5,0,1.1,0.4,1.3c0.5,0.2,1.1,0,1.3-0.4c0,0,0.3-0.5,0.5-1.1c0.3-0.6,0.5-1.2,0.5-1.9s-0.4-1.2-0.6-1.6
			c-0.2-0.4-0.4-0.8-0.4-1s0.1-0.6,0.4-1c0.2-0.4,0.6-0.8,0.6-1.6c0-0.4-0.1-0.6-0.2-1c-0.1-0.3-0.2-0.6-0.3-0.9
			c-0.2-0.6-0.5-1.1-0.5-1.1C16.1,30.8,15.7,30.6,15.3,30.6z M32.4,30.6c-0.3,0-0.6,0.2-0.7,0.5s-0.2,0.6,0,0.8c0,0,0.2,0.5,0.4,1.1
			c0.1,0.3,0.2,0.6,0.3,0.8s0.1,0.3,0.1,0.3c0,0.1-0.1,0.4-0.3,0.8c-0.3,0.5-0.6,1.1-0.6,1.9s0.3,1.4,0.6,1.9
			c0.2,0.5,0.4,0.8,0.4,0.7s-0.2,0.7-0.4,1.2s-0.4,1-0.4,1c-0.2,0.5,0,1.1,0.4,1.3c0.5,0.2,1.1,0,1.3-0.4c0,0,0.3-0.5,0.5-1.1
			c0.3-0.6,0.5-1.2,0.5-1.9s-0.4-1.2-0.6-1.6c-0.2-0.4-0.4-0.8-0.4-1s0.1-0.6,0.4-1c0.2-0.4,0.6-0.8,0.6-1.6c0-0.4-0.1-0.6-0.2-1
			c-0.1-0.3-0.2-0.6-0.3-0.9c-0.2-0.6-0.5-1.1-0.5-1.1C33.3,30.8,32.9,30.6,32.4,30.6z M24,32.5c-0.1,0-0.1,0-0.2,0
			c-0.3,0.1-0.5,0.2-0.7,0.5c-0.1,0.3-0.1,0.6,0,0.8c0,0,0.2,0.5,0.4,1.1c0.1,0.3,0.2,0.6,0.3,0.9c0.1,0.2,0.1,0.5,0.1,0.4
			c0,0-0.2,0.4-0.4,0.9c-0.2,0.5-0.6,1.2-0.6,2s0.3,1.5,0.6,2c0.2,0.5,0.4,0.9,0.4,0.9s-0.2,0.8-0.4,1.4c-0.2,0.6-0.4,1.1-0.4,1.1
			c-0.2,0.3-0.2,0.7,0,1s0.6,0.5,0.9,0.4c0.4-0.1,0.7-0.3,0.8-0.7c0,0,0.3-0.5,0.5-1.2s0.5-1.3,0.5-2.1s-0.3-1.3-0.6-1.7
			c-0.2-0.5-0.4-0.9-0.4-1.1s0.2-0.7,0.4-1.2c0.2-0.5,0.6-0.9,0.6-1.7c0-0.4-0.1-0.7-0.2-1s-0.2-0.7-0.4-1c-0.2-0.7-0.5-1.3-0.5-1.3
			C24.7,32.7,24.4,32.5,24,32.5z"/>
	</g>
</g>
<g id="Layer_2_1_">
	<circle class="st1" cx="35.5" cy="24.8" r="11.2"/>
	<rect x="34.1" y="18" class="st2" width="3" height="13.1"/>
	<rect x="29" y="23" class="st2" width="13.1" height="3"/>
</g>
</svg>
