<?xml version="1.0" encoding="utf-8"?>
<!-- Generator: Adobe Illustrator 22.0.0, SVG Export Plug-In . SVG Version: 6.00 Build 0)  -->
<svg version="1.1" id="Layer_1" xmlns="http://www.w3.org/2000/svg" xmlns:xlink="http://www.w3.org/1999/xlink" x="0px" y="0px"
	 viewBox="0 0 48 48" style="enable-background:new 0 0 48 48;" xml:space="preserve">
<style type="text/css">
	.st0{fill:#525969;}
	.st1{fill:#FFFFFF;}
	.st2{fill:#F65136;}
</style>
<g id="Layer_1_1_">
	<title>icons/48/720P_Streaming_Camera/on</title>
	<desc>Created with Sketch.</desc>
	<g id="Symbols">
		<g id="icons_x2F_48_x2F_720P_x5F_Streaming_x5F_Camera_x2F_on">
			<path id="Shape" class="st0" d="M10,4C7.8,4,6,5.8,6,8v32c0,2.2,1.8,4,4,4h28c2.2,0,4-1.8,4-4V8c0-2.2-1.8-4-4-4H10z M10,2h28
				c3.3,0,6,2.7,6,6v32c0,3.3-2.7,6-6,6H10c-3.3,0-6-2.7-6-6V8C4,4.7,6.7,2,10,2z M24,7.7c-4,0-7.3,3.3-7.3,7.4s3.3,7.4,7.3,7.4
				s7.3-3.3,7.3-7.4S28,7.7,24,7.7z M24,9.1c3.2,0,5.9,2.6,5.9,5.9s-2.6,5.9-5.9,5.9s-5.9-2.6-5.9-5.9S20.8,9.1,24,9.1z M35.5,10
				c-0.8,0-1.5,0.2-1.5,0.5v1c0,0.3,0.7,0.5,1.5,0.5s1.5-0.2,1.5-0.5v-1C37,10.2,36.3,10,35.5,10z M35.5,14c-0.8,0-1.5,0.2-1.5,0.5
				v1c0,0.3,0.7,0.5,1.5,0.5s1.5-0.2,1.5-0.5v-1C37,14.2,36.3,14,35.5,14z M35.5,18c-0.8,0-1.5,0.2-1.5,0.5v1c0,0.3,0.7,0.5,1.5,0.5
				s1.5-0.2,1.5-0.5v-1C37,18.2,36.3,18,35.5,18z M35.5,22c-0.8,0-1.5,0.2-1.5,0.5v1c0,0.3,0.7,0.5,1.5,0.5s1.5-0.2,1.5-0.5v-1
				C37,22.2,36.3,22,35.5,22z M12.5,10c-0.8,0-1.5,0.2-1.5,0.5v1c0,0.3,0.7,0.5,1.5,0.5s1.5-0.2,1.5-0.5v-1C14,10.2,13.3,10,12.5,10
				z M12.5,14c-0.8,0-1.5,0.2-1.5,0.5v1c0,0.3,0.7,0.5,1.5,0.5s1.5-0.2,1.5-0.5v-1C14,14.2,13.3,14,12.5,14z M12.5,18
				c-0.8,0-1.5,0.2-1.5,0.5v1c0,0.3,0.7,0.5,1.5,0.5s1.5-0.2,1.5-0.5v-1C14,18.2,13.3,18,12.5,18z M12.5,22c-0.8,0-1.5,0.2-1.5,0.5
				v1c0,0.3,0.7,0.5,1.5,0.5s1.5-0.2,1.5-0.5v-1C14,22.2,13.3,22,12.5,22z M25.1,10.8c-0.3,0-0.5,0.2-0.6,0.5
				c-0.1,0.4,0.1,0.8,0.5,0.9c0.6,0.2,1.1,0.6,1.4,1.1c0.1,0.2,0.4,0.3,0.6,0.3s0.3,0,0.4-0.1c0.3-0.2,0.4-0.7,0.2-1
				c-0.5-0.7-1.3-1.3-2.1-1.6C25.3,10.8,25.2,10.8,25.1,10.8z M22.3,11c0.3,0,0.6,0.1,0.7,0.4c0.2,0.4,0,0.8-0.3,1
				c-1,0.5-1.6,1.5-1.6,2.6c0,1.6,1.3,2.9,2.9,2.9c1.4,0,2.6-1,2.9-2.3c0.1-0.4,0.5-0.7,0.9-0.6c0.4,0.1,0.7,0.5,0.6,0.9
				c-0.4,2-2.2,3.5-4.3,3.5c-2.4,0-4.4-2-4.4-4.4c0-1.7,0.9-3.2,2.4-3.9C22.1,11,22.2,11,22.3,11z M33,30c0.6,0,1,0.4,1,1
				s-0.4,1-1,1s-1-0.4-1-1S32.4,30,33,30z M37,30c0.6,0,1,0.4,1,1s-0.4,1-1,1s-1-0.4-1-1S36.4,30,37,30z M29,30c0.6,0,1,0.4,1,1
				s-0.4,1-1,1s-1-0.4-1-1S28.4,30,29,30z M33,34c0.6,0,1,0.4,1,1s-0.4,1-1,1s-1-0.4-1-1S32.4,34,33,34z M37,34c0.6,0,1,0.4,1,1
				s-0.4,1-1,1s-1-0.4-1-1S36.4,34,37,34z M29,34c0.6,0,1,0.4,1,1s-0.4,1-1,1s-1-0.4-1-1S28.4,34,29,34z M33,38c0.6,0,1,0.4,1,1
				s-0.4,1-1,1s-1-0.4-1-1S32.4,38,33,38z M37,38c0.6,0,1,0.4,1,1s-0.4,1-1,1s-1-0.4-1-1S36.4,38,37,38z M29,38c0.6,0,1,0.4,1,1
				s-0.4,1-1,1s-1-0.4-1-1S28.4,38,29,38z"/>
		</g>
	</g>
</g>
<g id="Layer_2_1_">
	<circle class="st1" cx="36" cy="35.8" r="11.2"/>
	
		<rect x="28.9" y="33.8" transform="matrix(0.7198 -0.6942 0.6942 0.7198 -14.4807 34.9588)" class="st2" width="14.3" height="3.2"/>
	
		<rect x="34.5" y="28.2" transform="matrix(0.7198 -0.6942 0.6942 0.7198 -14.4475 34.9672)" class="st2" width="3.2" height="14.3"/>
</g>
</svg>
