<?xml version="1.0" encoding="utf-8"?>
<!-- Generator: Adobe Illustrator 22.0.0, SVG Export Plug-In . SVG Version: 6.00 Build 0)  -->
<svg version="1.1" id="Layer_1" xmlns="http://www.w3.org/2000/svg" xmlns:xlink="http://www.w3.org/1999/xlink" x="0px" y="0px"
	 viewBox="0 0 48 48" style="enable-background:new 0 0 48 48;" xml:space="preserve">
<style type="text/css">
	.st0{fill:#525969;}
	.st1{fill:#FFFFFF;}
	.st2{fill:#F65136;}
</style>
<title>icons/48/1080P_Streaming_Camera/on</title>
<desc>Created with Sketch.</desc>
<g id="Symbols">
	<g id="icons_x2F_48_x2F_1080P_x5F_Streaming_x5F_Camera_x2F_on">
		<path id="Shape" class="st0" d="M23.5,4C14.4,4,7,11.4,7,20.5v0.9C7,30.6,14.4,38,23.5,38h0.9C33.6,38,41,30.6,41,21.5v-0.9
			C41,11.4,33.6,4,24.5,4H23.5z M28.9,42.7c-0.6-0.4-1.1-0.8-1.7-1.2c-0.1-0.1-0.9-0.7-1-0.9c-0.6-0.5-1-0.6-2.2-0.6
			c-1,0-1.4,0.2-2.2,0.8c0.1,0-1.2,0.9-1.7,1.3c-0.4,0.3-0.7,0.5-1.1,0.7c-0.5,0.3-1.4,0.7-2.7,1.2h15.4
			C30.3,43.4,29.4,43,28.9,42.7z M18,41c2.5-1.4,3.1-3,6-3c3.2,0,3.3,1.3,6,3c0.5,0.3,2.3,1.1,5.2,2.3c1.1,0.5,1.8,1.5,1.8,2.7H11
			c0-1.2,0.7-2.3,1.8-2.7C15.6,42.1,17.3,41.4,18,41z M23.5,2h1C34.7,2,43,10.3,43,20.5v1C43,31.7,34.7,40,24.5,40h-1
			C13.3,40,5,31.7,5,21.5v-1C5,10.3,13.3,2,23.5,2z M24,9.7c-4,0-7.3,3.3-7.3,7.4s3.3,7.4,7.3,7.4s7.3-3.3,7.3-7.4S28,9.7,24,9.7z
			 M24,11.1c3.2,0,5.9,2.6,5.9,5.9s-2.6,5.9-5.9,5.9s-5.9-2.6-5.9-5.9S20.8,11.1,24,11.1z M18,27c-0.6,0-1,0.3-1,0.8v1.5
			c0,0.4,0.4,0.8,1,0.8s1-0.3,1-0.8v-1.5C19,27.3,18.6,27,18,27z M24,27c-0.6,0-1,0.3-1,0.8v1.5c0,0.4,0.4,0.8,1,0.8s1-0.3,1-0.8
			v-1.5C25,27.3,24.6,27,24,27z M30,27c-0.6,0-1,0.3-1,0.8v1.5c0,0.4,0.4,0.8,1,0.8s1-0.3,1-0.8v-1.5C31,27.3,30.6,27,30,27z
			 M25.1,12.8c-0.3,0-0.5,0.2-0.6,0.5c-0.1,0.4,0.1,0.8,0.5,0.9c0.6,0.2,1.1,0.6,1.4,1.1c0.1,0.2,0.4,0.3,0.6,0.3s0.3,0,0.4-0.1
			c0.3-0.2,0.4-0.7,0.2-1c-0.5-0.7-1.3-1.3-2.1-1.6C25.3,12.8,25.2,12.8,25.1,12.8z M22.3,13c0.3,0,0.6,0.1,0.7,0.4
			c0.2,0.4,0,0.8-0.3,1c-1,0.5-1.6,1.5-1.6,2.6c0,1.6,1.3,2.9,2.9,2.9c1.4,0,2.6-1,2.9-2.3c0.1-0.4,0.5-0.7,0.9-0.6s0.7,0.5,0.6,0.9
			c-0.4,2-2.2,3.5-4.3,3.5c-2.4,0-4.4-2-4.4-4.4c0-1.7,0.9-3.2,2.4-3.9C22.1,13,22.2,13,22.3,13z M24,34c0.6,0,1,0.4,1,1s-0.4,1-1,1
			s-1-0.4-1-1S23.4,34,24,34z M28,34c0.6,0,1,0.4,1,1s-0.4,1-1,1s-1-0.4-1-1S27.4,34,28,34z M20,34c0.6,0,1,0.4,1,1s-0.4,1-1,1
			s-1-0.4-1-1S19.4,34,20,34z"/>
	</g>
</g>
<g id="Layer_2_3_">
	<circle class="st1" cx="35.8" cy="35.8" r="11.2"/>
	
		<rect x="28.7" y="33.8" transform="matrix(0.7198 -0.6942 0.6942 0.7198 -14.5297 34.8374)" class="st2" width="14.3" height="3.2"/>
	
		<rect x="34.3" y="28.2" transform="matrix(0.7198 -0.6942 0.6942 0.7198 -14.4966 34.8457)" class="st2" width="3.2" height="14.3"/>
</g>
</svg>
