<?xml version="1.0" encoding="utf-8"?>
<!-- Generator: Adobe Illustrator 22.0.0, SVG Export Plug-In . SVG Version: 6.00 Build 0)  -->
<svg version="1.1" id="Layer_1" xmlns="http://www.w3.org/2000/svg" xmlns:xlink="http://www.w3.org/1999/xlink" x="0px" y="0px"
	 viewBox="0 0 48 48" style="enable-background:new 0 0 48 48;" xml:space="preserve">
<style type="text/css">
	.st0{fill:#525969;}
	.st1{fill:#FFFFFF;}
	.st2{fill:#17BB5D;}
</style>
<title>icons/48/water_sensor/on</title>
<desc>Created with Sketch.</desc>
<g id="Symbols">
	<g id="icons_x2F_48_x2F_water_x5F_sensor_x2F_on">
		<path id="Shape" class="st0" d="M5.2,2C4.8,2,4.5,2.3,4.5,2.7s0.3,0.7,0.7,0.7c0.4,0,0.7-0.3,0.7-0.7S5.5,2,5.2,2z M16.9,2
			c-0.4,0-0.6,0.3-0.6,0.7s0.3,0.7,0.6,0.7s0.6-0.3,0.6-0.7S17.2,2,16.9,2z M5.2,4.6c-0.4,0-0.7,0.3-0.7,0.7C4.5,5.7,4.8,6,5.2,6
			c0.4,0,0.7-0.3,0.7-0.7C5.8,4.9,5.5,4.6,5.2,4.6z M16.9,4.6c-0.4,0-0.6,0.3-0.6,0.7c0,0.4,0.3,0.7,0.6,0.7s0.6-0.3,0.6-0.7
			S17.2,4.6,16.9,4.6z M5.1,7.2c-0.4,0-0.6,0.3-0.6,0.7v4.6c0,9.1,7.3,16.4,16.3,16.4H21c0.3,0.7,0.9,1.3,1.7,1.3
			c0.8,0,1.4-0.6,1.7-1.3h4.2c1.1,0,2,0.9,2,2v8.5h13v-7.2c0-9.1-7.3-16.4-16.3-16.4h-2.9c-0.3-0.7-0.9-1.3-1.7-1.3
			c-0.8,0-1.4,0.6-1.7,1.3h-1.6c-1.1,0-2-0.9-2-2V7.9c0-0.2-0.1-0.5-0.3-0.6c-0.2-0.1-0.5-0.1-0.7,0s-0.3,0.3-0.3,0.6v5.9
			c0,1.8,1.5,3.3,3.3,3.3h1.3c0,0.4,0.3,0.7,0.6,0.7s0.6-0.3,0.6-0.7v-0.7c0-0.4,0.3-0.7,0.7-0.7s0.6,0.3,0.6,0.7v0.7
			c0,0.4,0.3,0.7,0.6,0.7s0.6-0.3,0.6-0.7H27c8.3,0,15,6.8,15,15.1v5.9H31.8v-7.2c0-1.8-1.5-3.3-3.3-3.3h-3.9c0-0.4-0.3-0.7-0.6-0.7
			s-0.6,0.3-0.6,0.7v0.7c0,0.4-0.3,0.7-0.6,0.7S22,28.6,22,28.3v-0.7c0-0.4-0.3-0.7-0.6-0.7s-0.6,0.3-0.6,0.7
			c-8.3,0-14.9-6.8-14.9-15.1V7.9c0-0.2-0.1-0.3-0.2-0.5C5.5,7.3,5.3,7.2,5.1,7.2z M21.4,19.1c-0.4,0-0.6,0.3-0.6,0.7
			c0,0.4,0.3,0.7,0.6,0.7s0.6-0.3,0.6-0.7S21.8,19.1,21.4,19.1z M24,19.1c-0.4,0-0.6,0.3-0.6,0.7c0,0.4,0.3,0.7,0.6,0.7
			s0.6-0.3,0.6-0.7S24.4,19.1,24,19.1z M21.4,21.7c-0.4,0-0.6,0.3-0.6,0.7c0,0.4,0.3,0.7,0.6,0.7s0.6-0.3,0.6-0.7
			S21.8,21.7,21.4,21.7z M24,21.7c-0.4,0-0.6,0.3-0.6,0.7c0,0.4,0.3,0.7,0.6,0.7s0.6-0.3,0.6-0.7S24.4,21.7,24,21.7z M21.4,24.3
			c-0.4,0-0.6,0.3-0.6,0.7c0,0.4,0.3,0.7,0.6,0.7S22,25.3,22,25C22,24.6,21.8,24.3,21.4,24.3z M24,24.3c-0.4,0-0.6,0.3-0.6,0.7
			c0,0.4,0.3,0.7,0.6,0.7s0.6-0.3,0.6-0.7C24.6,24.6,24.4,24.3,24,24.3z M37,41.4c0,0-1.3,2.6-1.3,3.3S36.3,46,37,46
			s1.3-0.6,1.3-1.3S37,41.4,37,41.4z"/>
	</g>
</g>
<g id="Layer_2_1_">
	<circle class="st1" cx="35.7" cy="23.1" r="11.2"/>
	<rect x="34.4" y="16.1" class="st2" width="3" height="13.1"/>
	<rect x="29.4" y="21.2" class="st2" width="13.1" height="3"/>
</g>
</svg>
